<svg width="16" height="12" viewBox="0 0 16 12" fill="none" xmlns="http://www.w3.org/2000/svg">
<path d="M11.3438 1.16797L15.8438 5.66797C15.9375 5.76172 16 5.88672 16 6.01172C16 6.10547 15.9375 6.26172 15.8438 6.35547L11.3438 10.8555C11.1563 11.043 10.8125 11.043 10.625 10.8555C10.4375 10.668 10.4375 10.3555 10.625 10.1367L14.2813 6.51172L0.5 6.51172C0.21875 6.51172 0 6.26172 0 6.01172C0 5.76172 0.21875 5.51172 0.5 5.51172L14.2813 5.51172L10.625 1.88672C10.4375 1.69922 10.4375 1.35547 10.625 1.16797C10.8125 0.980469 11.1563 0.980469 11.3438 1.16797Z" fill="white"/>
</svg>
