<svg width="13" height="15" viewBox="0 0 13 15" fill="none" xmlns="http://www.w3.org/2000/svg">
<path d="M5.65625 13.8437L0.15625 8.65625C0.0312496 8.5625 -3.67449e-07 8.40625 -3.61985e-07 8.28125C-3.56521e-07 8.15625 0.0312496 8.03125 0.125 7.9375C0.3125 7.71875 0.625 7.71875 0.8125 7.90625L5.5 12.2812L5.5 0.5C5.5 0.21875 5.71875 -3.61985e-07 5.96875 -3.51057e-07C6.21875 -3.40129e-07 6.5 0.21875 6.5 0.5L6.5 12.2812L11.1562 7.90625C11.3437 7.71875 11.6562 7.71875 11.8437 7.9375C12.0312 8.15625 12.0312 8.46875 11.8125 8.65625L6.3125 13.8437C6.125 14.0312 5.84375 14.0312 5.65625 13.8437Z" fill="white"/>
</svg>
