<svg width="24" height="16" viewBox="0 0 24 16" fill="none" xmlns="http://www.w3.org/2000/svg">
<path d="M21.8236 2.97061H2.17587C1.3806 2.97061 0.772461 2.37623 0.772461 1.59895C0.772461 0.82168 1.3806 0.227295 2.17587 0.227295H21.8236C22.6189 0.227295 23.227 0.82168 23.227 1.59895C23.227 2.37623 22.6189 2.97061 21.8236 2.97061ZM21.8236 9.37168H2.17587C1.3806 9.37168 0.772461 8.7773 0.772461 8.00002C0.772461 7.22275 1.3806 6.62836 2.17587 6.62836H21.8236C22.6189 6.62836 23.227 7.22275 23.227 8.00002C23.227 8.7773 22.6189 9.37168 21.8236 9.37168ZM21.8236 15.7727H2.17587C1.3806 15.7727 0.772461 15.1784 0.772461 14.4011C0.772461 13.6238 1.3806 13.0294 2.17587 13.0294H21.8236C22.6189 13.0294 23.227 13.6238 23.227 14.4011C23.227 15.1784 22.6189 15.7727 21.8236 15.7727Z" fill="white"/>
</svg>
