<svg width="22" height="18" viewBox="0 0 22 18" fill="none" xmlns="http://www.w3.org/2000/svg">
<path fill-rule="evenodd" clip-rule="evenodd" d="M0 1.11111C0 0.816426 0.112061 0.533811 0.311532 0.325437C0.511002 0.117063 0.781542 0 1.06364 0H20.9364C21.2185 0 21.489 0.117063 21.6885 0.325437C21.8879 0.533811 22 0.816426 22 1.11111C22 1.4058 21.8879 1.68841 21.6885 1.89679C21.489 2.10516 21.2185 2.22222 20.9364 2.22222H1.06364C0.781542 2.22222 0.511002 2.10516 0.311532 1.89679C0.112061 1.68841 0 1.4058 0 1.11111ZM0 9C0 8.70531 0.112061 8.4227 0.311532 8.21433C0.511002 8.00595 0.781542 7.88889 1.06364 7.88889H14.5545C14.8366 7.88889 15.1072 8.00595 15.3067 8.21433C15.5061 8.4227 15.6182 8.70531 15.6182 9C15.6182 9.29469 15.5061 9.5773 15.3067 9.78568C15.1072 9.99405 14.8366 10.1111 14.5545 10.1111H1.06364C0.781542 10.1111 0.511002 9.99405 0.311532 9.78568C0.112061 9.5773 0 9.29469 0 9ZM0 16.8889C0 16.5942 0.112061 16.3116 0.311532 16.1032C0.511002 15.8948 0.781542 15.7778 1.06364 15.7778H20.9364C21.2185 15.7778 21.489 15.8948 21.6885 16.1032C21.8879 16.3116 22 16.5942 22 16.8889C22 17.1836 21.8879 17.4662 21.6885 17.6746C21.489 17.8829 21.2185 18 20.9364 18H1.06364C0.781542 18 0.511002 17.8829 0.311532 17.6746C0.112061 17.4662 0 17.1836 0 16.8889Z" fill="#A61B28"/>
</svg>
