<svg width="15" height="17" viewBox="0 0 15 17" fill="none" xmlns="http://www.w3.org/2000/svg">
<path d="M13.2683 0H1.2439C0.913998 0 0.597607 0.131054 0.36433 0.36433C0.131054 0.597607 0 0.913998 0 1.2439V15.5488C0.000324617 15.8211 0.0785846 16.0876 0.225533 16.3168C0.372482 16.5461 0.581977 16.7284 0.829267 16.8424C1.02874 16.9471 1.25084 17.0012 1.4761 17C1.77567 16.9902 2.06506 16.8889 2.30536 16.7097L6.74194 13.3927C6.88549 13.285 7.06008 13.2268 7.2395 13.2268C7.41893 13.2268 7.59352 13.285 7.73707 13.3927L12.1736 16.7097C12.3893 16.8714 12.6456 16.9699 12.914 16.9941C13.1825 17.0183 13.4523 16.9673 13.6934 16.8468C13.9344 16.7262 14.1372 16.541 14.2789 16.3117C14.4205 16.0825 14.4956 15.8183 14.4956 15.5488V1.2439C14.4956 0.916852 14.3668 0.602948 14.1371 0.370142C13.9074 0.137337 13.5953 0.00436066 13.2683 0Z" fill="#A61B28"/>
</svg>
