<svg width="30" height="40" viewBox="0 0 30 40" fill="none" xmlns="http://www.w3.org/2000/svg">
<path d="M14.9826 0C12.8609 0 10.826 0.842855 9.32573 2.34315C7.82544 3.84344 6.98258 5.87827 6.98258 8V9.33333H5.87592C4.75341 9.33215 3.67369 9.76395 2.86154 10.5388C2.0494 11.3137 1.56741 12.372 1.51592 13.4933L0.462584 35.4267C0.435582 36.0165 0.528285 36.6056 0.735105 37.1586C0.941925 37.7116 1.25858 38.217 1.66598 38.6444C2.07338 39.0717 2.5631 39.4121 3.1056 39.6451C3.6481 39.8781 4.23217 39.9988 4.82258 40H25.1426C25.733 39.9988 26.3171 39.8781 26.8596 39.6451C27.4021 39.4121 27.8918 39.0717 28.2992 38.6444C28.7066 38.217 29.0232 37.7116 29.2301 37.1586C29.4369 36.6056 29.5296 36.0165 29.5026 35.4267L28.4492 13.4933C28.3978 12.372 27.9158 11.3137 27.1036 10.5388C26.2915 9.76395 25.2118 9.33215 24.0893 9.33333H22.9826V8C22.9826 5.87827 22.1397 3.84344 20.6394 2.34315C19.1391 0.842855 17.1043 0 14.9826 0ZM9.64925 8C9.64925 6.58551 10.2112 5.22896 11.2113 4.22876C12.2115 3.22857 13.5681 2.66667 14.9826 2.66667C16.3971 2.66667 17.7536 3.22857 18.7538 4.22876C19.754 5.22896 20.3159 6.58551 20.3159 8V9.33333H9.64925V8ZM7.46258 14.92C7.46258 14.6563 7.54078 14.3985 7.68729 14.1792C7.8338 13.96 8.04204 13.7891 8.28567 13.6882C8.52931 13.5872 8.7974 13.5608 9.05604 13.6123C9.31468 13.6637 9.55226 13.7907 9.73873 13.9772C9.9252 14.1637 10.0522 14.4012 10.1036 14.6599C10.1551 14.9185 10.1287 15.1866 10.0278 15.4302C9.92684 15.6739 9.75594 15.8821 9.53668 16.0286C9.31741 16.1751 9.05962 16.2533 8.79592 16.2533C8.44229 16.2533 8.10316 16.1129 7.85311 15.8628C7.60306 15.6128 7.46258 15.2736 7.46258 14.92ZM19.8359 14.92C19.8359 14.6563 19.9141 14.3985 20.0606 14.1792C20.2071 13.96 20.4154 13.7891 20.659 13.6882C20.9026 13.5872 21.1707 13.5608 21.4294 13.6123C21.688 13.6637 21.9256 13.7907 22.1121 13.9772C22.2985 14.1637 22.4255 14.4012 22.477 14.6599C22.5284 14.9185 22.502 15.1866 22.4011 15.4302C22.3002 15.6739 22.1293 15.8821 21.91 16.0286C21.6907 16.1751 21.433 16.2533 21.1692 16.2533C20.8156 16.2533 20.4765 16.1129 20.2264 15.8628C19.9764 15.6128 19.8359 15.2736 19.8359 14.92Z" fill="#A96D2B"/>
</svg>
