<svg width="21" height="20" viewBox="0 0 21 20" fill="none" xmlns="http://www.w3.org/2000/svg">
<path d="M16.7006 18.9711L1.02882 3.29924C0.445741 2.71616 0.471309 1.79883 1.08782 1.18232C1.70433 0.56581 2.62166 0.540242 3.20474 1.12332L18.8766 16.7951C19.4596 17.3782 19.4341 18.2955 18.8176 18.9121C18.201 19.5286 17.2837 19.5541 16.7006 18.9711Z" fill="#A61B28"/>
<path d="M19.1814 3.20488L3.50957 18.8767C2.92649 19.4598 2.00916 19.4342 1.39265 18.8177C0.776138 18.2012 0.750569 17.2839 1.33365 16.7008L17.0055 1.02896C17.5885 0.445885 18.5059 0.471452 19.1224 1.08796C19.7389 1.70447 19.7645 2.62181 19.1814 3.20488Z" fill="#A61B28"/>
</svg>
