<svg width="17" height="22" viewBox="0 0 17 22" fill="none" xmlns="http://www.w3.org/2000/svg">
<path fill-rule="evenodd" clip-rule="evenodd" d="M16.2791 18.3811C16.2791 19.0958 16.0093 19.782 15.5302 20.2878C15.05 20.7929 14.3994 21.0767 13.7209 21.077H2.55814C1.88 21.077 1.22884 20.7927 0.748837 20.2878C0.269577 19.7818 0.000284852 19.0961 0 18.3811V2.6959C0 1.98124 0.269767 1.29501 0.748837 0.789163C1.22904 0.284094 1.87969 0.000300191 2.55814 0H10.5451C10.9767 0 11.3907 0.18038 11.6958 0.502907L15.8019 4.83007C16.1079 5.15161 16.2791 5.58786 16.2791 6.04273V18.3811ZM14.8837 18.3811V6.04273C14.8838 6.01052 14.8778 5.97862 14.8662 5.94885C14.8545 5.91908 14.8374 5.89201 14.8158 5.86921L10.7098 1.54205C10.6881 1.51931 10.6625 1.50128 10.6342 1.489C10.6059 1.47672 10.5757 1.47043 10.5451 1.47049H2.55814C2.2499 1.47101 1.95442 1.60028 1.73647 1.82998C1.51851 2.05967 1.39584 2.37106 1.39535 2.6959V18.3811C1.39584 18.706 1.51851 19.0173 1.73647 19.247C1.95442 19.4767 2.2499 19.606 2.55814 19.6065H13.7209C14.0292 19.606 14.3246 19.4767 14.5426 19.247C14.7606 19.0173 14.8832 18.706 14.8837 18.3811Z" fill="white"/>
<path fill-rule="evenodd" clip-rule="evenodd" d="M10.2323 1.22548C10.2323 1.03048 10.3058 0.843468 10.4367 0.705583C10.5675 0.567697 10.745 0.490234 10.93 0.490234C11.115 0.490234 11.2925 0.567697 11.4233 0.705583C11.5542 0.843468 11.6277 1.03048 11.6277 1.22548V4.65662C11.6277 4.79191 11.7319 4.9017 11.8602 4.9017H15.1161C15.3011 4.9017 15.4785 4.97917 15.6094 5.11705C15.7402 5.25494 15.8137 5.44195 15.8137 5.63695C15.8137 5.83195 15.7402 6.01896 15.6094 6.15684C15.4785 6.29473 15.3011 6.37219 15.1161 6.37219H11.8602C11.4285 6.37219 11.0144 6.19144 10.7091 5.86971C10.4038 5.54798 10.2323 5.11162 10.2323 4.65662V1.22548ZM4.41838 9.80333C4.23334 9.80333 4.05589 9.72587 3.92505 9.58799C3.79421 9.4501 3.7207 9.26309 3.7207 9.06809C3.7207 8.87309 3.79421 8.68608 3.92505 8.54819C4.05589 8.41031 4.23334 8.33284 4.41838 8.33284H11.8602C12.0453 8.33284 12.2227 8.41031 12.3536 8.54819C12.4844 8.68608 12.5579 8.87309 12.5579 9.06809C12.5579 9.26309 12.4844 9.4501 12.3536 9.58799C12.2227 9.72587 12.0453 9.80333 11.8602 9.80333H4.41838ZM4.41838 13.2345C4.23334 13.2345 4.05589 13.157 3.92505 13.0191C3.79421 12.8812 3.7207 12.6942 3.7207 12.4992C3.7207 12.3042 3.79421 12.1172 3.92505 11.9793C4.05589 11.8414 4.23334 11.764 4.41838 11.764H11.8602C12.0453 11.764 12.2227 11.8414 12.3536 11.9793C12.4844 12.1172 12.5579 12.3042 12.5579 12.4992C12.5579 12.6942 12.4844 12.8812 12.3536 13.0191C12.2227 13.157 12.0453 13.2345 11.8602 13.2345H4.41838ZM4.41838 16.6656C4.23334 16.6656 4.05589 16.5882 3.92505 16.4503C3.79421 16.3124 3.7207 16.1254 3.7207 15.9304C3.7207 15.7354 3.79421 15.5484 3.92505 15.4105C4.05589 15.2726 4.23334 15.1951 4.41838 15.1951H8.60442C8.78946 15.1951 8.96691 15.2726 9.09775 15.4105C9.22859 15.5484 9.3021 15.7354 9.3021 15.9304C9.3021 16.1254 9.22859 16.3124 9.09775 16.4503C8.96691 16.5882 8.78946 16.6656 8.60442 16.6656H4.41838Z" fill="white"/>
</svg>
