<svg width="14" height="16" viewBox="0 0 14 16" fill="none" xmlns="http://www.w3.org/2000/svg">
<path d="M11 16H3C1.3125 16 0 14.6875 0 13V10.75C0 10.3438 0.3125 10 0.75 10C1.15625 10 1.5 10.3438 1.5 10.75V13C1.5 13.8438 2.15625 14.5 3 14.5H11C11.8125 14.5 12.5 13.8438 12.5 13V10.75C12.5 10.3438 12.8125 10 13.25 10C13.6562 10 14 10.3438 14 10.75V13C14 14.6562 12.6562 16 11 16ZM7.5 10.8125L11.75 6.8125C12.0625 6.53125 12.0625 6.0625 11.7812 5.75C11.5 5.4375 11.0312 5.4375 10.7188 5.71875L7.75 8.53125V0.75C7.75 0.34375 7.40625 0 7 0C6.5625 0 6.25 0.34375 6.25 0.75V8.53125L3.25 5.71875C2.9375 5.4375 2.46875 5.4375 2.1875 5.75C2.0625 5.90625 2 6.09375 2 6.25C2 6.46875 2.0625 6.65625 2.21875 6.8125L6.46875 10.8125C6.75 11.0938 7.21875 11.0938 7.5 10.8125Z" fill="white"/>
</svg>
