<svg width="19" height="14" viewBox="0 0 19 14" fill="none" xmlns="http://www.w3.org/2000/svg">
<path d="M0.301758 2.75C0.301758 1.51953 1.28613 0.5 2.55176 0.5H16.0518C17.2822 0.5 18.3018 1.51953 18.3018 2.75V11.75C18.3018 13.0156 17.2822 14 16.0518 14H2.55176C1.28613 14 0.301758 13.0156 0.301758 11.75V2.75ZM1.42676 2.75V4.15625L8.28223 9.21875C8.87988 9.64062 9.68848 9.64062 10.2861 9.21875L17.1768 4.15625V2.75C17.1768 2.15234 16.6494 1.625 16.0518 1.625H2.5166C1.91895 1.625 1.3916 2.15234 1.3916 2.75H1.42676ZM1.42676 5.5625V11.75C1.42676 12.3828 1.91895 12.875 2.55176 12.875H16.0518C16.6494 12.875 17.1768 12.3828 17.1768 11.75V5.5625L10.9541 10.1328C9.96973 10.8359 8.59863 10.8359 7.61426 10.1328L1.42676 5.5625Z" fill="#A61B28"/>
</svg>
