<svg width="12" height="22" viewBox="0 0 12 22" fill="none" xmlns="http://www.w3.org/2000/svg">
<path d="M3.27949 12.3254C3.1975 12.3254 1.39378 12.3254 0.573911 12.3254C0.136645 12.3254 0 12.1614 0 11.7515C0 10.6583 0 9.53785 0 8.44469C0 8.00742 0.163975 7.87078 0.573911 7.87078H3.27949C3.27949 7.78879 3.27949 6.2037 3.27949 5.46582C3.27949 4.37265 3.47079 3.33415 4.01737 2.37763C4.59128 1.39378 5.41116 0.737885 6.44966 0.355278C7.13289 0.109316 7.81612 0 8.554 0H11.2322C11.6149 0 11.7788 0.163974 11.7788 0.546582V3.6621C11.7788 4.0447 11.6149 4.20868 11.2322 4.20868C10.4944 4.20868 9.75648 4.20868 9.01859 4.23601C8.28071 4.23601 7.8981 4.59129 7.8981 5.3565C7.87077 6.17637 7.8981 6.96892 7.8981 7.81612H11.0683C11.5055 7.81612 11.6695 7.98009 11.6695 8.41736V11.7242C11.6695 12.1614 11.5329 12.2981 11.0683 12.2981C10.0844 12.2981 7.98009 12.2981 7.8981 12.2981V21.2074C7.8981 21.672 7.76146 21.8359 7.26953 21.8359C6.12171 21.8359 5.00122 21.8359 3.8534 21.8359C3.44346 21.8359 3.27949 21.672 3.27949 21.262C3.27949 18.3925 3.27949 12.4074 3.27949 12.3254Z" fill="#006AE6"/>
</svg>
