<svg width="10" height="18" viewBox="0 0 10 18" fill="none" xmlns="http://www.w3.org/2000/svg">
<path d="M2.70338 10.1602C2.6358 10.1602 1.14894 10.1602 0.473092 10.1602C0.112641 10.1602 0 10.025 0 9.68711C0 8.78598 0 7.86233 0 6.9612C0 6.60075 0.135169 6.48811 0.473092 6.48811H2.70338C2.70338 6.42053 2.70338 5.11389 2.70338 4.50563C2.70338 3.60451 2.86108 2.74844 3.31164 1.95995C3.78473 1.14894 4.46058 0.60826 5.31665 0.292866C5.87985 0.0901125 6.44305 0 7.05132 0H9.25907C9.57447 0 9.70964 0.135169 9.70964 0.450563V3.01877C9.70964 3.33417 9.57447 3.46934 9.25907 3.46934C8.65081 3.46934 8.04255 3.46934 7.43429 3.49186C6.82603 3.49186 6.51064 3.78473 6.51064 4.41552C6.48811 5.09136 6.51064 5.74468 6.51064 6.44305H9.12391C9.48436 6.44305 9.61952 6.57822 9.61952 6.93867V9.66458C9.61952 10.025 9.50688 10.1377 9.12391 10.1377C8.31289 10.1377 6.57822 10.1377 6.51064 10.1377V17.4819C6.51064 17.8648 6.398 18 5.99249 18C5.04631 18 4.12265 18 3.17647 18C2.83855 18 2.70338 17.8648 2.70338 17.5269C2.70338 15.1615 2.70338 10.2278 2.70338 10.1602Z" fill="#A61B28"/>
</svg>
