<svg width="11" height="22" viewBox="0 0 11 22" fill="none" xmlns="http://www.w3.org/2000/svg">
<path d="M10.7075 9.3838L10.3727 12.2836C10.3588 12.4159 10.2968 12.5385 10.1984 12.6281C10.1001 12.7177 9.97229 12.7681 9.83925 12.7697H6.81274L6.79761 21.3669C6.79863 21.4688 6.75952 21.567 6.68873 21.6402C6.61793 21.7135 6.52115 21.756 6.41929 21.7585H3.35306C3.30208 21.7585 3.25161 21.7482 3.2047 21.7283C3.15779 21.7083 3.11539 21.6791 3.08005 21.6424C3.04472 21.6056 3.01717 21.5621 2.99908 21.5144C2.98098 21.4668 2.9727 21.4159 2.97474 21.365V12.7697H0.704859C0.633566 12.769 0.563117 12.7542 0.497535 12.7262C0.431953 12.6983 0.372523 12.6576 0.322638 12.6067C0.272753 12.5558 0.23339 12.4955 0.206798 12.4293C0.180205 12.3632 0.166904 12.2924 0.167653 12.2212L0.156303 9.32137C0.155303 9.24983 0.168405 9.17879 0.194862 9.11231C0.221319 9.04584 0.260612 8.98522 0.310498 8.93393C0.360383 8.88264 0.419884 8.84168 0.485602 8.81339C0.55132 8.78509 0.621967 8.77002 0.693509 8.76904H2.97474V5.96951C2.97474 2.71979 4.90415 0.951172 7.73394 0.951172H10.053C10.1247 0.951912 10.1956 0.9668 10.2615 0.994983C10.3274 1.02317 10.3871 1.06409 10.4372 1.1154C10.4873 1.16672 10.5268 1.22742 10.5534 1.29402C10.5799 1.36062 10.5931 1.43181 10.5921 1.50351V3.94364C10.5931 4.01534 10.5799 4.08653 10.5534 4.15313C10.5268 4.21973 10.4873 4.28043 10.4372 4.33174C10.3871 4.38306 10.3274 4.42398 10.2615 4.45217C10.1956 4.48035 10.1247 4.49524 10.053 4.49598H8.63054C7.09269 4.49598 6.79382 5.2526 6.79382 6.34593V8.76904H10.1741C10.2509 8.77 10.3267 8.78722 10.3965 8.81957C10.4662 8.85192 10.5283 8.89867 10.5787 8.95674C10.6291 9.0148 10.6666 9.08288 10.6888 9.15648C10.711 9.23009 10.7174 9.30756 10.7075 9.3838Z" fill="white"/>
</svg>
