<svg width="37" height="37" viewBox="0 0 37 37" fill="none" xmlns="http://www.w3.org/2000/svg">
<path d="M1.13099 6.53422H18.3507C18.8697 8.94692 20.9793 10.7582 23.4952 10.7582C26.0111 10.7582 28.1207 8.94699 28.6397 6.53422H35.0608C35.6854 6.53422 36.1918 6.01701 36.1918 5.37908C36.1918 4.74116 35.6854 4.22395 35.0608 4.22395H28.6391C28.1191 1.81247 26.0066 0 23.4952 0C20.9824 0 18.8709 1.81218 18.3512 4.22395H1.13099C0.506402 4.22395 0 4.74116 0 5.37908C0 6.01701 0.506402 6.53422 1.13099 6.53422ZM20.4906 5.38212L20.4906 5.3697C20.4956 3.6827 21.8434 2.31033 23.4952 2.31033C25.1447 2.31033 26.4925 3.68082 26.4997 5.36703L26.4999 5.38399C26.4973 7.07388 25.1504 8.44805 23.4952 8.44805C21.8407 8.44805 20.4942 7.07525 20.4905 5.38638L20.4906 5.38212ZM35.0608 30.4657H28.6391C28.1191 28.0543 26.0066 26.2418 23.4952 26.2418C20.9824 26.2418 18.8709 28.054 18.3512 30.4657H1.13099C0.506402 30.4657 0 30.9828 0 31.6208C0 32.2588 0.506402 32.776 1.13099 32.776H18.3507C18.8697 35.1887 20.9793 37 23.4952 37C26.0111 37 28.1207 35.1887 28.6397 32.776H35.0608C35.6854 32.776 36.1918 32.2588 36.1918 31.6208C36.1918 30.9828 35.6854 30.4657 35.0608 30.4657ZM23.4952 34.6897C21.8407 34.6897 20.4942 33.3169 20.4905 31.6281L20.4906 31.6239L20.4906 31.6115C20.4956 29.9245 21.8434 28.552 23.4952 28.552C25.1447 28.552 26.4925 29.9225 26.4997 31.6086L26.4999 31.6256C26.4975 33.3157 25.1505 34.6897 23.4952 34.6897ZM35.0608 17.3449H17.8411C17.3221 14.9322 15.2125 13.1209 12.6966 13.1209C10.1807 13.1209 8.07113 14.9322 7.55214 17.3449H1.13099C0.506402 17.3449 0 17.8621 0 18.5C0 19.138 0.506402 19.6551 1.13099 19.6551H7.55271C8.07275 22.0665 10.1852 23.8791 12.6966 23.8791C15.2094 23.8791 17.3209 22.0668 17.8407 19.6551H35.0608C35.6854 19.6551 36.1918 19.138 36.1918 18.5C36.1918 17.8621 35.6854 17.3449 35.0608 17.3449ZM15.7012 18.497L15.7012 18.5094C15.6962 20.1964 14.3484 21.5688 12.6966 21.5688C11.0471 21.5688 9.69926 20.1983 9.69212 18.5121L9.69191 18.4952C9.69439 16.8051 11.0413 15.4312 12.6966 15.4312C14.3511 15.4312 15.6976 16.8039 15.7013 18.4929L15.7012 18.497Z" fill="#666666"/>
</svg>
