<svg width="28" height="28" viewBox="0 0 28 28" fill="none" xmlns="http://www.w3.org/2000/svg">
<path d="M1.35747 5.09732H14.4424C14.8368 6.89238 16.4398 8.24 18.3516 8.24C20.2634 8.24 21.8664 6.89243 22.2608 5.09732H27.1401C27.6147 5.09732 27.9995 4.71251 27.9995 4.23789C27.9995 3.76328 27.6147 3.37847 27.1401 3.37847H22.2604C21.8652 1.58432 20.26 0.23584 18.3516 0.23584C16.4422 0.23584 14.8377 1.58411 14.4427 3.37847H1.35747C0.882853 3.37847 0.498047 3.76328 0.498047 4.23789C0.498047 4.71251 0.882853 5.09732 1.35747 5.09732ZM16.0684 4.24015L16.0685 4.23091C16.0723 2.97578 17.0964 1.95474 18.3516 1.95474C19.605 1.95474 20.6292 2.97438 20.6347 4.22892L20.6348 4.24155C20.6328 5.49883 19.6094 6.52121 18.3516 6.52121C17.0944 6.52121 16.0712 5.49985 16.0684 4.24332L16.0684 4.24015ZM27.1401 22.9024H22.2604C21.8652 21.1083 20.26 19.7598 18.3516 19.7598C16.4422 19.7598 14.8377 21.1081 14.4427 22.9024H1.35747C0.882853 22.9024 0.498047 23.2872 0.498047 23.7618C0.498047 24.2365 0.882853 24.6213 1.35747 24.6213H14.4424C14.8368 26.4163 16.4398 27.7639 18.3516 27.7639C20.2634 27.7639 21.8664 26.4163 22.2608 24.6213H27.1401C27.6147 24.6213 27.9995 24.2365 27.9995 23.7618C27.9995 23.2872 27.6147 22.9024 27.1401 22.9024ZM18.3516 26.0451C17.0944 26.0451 16.0712 25.0237 16.0684 23.7672L16.0684 23.7641L16.0685 23.7549C16.0723 22.4997 17.0964 21.4786 18.3516 21.4786C19.605 21.4786 20.6292 22.4983 20.6347 23.7528L20.6348 23.7654C20.633 25.0228 19.6095 26.0451 18.3516 26.0451ZM27.1401 13.1405H14.0551C13.6608 11.3454 12.0577 9.99784 10.146 9.99784C8.23418 9.99784 6.63114 11.3454 6.23678 13.1405H1.35747C0.882853 13.1405 0.498047 13.5253 0.498047 13.9999C0.498047 14.4746 0.882853 14.8593 1.35747 14.8593H6.23721C6.63238 16.6534 8.23756 18.0019 10.146 18.0019C12.0554 18.0019 13.6599 16.6536 14.0548 14.8593H27.1401C27.6147 14.8593 27.9995 14.4746 27.9995 13.9999C27.9995 13.5253 27.6147 13.1405 27.1401 13.1405ZM12.4291 13.9976L12.4291 14.0069C12.4253 15.262 11.4011 16.2831 10.146 16.2831C8.89255 16.2831 7.86833 15.2634 7.86291 14.0089L7.86275 13.9963C7.86463 12.7389 8.88814 11.7167 10.146 11.7167C11.4032 11.7167 12.4263 12.738 12.4292 13.9946L12.4291 13.9976Z" fill="white"/>
</svg>
