<svg width="702" height="694" viewBox="0 0 702 694" fill="none" xmlns="http://www.w3.org/2000/svg">
<path d="M484.699 118.512C484.699 118.512 482.268 109.463 486.559 102.252C490.707 95.0407 499.861 92.4956 499.861 92.4956C499.861 92.4956 502.293 101.545 498.002 108.756C493.854 115.967 484.699 118.512 484.699 118.512ZM501.864 202.074C505.583 204.195 510.303 202.923 512.449 199.246C514.594 195.57 513.307 190.904 509.588 188.783C505.869 186.663 501.149 187.935 499.003 191.611C496.858 195.429 498.145 200.095 501.864 202.074ZM512.735 70.4385C514.022 71.1455 515.882 70.7213 516.597 69.4488C517.312 68.1763 516.883 66.3382 515.596 65.6312C514.308 64.9243 512.449 65.3484 511.734 66.6209C510.875 67.8935 511.447 69.5902 512.735 70.4385ZM519.887 84.5777C521.174 85.2847 523.034 84.8605 523.749 83.588C524.464 82.3154 524.035 80.4773 522.747 79.7704C521.46 79.0634 519.601 79.4876 518.885 80.7601C518.17 82.174 518.599 83.8707 519.887 84.5777ZM523.606 97.4443C522.891 98.7169 523.32 100.555 524.607 101.262C525.894 101.969 527.754 101.545 528.469 100.272C529.184 98.9996 528.755 97.1616 527.468 96.4546C526.037 95.6062 524.321 96.1718 523.606 97.4443ZM525.465 115.118C524.75 116.391 525.179 118.229 526.466 118.936C527.754 119.643 529.613 119.219 530.328 117.946C531.044 116.674 530.615 114.836 529.327 114.129C527.897 113.28 526.18 113.704 525.465 115.118ZM529.184 133.499C527.897 132.792 526.037 133.216 525.322 134.489C524.607 135.761 525.036 137.6 526.323 138.307C527.611 139.014 529.47 138.589 530.185 137.317C531.044 136.044 530.615 134.348 529.184 133.499ZM523.463 151.456C522.175 150.749 520.316 151.173 519.601 152.446C518.885 153.718 519.315 155.556 520.602 156.263C521.889 156.97 523.749 156.546 524.464 155.274C525.322 153.86 524.893 152.163 523.463 151.456ZM496.715 71.4283C498.002 72.1352 499.861 71.7111 500.577 70.4385C501.292 69.166 500.863 67.3279 499.575 66.6209C498.288 65.914 496.428 66.3382 495.713 67.6107C494.855 68.8832 495.427 70.5799 496.715 71.4283ZM479.836 75.67C481.123 76.377 482.983 75.9528 483.698 74.6803C484.413 73.4078 483.984 71.5697 482.697 70.8627C481.409 70.1557 479.55 70.5799 478.835 71.8524C477.977 73.2664 478.406 74.9631 479.836 75.67ZM463.387 82.881C464.674 83.588 466.534 83.1638 467.249 81.8913C467.964 80.6187 467.535 78.7806 466.247 78.0737C464.96 77.3667 463.101 77.7909 462.385 79.0634C461.67 80.4773 462.099 82.174 463.387 82.881ZM446.365 92.7784C447.652 93.4854 449.512 93.0612 450.227 91.7887C450.942 90.5162 450.513 88.6781 449.226 87.9711C447.939 87.2641 446.079 87.6883 445.364 88.9608C444.506 90.2334 445.078 91.9301 446.365 92.7784ZM436.352 101.686C435.065 100.979 433.206 101.403 432.49 102.676C431.775 103.948 432.204 105.786 433.492 106.493C434.779 107.2 436.639 106.776 437.354 105.504C438.212 104.231 437.783 102.534 436.352 101.686ZM598.987 213.386C606.282 209.285 608.857 200.236 608.857 200.236C608.857 200.236 599.702 197.832 592.407 202.074C585.112 206.175 582.537 215.224 582.537 215.224C582.537 215.224 591.692 217.486 598.987 213.386ZM557.792 285.637C554.073 287.758 552.786 292.423 554.931 296.1C557.077 299.776 561.797 301.048 565.516 298.927C569.235 296.807 570.522 292.141 568.377 288.465C566.231 284.788 561.511 283.516 557.792 285.637ZM634.889 188.359C636.177 187.652 636.749 185.814 635.891 184.542C635.176 183.269 633.316 182.704 632.029 183.552C630.741 184.259 630.169 186.097 631.027 187.369C631.886 188.783 633.602 189.208 634.889 188.359ZM634.031 204.195C635.319 203.488 635.891 201.65 635.032 200.377C634.317 199.105 632.458 198.539 631.17 199.388C629.883 200.095 629.311 201.933 630.169 203.205C630.884 204.619 632.601 205.043 634.031 204.195ZM625.735 220.031C626.45 221.303 628.31 221.869 629.597 221.021C630.884 220.314 631.456 218.476 630.598 217.203C629.74 215.931 628.024 215.365 626.736 216.213C625.449 216.92 625.02 218.617 625.735 220.031ZM619.441 232.332C618.154 233.039 617.582 234.877 618.44 236.15C619.155 237.422 621.015 237.988 622.302 237.139C623.589 236.432 624.162 234.594 623.303 233.322C622.588 232.049 620.872 231.484 619.441 232.332ZM609.572 249.158C608.284 249.865 607.712 251.703 608.57 252.975C609.286 254.248 611.145 254.813 612.432 253.965C613.72 253.258 614.292 251.42 613.434 250.147C612.575 248.875 610.859 248.309 609.572 249.158ZM595.554 261.883C594.267 262.59 593.694 264.428 594.553 265.7C595.268 266.973 597.127 267.539 598.415 266.69C599.702 265.983 600.274 264.145 599.416 262.873C598.558 261.459 596.841 261.035 595.554 261.883ZM620.586 181.29C621.873 180.583 622.445 178.745 621.587 177.472C620.872 176.2 619.012 175.634 617.725 176.482C616.438 177.189 615.865 179.027 616.724 180.3C617.439 181.714 619.298 182.138 620.586 181.29ZM603.707 176.765C604.994 176.058 605.567 174.22 604.708 172.948C603.993 171.675 602.134 171.109 600.846 171.958C599.559 172.665 598.987 174.503 599.845 175.775C600.703 177.048 602.42 177.472 603.707 176.765ZM585.97 174.927C587.258 174.22 587.83 172.382 586.972 171.109C586.256 169.837 584.397 169.271 583.11 170.12C581.822 170.827 581.25 172.665 582.108 173.937C582.824 175.21 584.54 175.634 585.97 174.927ZM566.231 174.927C567.518 174.22 568.091 172.382 567.232 171.109C566.517 169.837 564.658 169.271 563.37 170.12C562.083 170.827 561.511 172.665 562.369 173.937C563.084 175.21 564.801 175.775 566.231 174.927ZM548.065 180.583C549.353 179.876 549.925 178.038 549.067 176.765C548.351 175.493 546.492 174.927 545.205 175.775C543.917 176.482 543.345 178.32 544.203 179.593C545.061 180.865 546.778 181.431 548.065 180.583ZM701.545 347.142L699.543 350.111C697.826 352.656 656.059 413.738 602.992 413.879C648.907 440.319 654.2 513.701 654.343 516.812L654.629 520.347L651.482 521.902C649.479 522.892 614.721 539.576 578.389 539.576C563.799 539.576 548.78 536.89 535.621 529.396C562.083 574.924 529.47 641.095 528.04 643.923L526.466 647.034L522.747 646.892C519.601 646.751 445.221 641.52 418.616 596.133C418.473 648.589 356.68 689.876 354.106 691.572L351.102 693.552L348.098 691.572C345.523 689.876 283.731 648.589 283.588 596.133C256.84 641.52 182.603 646.751 179.456 646.892L175.88 647.175L174.307 644.065C172.876 641.237 140.263 575.065 166.726 529.537C153.566 537.031 138.547 539.718 123.957 539.718C87.4824 539.718 52.8671 523.033 50.8646 522.044L47.7178 520.488L47.8608 516.812C48.0038 513.701 53.2963 440.178 99.2115 413.879C46.1443 413.738 4.3772 352.656 2.66074 350.111L0.658203 347.142L2.66074 344.173C4.3772 341.628 46.1443 280.547 99.2115 280.405C53.2963 254.106 48.0038 180.583 47.8608 177.472L47.5747 173.937L50.7216 172.382C53.5823 170.968 120.524 138.731 166.582 164.888C140.12 119.36 172.733 53.1887 174.163 50.3609L175.737 47.2503L179.456 47.3917C182.603 47.5331 256.983 52.7646 283.588 98.1513C283.731 45.695 345.523 4.40861 348.098 2.71191L351.102 0.732422L354.106 2.71191C356.68 4.40861 418.473 45.695 418.616 98.1513C445.364 52.7646 519.601 47.5331 522.747 47.3917L526.323 47.1089L527.897 50.2195C529.327 53.0473 561.94 119.219 535.478 164.747C581.536 138.589 648.478 170.827 651.339 172.241L654.486 173.796L654.343 177.472C654.2 180.583 648.907 254.106 602.992 280.405C656.059 280.547 697.826 341.628 699.543 344.173L701.545 347.142ZM612.146 347.142C612.146 347.142 604.279 357.605 591.406 368.775C593.122 376.269 602.992 382.631 605.996 382.631C632.029 382.631 654.486 354.777 660.064 347.142C654.486 339.648 632.029 311.653 605.996 311.653C601.705 311.653 595.125 317.591 591.835 325.792C604.565 336.962 612.146 347.142 612.146 347.142ZM531.187 309.249C505.297 309.249 481.839 328.761 469.108 341.769H514.451C516.74 334.7 523.463 329.609 531.33 329.609C541.056 329.609 548.923 337.386 548.923 347.001C548.923 356.615 541.056 364.392 531.33 364.392C523.463 364.392 516.74 359.302 514.451 352.232H469.108C481.982 365.382 505.44 384.752 531.187 384.752C560.796 384.752 587.401 359.16 598.272 346.859C587.258 334.982 560.796 309.249 531.187 309.249ZM474.687 558.664C479.979 543.252 489.134 507.622 474.258 482.313C461.384 460.255 432.49 449.792 414.611 445.409L437.211 484.151C444.506 482.595 452.373 485.706 456.235 492.493C458.523 496.593 459.239 501.259 457.951 505.784C456.664 510.308 453.803 513.984 449.655 516.388C446.937 517.943 443.934 518.792 440.787 518.792C439.213 518.792 437.64 518.65 436.209 518.226C431.632 516.953 427.913 514.126 425.482 510.025C423.193 505.925 422.478 501.259 423.765 496.734C424.48 494.048 425.911 491.503 427.77 489.524L405.456 450.641C400.45 468.173 395.157 498.007 408.031 520.064C422.764 545.515 458.523 555.412 474.687 558.664ZM389.436 525.154C389.436 499.562 369.697 476.374 356.537 463.79V508.611C363.689 510.874 368.838 517.519 368.838 525.296C368.838 534.91 360.971 542.687 351.245 542.687C341.518 542.687 333.651 534.91 333.651 525.296C333.651 517.519 338.8 510.874 345.952 508.611V463.79C332.65 476.515 313.054 499.704 313.054 525.154C313.054 554.422 338.943 580.721 351.388 591.467C363.546 580.58 389.436 554.422 389.436 525.154ZM329.217 584.822C321.636 586.518 315.199 596.274 315.199 599.243C315.199 624.977 343.378 647.175 351.102 652.69C358.683 647.175 387.004 624.977 387.004 599.243C387.004 595.002 380.997 588.498 372.7 585.246C361.544 597.688 351.245 605.182 351.245 605.182C351.245 605.182 340.517 597.405 329.217 584.822ZM249.259 563.896C233.238 569.127 220.508 570.541 220.508 570.541C220.508 570.541 215.215 558.664 211.926 541.98C204.488 539.576 194.046 544.949 192.615 547.494C179.599 569.834 192.758 602.92 196.62 611.545C206.061 610.555 241.678 605.182 254.694 582.983C256.84 579.449 254.837 570.965 249.259 563.896ZM209.208 515.398C209.351 503.238 211.496 490.655 217.504 479.343C205.775 485.423 192.615 487.544 180.028 487.544C182.031 500.552 179.599 513.984 174.02 522.468C182.746 516.529 196.907 511.863 209.208 515.398ZM153.28 484.575C136.831 481.181 124.958 476.233 124.958 476.233C124.958 476.233 126.389 463.366 131.967 447.247C126.675 441.592 114.946 441.026 112.371 442.44C89.771 455.307 84.4786 490.513 83.4773 499.845C92.0596 503.663 125.674 516.671 148.274 503.804C151.85 501.683 154.567 493.341 153.28 484.575ZM90.0571 347.142C90.0571 347.142 97.9242 336.679 110.798 325.509C109.081 318.015 99.2115 311.653 96.2077 311.653C70.1748 311.794 47.7178 339.648 42.1393 347.142C47.7178 354.636 70.1748 382.631 96.2077 382.631C100.499 382.631 107.079 376.693 110.368 368.492C97.7811 357.322 90.0571 347.142 90.0571 347.142ZM171.16 385.035C197.05 385.035 220.508 365.523 233.238 352.515H187.895C185.607 359.585 178.884 364.675 171.017 364.675C161.29 364.675 153.423 356.898 153.423 347.283C153.423 337.669 161.29 329.892 171.017 329.892C178.884 329.892 185.607 334.982 187.895 342.052H233.238C220.365 328.903 196.907 309.532 171.16 309.532C141.551 309.532 114.946 335.124 104.075 347.425C114.946 359.443 141.408 385.035 171.16 385.035ZM227.517 135.62C222.224 151.032 213.07 186.662 227.946 211.972C240.819 234.029 269.713 244.492 287.593 248.875L264.85 209.992C263.562 210.275 262.418 210.416 261.131 210.416C259.557 210.416 257.984 210.275 256.553 209.851C251.976 208.578 248.257 205.75 245.826 201.65C243.537 197.55 242.822 192.884 244.109 188.359C245.396 183.835 248.257 180.158 252.405 177.755C256.553 175.493 261.274 174.786 265.851 176.058C270.428 177.331 274.147 180.158 276.579 184.259C280.441 191.046 279.44 199.246 274.29 204.761L296.89 243.502C301.897 225.969 307.189 196.136 294.316 174.079C279.44 148.77 243.68 138.872 227.517 135.62ZM452.945 130.389C468.965 125.157 481.696 123.743 481.696 123.743C481.696 123.743 486.988 135.62 490.278 152.304C497.716 154.708 508.158 149.335 509.588 146.79C522.604 124.45 509.445 91.3645 505.583 82.7396C496.142 83.7293 460.526 89.1022 447.509 111.301C445.507 114.836 447.366 123.46 452.945 130.389ZM492.996 178.886C492.853 191.046 490.707 203.63 484.699 214.941C496.428 208.861 509.588 206.74 522.175 206.74C520.173 193.732 522.604 180.3 528.183 171.816C521.603 176.341 511.734 180.017 502.007 180.017C499.003 180.158 495.999 179.734 492.996 178.886ZM548.923 209.709C565.373 213.103 577.245 218.051 577.245 218.051C577.245 218.051 575.815 230.918 570.236 247.037C575.529 252.692 587.258 253.258 589.832 251.844C612.432 238.977 617.725 203.771 618.726 194.439C610.144 190.621 576.53 177.613 553.93 190.48C550.354 192.601 547.636 200.943 548.923 209.709ZM487.846 225.404C465.532 238.129 454.947 266.69 450.513 284.364L489.706 262.024C488.132 254.813 491.279 247.037 498.145 243.219C506.584 238.412 517.455 241.24 522.318 249.582C524.607 253.682 525.322 258.348 524.035 262.873C522.747 267.397 519.887 271.073 515.739 273.477C513.021 275.032 510.017 275.881 506.87 275.881C505.297 275.881 503.723 275.739 502.293 275.315C499.575 274.608 497.001 273.194 494.998 271.356L455.806 293.696C473.542 298.645 503.723 303.876 526.037 291.151C551.784 276.446 561.654 241.24 565.087 225.262C549.496 219.89 513.593 210.699 487.846 225.404ZM438.212 404.123C430.488 415.717 420.475 425.614 408.746 433.25C419.188 435.229 438.069 440.036 455.233 450.075C445.078 433.108 440.214 414.444 438.212 404.123ZM344.236 525.154C344.236 528.972 347.383 531.941 351.102 531.941C354.964 531.941 357.968 528.83 357.968 525.154C357.968 521.337 354.821 518.367 351.102 518.367C347.24 518.226 344.236 521.337 344.236 525.154ZM264.134 290.161C271.859 278.567 281.871 268.67 293.6 261.035C283.159 259.055 264.278 254.248 247.113 244.209C257.269 261.176 261.989 279.84 264.134 290.161ZM257.698 301.19C247.542 304.583 228.804 309.815 208.922 309.532C226.229 319.147 239.961 333.003 246.97 340.921C247.828 326.64 251.547 313.208 257.698 301.19ZM208.922 384.752C228.804 384.469 247.542 389.701 257.698 393.094C251.547 380.935 247.828 367.502 246.97 353.363C239.961 361.423 226.372 375.138 208.922 384.752ZM247.113 450.075C264.278 440.036 283.159 435.229 293.6 433.25C281.871 425.614 271.859 415.717 264.134 404.123C261.989 414.444 257.269 433.108 247.113 450.075ZM313.054 487.685C322.78 470.577 336.798 457.003 344.808 450.075C330.361 449.227 316.773 445.551 304.614 439.471C308.047 449.51 313.197 468.032 313.054 487.685ZM351.102 436.643C401.022 436.643 441.645 396.488 441.645 347.142C441.645 297.796 401.022 257.641 351.102 257.641C301.181 257.641 260.559 297.796 260.559 347.142C260.559 396.488 301.181 436.643 351.102 436.643ZM358.111 169.271C358.111 165.454 354.964 162.485 351.245 162.485C347.383 162.485 344.379 165.595 344.379 169.271C344.379 173.089 347.526 176.058 351.245 176.058C354.964 176.058 358.111 172.947 358.111 169.271ZM455.233 244.35C438.069 254.389 419.188 259.196 408.746 261.176C420.475 268.811 430.488 278.708 438.212 290.303C440.214 279.84 445.078 261.176 455.233 244.35ZM389.15 206.599C379.423 223.707 365.406 237.281 357.395 244.209C371.842 245.057 385.431 248.733 397.589 254.813C394.299 244.774 389.007 226.252 389.15 206.599ZM444.506 393.236C454.661 389.842 473.399 384.611 493.282 384.894C475.974 375.279 462.242 361.423 455.233 353.505C454.375 367.644 450.656 381.076 444.506 393.236ZM493.282 309.532C473.399 309.815 454.661 304.583 444.506 301.19C450.656 313.349 454.375 326.782 455.233 340.921C462.385 332.862 475.974 319.147 493.282 309.532ZM501.006 261.6C501.864 263.155 503.437 264.287 505.154 264.852C507.013 265.276 508.873 265.135 510.446 264.145C512.02 263.297 513.164 261.741 513.736 260.045C514.165 258.207 514.022 256.369 513.021 254.813C511.734 252.551 509.445 251.42 507.013 251.42C505.869 251.42 504.582 251.703 503.58 252.268C500.291 254.106 499.146 258.348 501.006 261.6ZM407.888 174.22C395.014 196.277 400.307 226.111 405.313 243.643L427.913 204.902C426.054 202.923 424.623 200.378 423.908 197.691C422.621 193.167 423.336 188.501 425.625 184.4C427.913 180.3 431.775 177.472 436.352 176.2C440.93 174.927 445.65 175.634 449.798 177.896C453.946 180.158 456.807 183.976 458.094 188.501C459.382 193.025 458.666 197.691 456.378 201.791C454.089 205.892 450.227 208.72 445.65 209.992C444.077 210.416 442.646 210.558 441.073 210.558C439.785 210.558 438.641 210.416 437.354 210.134L414.611 249.016C432.49 244.492 461.241 234.17 474.258 212.113C489.134 186.663 479.836 151.173 474.687 135.761C458.523 138.872 422.764 148.77 407.888 174.22ZM437.64 198.964C440.93 200.802 445.221 199.671 447.08 196.419C447.939 194.863 448.225 193.025 447.796 191.187C447.366 189.349 446.222 187.935 444.506 187.087C443.504 186.521 442.217 186.097 441.073 186.097C440.501 186.097 439.928 186.238 439.213 186.38C437.354 186.804 435.923 187.935 435.065 189.632C433.206 192.884 434.35 197.125 437.64 198.964ZM428.342 141.134C419.903 130.813 415.326 118.088 415.898 107.907C411.321 117.381 401.308 128.268 388.864 131.378C394.013 140.427 398.161 150.466 399.592 161.071C399.878 162.909 400.021 164.747 400.021 166.585C407.173 155.556 417.471 147.356 428.342 141.134ZM387.004 95.1821C387.004 69.4488 358.826 47.2503 351.102 41.736C343.521 47.2503 315.199 69.4488 315.199 95.1821C315.199 99.4238 321.207 105.928 329.503 109.18C330.79 107.766 332.078 106.352 333.222 105.079C334.652 103.524 336.083 102.11 337.513 100.696C340.946 97.3029 344.093 94.6165 346.381 92.637C347.383 91.7887 348.098 91.2231 348.813 90.6575C350.1 89.5264 350.959 88.9608 350.959 88.9608C350.959 88.9608 351.674 89.5264 353.104 90.6575C353.819 91.2231 354.535 91.7887 355.536 92.637C357.825 94.6165 360.971 97.3029 364.404 100.696C365.835 101.969 367.265 103.524 368.695 105.079C370.126 106.493 371.413 108.049 372.844 109.604C380.568 107.907 387.004 98.1513 387.004 95.1821ZM312.767 169.271C312.767 176.624 314.341 183.693 317.059 190.48C317.774 192.177 318.489 193.873 319.204 195.429C322.351 201.933 326.213 208.013 330.361 213.527C332.936 216.92 335.654 220.172 338.228 223C339.802 224.697 341.375 226.394 342.805 227.949C343.807 228.939 344.665 229.787 345.523 230.635V185.814C338.371 183.552 333.222 176.906 333.222 169.13C333.222 159.515 341.089 151.739 350.816 151.739C360.542 151.739 368.409 159.515 368.409 169.13C368.409 176.906 363.26 183.552 356.108 185.814V230.635C369.411 217.91 389.007 194.722 389.007 169.271C389.007 140.003 363.117 113.704 350.673 102.959C338.8 113.704 312.767 139.862 312.767 169.271ZM313.054 206.599C313.34 226.252 308.047 244.774 304.614 254.813C316.916 248.733 330.504 245.057 344.808 244.209C340.66 240.674 334.938 235.301 328.931 228.514C325.927 225.121 322.78 221.303 319.776 217.203C317.345 213.81 315.056 210.275 313.054 206.599ZM264.564 198.964C267.853 197.125 268.998 192.884 267.138 189.632C266.28 188.076 264.707 186.945 262.99 186.38C262.418 186.238 261.846 186.097 261.131 186.097C259.986 186.097 258.699 186.38 257.698 187.087C256.124 187.935 254.98 189.49 254.408 191.187C253.979 193.025 254.122 194.863 255.123 196.419C255.981 197.974 257.555 199.105 259.271 199.671C261.131 200.236 262.99 199.953 264.564 198.964ZM254.694 111.159C241.678 88.8194 206.061 83.588 196.62 82.5982C192.758 91.0817 179.599 124.309 192.615 146.649C194.761 150.325 203.2 152.87 212.069 151.597C215.502 135.337 220.508 123.602 220.508 123.602C220.508 123.602 233.524 125.016 249.831 130.53C255.695 125.44 256.124 113.704 254.694 111.159ZM209.208 178.038C206.061 178.462 202.914 178.745 199.91 178.745C189.898 178.745 180.457 176.341 173.877 172.099C179.885 180.724 184.462 194.863 180.886 206.882C193.188 207.023 205.918 209.144 217.361 215.082C211.353 203.488 209.208 190.48 209.208 178.038ZM137.117 224.98C140.406 240.957 150.419 276.305 176.166 290.868C198.48 303.593 228.661 298.362 246.398 293.413L207.205 271.073C205.203 272.911 202.628 274.325 199.91 275.032C198.337 275.456 196.907 275.598 195.333 275.598C192.329 275.598 189.326 274.75 186.465 273.194C182.317 270.932 179.456 267.114 178.169 262.59C176.881 258.065 177.596 253.399 179.885 249.299C184.748 240.957 195.619 238.129 204.058 242.936C208.207 245.199 211.067 249.016 212.355 253.541C213.07 256.227 213.213 259.055 212.498 261.741L251.69 284.081C247.113 266.407 236.671 237.988 214.357 225.121C188.753 210.699 152.708 219.89 137.117 224.98ZM198.766 252.268C197.622 251.703 196.477 251.42 195.333 251.42C192.902 251.42 190.613 252.692 189.326 254.813C188.467 256.369 188.181 258.207 188.61 260.045C189.039 261.883 190.184 263.297 191.9 264.145C193.474 264.993 195.333 265.276 197.193 264.852C199.052 264.428 200.483 263.297 201.341 261.6C203.2 258.348 202.056 254.106 198.766 252.268ZM148.274 190.48C125.674 177.613 92.2026 190.621 83.4773 194.439C84.4786 203.771 89.914 238.977 112.371 251.844C116.09 253.965 124.672 251.985 131.824 246.613C126.532 230.777 125.101 218.193 125.101 218.193C125.101 218.193 137.117 212.961 153.995 209.709C156.284 202.357 150.848 191.894 148.274 190.48ZM142.695 270.791C132.825 278.567 120.81 283.092 110.798 283.092C110.225 283.092 109.653 283.092 109.081 283.092C118.665 287.616 129.679 297.514 132.825 309.815C143.553 303.735 155.712 299.352 168.585 298.786C157.285 291.717 148.989 281.536 142.695 270.791ZM171.16 340.355C167.298 340.355 164.294 343.466 164.294 347.142C164.294 350.96 167.441 353.929 171.16 353.929C175.022 353.929 178.026 350.818 178.026 347.142C178.026 343.324 174.879 340.355 171.16 340.355ZM131.967 384.045C127.104 396.346 118.236 406.668 109.081 411.334C119.666 410.627 134.256 413.596 143.124 422.645C149.275 412.182 157.571 402.285 168.442 395.498C155.282 394.932 142.838 390.267 131.967 384.045ZM214.357 468.88C236.671 456.155 247.256 427.594 251.69 409.92L212.498 432.26C214.071 439.471 210.924 447.247 204.058 451.065C201.341 452.62 198.194 453.469 195.19 453.469C189.039 453.469 183.175 450.358 179.885 444.702C175.022 436.36 177.882 425.614 186.322 420.807C193.188 416.99 201.484 417.979 207.062 423.069L246.255 400.73C228.518 395.781 198.337 390.549 176.023 403.275C150.276 417.979 140.406 453.186 136.974 469.163C152.708 474.395 188.753 483.585 214.357 468.88ZM201.198 432.684C199.338 429.432 195.047 428.301 191.757 430.139C188.467 431.977 187.323 436.219 189.183 439.471C191.042 442.723 195.333 443.854 198.623 442.016C202.056 440.178 203.2 435.936 201.198 432.684ZM294.316 520.206C307.189 498.148 301.897 468.315 296.89 450.782L274.29 489.524C279.297 495.038 280.441 503.239 276.579 510.025C273.289 515.681 267.424 518.792 261.274 518.792C258.27 518.792 255.266 518.085 252.405 516.388C248.257 514.126 245.396 510.308 244.109 505.784C242.822 501.259 243.537 496.593 245.826 492.493C249.688 485.706 257.555 482.595 264.85 484.151L287.45 445.409C269.57 449.934 240.819 460.255 227.803 482.313C212.927 507.763 222.224 543.252 227.374 558.664C243.68 555.412 279.44 545.515 294.316 520.206ZM264.564 495.321C263.562 494.755 262.275 494.331 261.131 494.331C260.559 494.331 259.986 494.472 259.271 494.614C257.555 495.038 255.981 496.169 255.123 497.866C254.265 499.421 253.979 501.259 254.408 503.097C254.837 504.794 255.981 506.349 257.698 507.197C260.988 509.036 265.279 507.904 267.138 504.652C268.998 501.4 267.853 497.159 264.564 495.321ZM273.861 553.15C282.3 563.471 286.878 576.197 286.305 586.377C290.883 576.904 300.895 566.016 313.34 562.906C307.189 552.301 302.755 540.283 302.183 527.558C295.031 538.728 284.875 547.07 273.861 553.15ZM389.15 487.685C388.864 468.032 394.156 449.51 397.589 439.471C385.288 445.551 371.699 449.227 357.395 450.075C365.549 457.145 379.423 470.577 389.15 487.685ZM437.64 495.321C436.066 496.169 434.922 497.724 434.35 499.421C433.921 501.259 434.064 503.097 435.065 504.652C435.923 506.208 437.497 507.339 439.213 507.904C440.93 508.329 442.932 508.187 444.506 507.197C446.079 506.349 447.223 504.794 447.796 503.097C448.225 501.259 448.082 499.421 447.08 497.866C445.793 495.603 443.504 494.472 441.073 494.472C439.928 494.331 438.784 494.755 437.64 495.321ZM447.509 583.125C460.526 605.465 496.142 610.696 505.583 611.686C509.445 603.202 522.604 569.975 509.588 547.635C507.442 543.959 499.003 541.414 490.135 542.687C486.702 558.947 481.696 570.682 481.696 570.682C481.696 570.682 468.679 569.268 452.373 563.754C446.651 568.986 446.079 580.58 447.509 583.125ZM492.996 516.247C506.155 514.267 519.744 516.671 528.326 522.185C522.318 513.56 517.741 499.421 521.317 487.403C509.016 487.261 496.285 485.14 484.842 479.202C490.993 490.937 492.996 503.804 492.996 516.247ZM565.087 469.304C561.797 453.327 551.784 417.979 526.037 403.416C503.723 390.691 473.542 395.922 455.806 400.871L494.998 423.211C500.577 418.262 508.873 417.131 515.739 420.949C519.887 423.211 522.747 427.028 524.035 431.553C525.322 436.077 524.607 440.743 522.318 444.844C519.029 450.499 513.164 453.61 507.013 453.61C504.01 453.61 501.006 452.903 498.145 451.206C491.279 447.389 488.132 439.612 489.706 432.401L450.513 410.061C455.09 427.735 465.532 456.155 487.846 469.022C513.593 483.585 549.496 474.395 565.087 469.304ZM503.58 442.016C506.87 443.854 511.161 442.723 513.021 439.471C513.879 437.916 514.165 436.077 513.736 434.239C513.307 432.401 512.163 430.987 510.446 430.139C507.156 428.301 502.865 429.432 501.006 432.684C499.146 435.936 500.291 440.178 503.58 442.016ZM553.93 503.804C576.53 516.671 610.001 503.663 618.726 499.845C617.725 490.513 612.289 455.307 589.832 442.44C586.113 440.319 577.531 442.299 570.379 447.672C575.672 463.507 577.102 476.091 577.102 476.091C577.102 476.091 565.087 481.323 548.208 484.575C545.92 492.069 551.355 502.39 553.93 503.804ZM559.508 423.494C569.95 415.151 582.824 410.627 593.122 411.193C583.539 406.668 572.525 396.771 569.378 384.469C558.65 390.549 546.492 394.932 533.618 395.498C544.918 402.568 553.358 412.748 559.508 423.494ZM531.187 354.07C535.049 354.07 538.053 350.96 538.053 347.283C538.053 343.466 534.906 340.497 531.187 340.497C527.325 340.497 524.321 343.607 524.321 347.283C524.178 350.96 527.325 354.07 531.187 354.07ZM570.236 310.239C575.099 297.938 583.968 287.616 593.122 282.95C592.121 283.092 590.977 283.092 589.975 283.092C579.82 283.092 567.089 279.84 559.222 271.639C553.072 282.102 544.775 291.999 533.904 298.786C546.921 299.352 559.365 304.018 570.236 310.239ZM533.189 207.447C536.193 207.73 539.054 208.154 541.915 208.578C541.056 198.257 544.489 188.218 550.497 184.824C579.534 168.282 621.873 188.642 623.732 189.49L625.735 190.48L625.592 192.742C625.449 194.722 622.159 241.24 593.122 257.783C591.263 258.772 588.402 259.338 584.969 259.338C579.391 259.338 572.668 257.783 567.661 253.965C566.66 256.51 565.516 259.055 564.372 261.6C564.658 261.883 564.944 262.166 565.23 262.59C572.811 272.911 593.122 273.901 597.413 271.498C633.173 251.137 641.612 195.287 643.186 180.583C629.454 174.644 576.244 154.001 540.627 174.361C534.62 177.613 530.185 192.46 533.189 207.447ZM438.069 136.186C440.787 134.913 443.504 133.782 446.222 132.792C440.214 124.309 438.212 113.846 441.645 107.907C458.38 79.2048 505.44 75.9528 507.442 75.8114L509.731 75.67L510.732 77.6495C511.591 79.4876 532.331 121.34 515.453 150.042C513.021 154.284 503.58 159.657 494.426 159.657C493.425 159.657 492.423 159.515 491.565 159.374C491.994 162.06 492.28 164.888 492.566 167.716C492.996 167.857 493.425 167.857 493.854 168.14C505.726 173.372 523.749 164.181 526.18 159.939C546.778 124.592 525.894 71.9938 519.887 58.5616C505.011 60.1169 448.511 68.6004 427.913 103.807C424.194 109.745 427.913 124.733 438.069 136.186ZM294.316 98.2927C294.316 105.362 305.186 116.532 319.776 121.34C321.493 118.936 323.352 116.532 325.069 114.411C315.628 110.028 308.476 101.969 308.476 95.1821C308.476 61.955 347.526 35.939 349.242 34.8078L351.102 33.5353L352.961 34.8078C354.678 35.939 393.727 61.955 393.727 95.1821C393.727 100.555 387.147 111.301 377.707 115.118C379.423 117.239 381.14 119.501 382.713 121.764C383.142 121.622 383.571 121.481 384 121.481C396.874 120.067 407.888 103.241 407.888 98.2927C407.888 57.5719 363.117 22.3654 351.102 13.5991C339.087 22.3654 294.316 57.5719 294.316 98.2927ZM286.162 107.907C286.878 118.37 283.874 132.792 274.719 141.559C285.304 147.638 295.317 155.839 302.183 166.585C302.326 164.747 302.469 162.909 302.612 161.071C304.042 150.042 308.333 139.72 313.769 130.53C301.324 125.723 290.883 116.956 286.162 107.907ZM176.023 159.657C179.599 165.737 194.618 170.12 209.637 167.15C209.923 164.181 210.352 161.353 210.781 158.526C209.78 158.667 208.636 158.667 207.634 158.667C198.337 158.667 189.898 155.415 186.751 150.042C170.015 121.34 190.613 79.4876 191.471 77.6495L192.472 75.67L194.761 75.8114C196.764 75.9528 243.823 79.2048 260.559 107.907C263.276 112.573 262.99 125.157 256.697 133.075C259.271 134.065 261.846 135.196 264.421 136.327C264.707 136.044 264.993 135.761 265.422 135.479C275.864 127.985 276.865 107.907 274.433 103.666C253.836 68.3177 197.336 59.9755 182.46 58.4202C176.309 71.8524 155.425 124.45 176.023 159.657ZM104.647 271.356C110.798 274.891 126.103 271.215 137.546 261.176C136.258 258.489 135.114 255.803 134.113 253.117C128.391 257.076 121.668 259.338 116.09 259.338C113.372 259.338 110.941 258.772 108.938 257.641C79.9013 241.098 76.6115 194.58 76.4684 192.601L76.3254 190.339L78.3279 189.349C80.1874 188.501 122.527 167.999 151.563 184.683C156.284 187.369 162.291 198.398 161.004 208.437C163.722 208.013 166.582 207.73 169.443 207.447C169.586 207.023 169.586 206.599 169.872 206.175C175.165 194.439 165.867 176.624 161.576 174.22C125.817 153.86 72.6064 174.503 59.0178 180.441C60.4482 195.146 69.0304 250.996 104.647 271.356ZM99.3545 403.275C106.506 403.275 117.806 392.529 122.67 378.107C120.238 376.41 117.806 374.572 115.661 372.875C111.227 382.207 103.074 389.277 96.2077 389.277C62.5937 389.277 36.2747 350.677 35.1304 348.98L33.8431 347.142L35.1304 345.304C36.2747 343.607 62.5937 305.007 96.2077 305.007C101.643 305.007 112.514 311.511 116.376 320.843C118.522 319.147 120.81 317.45 123.099 315.895C122.956 315.47 122.813 315.046 122.813 314.622C121.382 301.897 104.361 291.01 99.3545 291.01C58.1595 291.01 22.543 335.265 13.6747 347.142C22.543 359.16 58.1595 403.275 99.3545 403.275ZM169.014 486.978C166.01 486.696 163.15 486.272 160.289 485.847C161.147 496.169 157.714 506.208 151.706 509.601C143.41 514.408 133.97 516.105 124.672 516.105C101.643 516.105 79.7583 505.501 78.471 504.935L76.4684 503.945L76.6115 501.683C76.7545 499.704 80.0444 453.186 109.081 436.643C113.801 433.957 126.532 434.239 134.542 440.461C135.543 437.916 136.688 435.371 137.832 432.825C137.546 432.543 137.26 432.26 136.974 431.836C129.393 421.514 109.081 420.524 104.79 422.928C69.0304 443.288 60.5912 499.138 59.0178 513.843C72.7494 519.781 125.96 540.424 161.576 520.064C167.727 516.671 172.161 501.825 169.014 486.978ZM264.134 558.24C261.417 559.512 258.699 560.644 255.981 561.633C261.989 570.117 263.991 580.58 260.559 586.518C243.823 615.221 196.764 618.473 194.761 618.614L192.472 618.756L191.471 616.776C190.613 614.938 169.872 573.086 186.751 544.383C189.469 539.718 200.626 533.779 210.781 535.052C210.352 532.365 210.066 529.537 209.78 526.71C209.351 526.568 208.922 526.568 208.493 526.285C196.62 521.054 178.598 530.244 176.166 534.486C155.569 569.834 176.452 622.432 182.46 635.864C197.336 634.309 253.836 625.825 274.433 590.619C278.009 584.68 274.29 569.551 264.134 558.24ZM407.888 595.991C407.888 588.922 397.017 577.752 382.427 572.945C380.711 575.348 378.851 577.752 377.135 579.873C386.575 584.256 393.727 592.315 393.727 599.102C393.727 632.329 354.678 658.345 352.961 659.476L351.102 660.749L349.242 659.476C347.526 658.345 308.476 632.329 308.476 599.102C308.476 593.729 315.056 582.983 324.497 579.166C322.78 577.045 321.064 574.783 319.49 572.52C319.061 572.662 318.632 572.803 318.203 572.803C305.329 574.217 294.316 591.043 294.316 595.991C294.316 636.712 339.087 671.919 351.102 680.685C363.26 671.919 407.888 636.854 407.888 595.991ZM416.041 586.377C415.326 575.914 418.33 561.492 427.484 552.726C416.899 546.646 406.887 538.445 400.021 527.699C399.449 540.707 394.728 553.008 388.435 563.754C400.879 568.561 411.464 577.328 416.041 586.377ZM526.18 534.627C522.604 528.548 507.585 524.164 492.566 527.134C492.28 530.103 491.851 532.931 491.422 535.759C501.864 534.91 512.02 538.304 515.453 544.242C532.188 572.945 511.591 614.797 510.732 616.635L509.731 618.614L507.442 618.473C505.44 618.331 458.38 615.079 441.645 586.377C438.927 581.711 439.213 569.127 445.507 561.209C442.932 560.219 440.358 559.088 437.783 557.957C437.497 558.24 437.211 558.523 436.782 558.805C426.34 566.299 425.339 586.377 427.77 590.619C448.368 625.966 504.868 634.309 519.744 635.864C525.894 622.432 546.778 569.975 526.18 534.627ZM597.556 422.928C591.406 419.393 576.101 423.069 564.658 433.108C565.945 435.795 567.089 438.481 568.091 441.168C576.673 435.229 587.258 433.25 593.265 436.643C622.302 453.186 625.592 499.704 625.735 501.683L625.878 503.945L623.875 504.935C622.588 505.501 600.703 516.105 577.674 516.105C568.377 516.105 558.936 514.408 550.64 509.601C545.92 506.915 539.912 495.886 541.199 485.847C538.482 486.272 535.621 486.554 532.76 486.837C532.617 487.261 532.617 487.685 532.331 488.11C527.039 499.845 536.336 517.66 540.627 520.064C576.387 540.424 629.597 519.781 643.186 513.843C641.755 499.28 633.316 443.43 597.556 422.928ZM688.529 347.142C679.66 335.265 644.044 291.01 602.849 291.01C595.697 291.01 584.397 301.755 579.534 316.177C581.965 317.874 584.397 319.712 586.543 321.409C590.977 312.077 599.13 305.007 605.996 305.007C639.61 305.007 665.929 343.607 667.073 345.304L668.36 347.142L667.073 348.98C665.929 350.677 639.61 389.277 605.996 389.277C600.56 389.277 589.689 382.773 585.827 373.441C583.682 375.138 581.393 376.834 579.105 378.39C579.248 378.814 579.391 379.238 579.391 379.662C580.821 392.387 597.843 403.275 602.849 403.275C644.187 403.275 679.66 359.16 688.529 347.142ZM648.621 347.142C648.621 347.142 641.755 340.497 633.459 340.497C625.02 340.497 618.297 347.142 618.297 347.142C618.297 347.142 625.163 353.787 633.459 353.787C641.755 353.787 648.621 347.142 648.621 347.142ZM561.225 396.064C556.934 396.064 553.501 399.457 553.501 403.699C553.501 407.94 556.934 411.334 561.225 411.334C565.516 411.334 568.949 407.94 568.949 403.699C568.949 399.457 565.516 396.064 561.225 396.064ZM677.229 349.97C678.802 349.97 680.089 348.697 680.089 347.142C680.089 345.587 678.802 344.314 677.229 344.314C675.655 344.314 674.368 345.587 674.368 347.142C674.368 348.697 675.655 349.97 677.229 349.97ZM668.36 357.605C666.787 357.605 665.5 358.878 665.5 360.433C665.5 361.988 666.787 363.261 668.36 363.261C669.934 363.261 671.221 361.988 671.221 360.433C671.221 358.878 669.934 357.605 668.36 357.605ZM656.059 369.906C654.486 369.906 653.198 371.179 653.198 372.734C653.198 374.289 654.486 375.562 656.059 375.562C657.633 375.562 658.92 374.289 658.92 372.734C658.92 371.179 657.633 369.906 656.059 369.906ZM641.612 380.369C640.039 380.369 638.751 381.642 638.751 383.197C638.751 384.752 640.039 386.025 641.612 386.025C643.186 386.025 644.473 384.752 644.473 383.197C644.473 381.642 643.186 380.369 641.612 380.369ZM624.448 389.984C622.874 389.984 621.587 391.256 621.587 392.812C621.587 394.367 622.874 395.639 624.448 395.639C626.021 395.639 627.308 394.367 627.308 392.812C627.308 391.256 626.021 389.984 624.448 389.984ZM605.996 394.084C604.422 394.084 603.135 395.357 603.135 396.912C603.135 398.467 604.422 399.74 605.996 399.74C607.569 399.74 608.857 398.467 608.857 396.912C608.713 395.357 607.569 394.084 605.996 394.084ZM665.5 333.993C665.5 335.548 666.787 336.82 668.36 336.82C669.934 336.82 671.221 335.548 671.221 333.993C671.221 332.437 669.934 331.165 668.36 331.165C666.787 331.165 665.5 332.437 665.5 333.993ZM656.059 318.722C654.486 318.722 653.198 319.995 653.198 321.55C653.198 323.105 654.486 324.378 656.059 324.378C657.633 324.378 658.92 323.105 658.92 321.55C658.92 319.995 657.633 318.722 656.059 318.722ZM641.612 308.401C640.039 308.401 638.751 309.673 638.751 311.229C638.751 312.784 640.039 314.056 641.612 314.056C643.186 314.056 644.473 312.784 644.473 311.229C644.473 309.673 643.186 308.401 641.612 308.401ZM624.448 298.645C622.874 298.645 621.587 299.917 621.587 301.473C621.587 303.028 622.874 304.3 624.448 304.3C626.021 304.3 627.308 303.028 627.308 301.473C627.308 299.917 626.021 298.645 624.448 298.645ZM605.996 294.686C604.422 294.686 603.135 295.958 603.135 297.514C603.135 299.069 604.422 300.341 605.996 300.341C607.569 300.341 608.857 299.069 608.857 297.514C608.713 295.958 607.569 294.686 605.996 294.686ZM592.264 492.351C599.559 496.452 608.713 494.189 608.713 494.189C608.713 494.189 606.139 485.14 598.844 481.04C591.549 476.94 582.394 479.202 582.394 479.202C582.394 479.202 584.969 488.251 592.264 492.351ZM500.72 506.632C504.439 508.753 509.159 507.48 511.304 503.804C513.45 500.128 512.163 495.462 508.444 493.341C504.725 491.22 500.004 492.493 497.859 496.169C495.713 499.845 497.001 504.511 500.72 506.632ZM631.027 506.915C630.312 508.187 630.741 510.025 632.029 510.732C633.316 511.439 635.176 511.015 635.891 509.743C636.606 508.47 636.177 506.632 634.889 505.925C633.602 505.077 631.886 505.642 631.027 506.915ZM620.586 512.995C619.298 512.288 617.439 512.712 616.724 513.984C616.008 515.257 616.438 517.095 617.725 517.802C619.012 518.509 620.872 518.085 621.587 516.812C622.445 515.54 622.016 513.701 620.586 512.995ZM603.707 517.66C602.42 516.953 600.56 517.378 599.845 518.65C599.13 519.923 599.559 521.761 600.846 522.468C602.134 523.175 603.993 522.751 604.708 521.478C605.567 520.064 605.138 518.367 603.707 517.66ZM585.97 519.499C584.683 518.792 582.824 519.216 582.108 520.488C581.393 521.761 581.822 523.599 583.11 524.306C584.397 525.013 586.256 524.589 586.972 523.316C587.687 521.902 587.258 520.206 585.97 519.499ZM566.231 519.357C564.944 518.65 563.084 519.074 562.369 520.347C561.654 521.619 562.083 523.458 563.37 524.164C564.658 524.871 566.517 524.447 567.232 523.175C568.091 521.902 567.518 520.206 566.231 519.357ZM548.065 513.701C546.778 512.995 544.918 513.419 544.203 514.691C543.488 515.964 543.917 517.802 545.205 518.509C546.492 519.216 548.351 518.792 549.067 517.519C549.925 516.247 549.496 514.55 548.065 513.701ZM630.169 491.079C629.454 492.351 629.883 494.189 631.17 494.896C632.458 495.603 634.317 495.179 635.032 493.907C635.748 492.634 635.319 490.796 634.031 490.089C632.601 489.241 630.884 489.806 630.169 491.079ZM626.736 478.212C628.024 478.919 629.883 478.495 630.598 477.222C631.313 475.95 630.884 474.112 629.597 473.405C628.31 472.698 626.45 473.122 625.735 474.395C625.02 475.667 625.449 477.364 626.736 478.212ZM619.441 461.952C620.729 462.659 622.588 462.235 623.303 460.962C624.018 459.69 623.589 457.852 622.302 457.145C621.015 456.438 619.155 456.862 618.44 458.135C617.582 459.548 618.154 461.245 619.441 461.952ZM609.572 445.126C610.859 445.833 612.719 445.409 613.434 444.137C614.149 442.864 613.72 441.026 612.432 440.319C611.145 439.612 609.286 440.036 608.57 441.309C607.712 442.723 608.141 444.42 609.572 445.126ZM594.41 428.725C593.694 429.998 594.124 431.836 595.411 432.543C596.698 433.25 598.558 432.825 599.273 431.553C599.988 430.28 599.559 428.442 598.272 427.735C596.984 426.887 595.268 427.311 594.41 428.725ZM499.861 601.789C499.861 601.789 502.293 592.739 498.002 585.529C493.854 578.318 484.699 575.772 484.699 575.772C484.699 575.772 482.268 584.822 486.559 592.033C490.707 599.243 499.861 601.789 499.861 601.789ZM402.738 548.767C399.02 550.888 397.732 555.553 399.878 559.23C402.023 562.906 406.744 564.178 410.463 562.057C414.182 559.937 415.469 555.271 413.323 551.594C411.178 547.918 406.457 546.646 402.738 548.767ZM512.735 623.846C511.447 624.553 510.875 626.391 511.734 627.663C512.449 628.936 514.308 629.501 515.596 628.653C516.883 627.946 517.455 626.108 516.597 624.835C515.882 623.563 514.165 623.139 512.735 623.846ZM496.715 622.997C495.427 623.704 494.855 625.542 495.713 626.815C496.428 628.087 498.288 628.653 499.575 627.805C500.863 627.098 501.435 625.26 500.577 623.987C499.861 622.573 498.145 622.149 496.715 622.997ZM479.836 618.614C478.549 619.321 477.977 621.159 478.835 622.432C479.55 623.704 481.409 624.27 482.697 623.421C483.984 622.714 484.556 620.876 483.698 619.604C482.84 618.331 481.123 617.907 479.836 618.614ZM463.387 611.403C462.099 612.11 461.527 613.948 462.385 615.221C463.101 616.493 464.96 617.059 466.247 616.21C467.535 615.503 468.107 613.665 467.249 612.393C466.534 611.12 464.817 610.555 463.387 611.403ZM446.365 601.647C445.078 602.354 444.506 604.192 445.364 605.465C446.079 606.737 447.939 607.303 449.226 606.454C450.513 605.747 451.085 603.909 450.227 602.637C449.512 601.223 447.796 600.799 446.365 601.647ZM433.635 587.649C432.347 588.356 431.775 590.194 432.633 591.467C433.349 592.739 435.208 593.305 436.496 592.457C437.783 591.75 438.355 589.912 437.497 588.639C436.639 587.367 434.922 586.942 433.635 587.649ZM519.887 609.706C518.599 610.413 518.027 612.251 518.885 613.524C519.601 614.797 521.46 615.362 522.747 614.514C524.035 613.807 524.607 611.969 523.749 610.696C523.034 609.424 521.317 608.858 519.887 609.706ZM524.607 593.022C523.32 593.729 522.747 595.567 523.606 596.84C524.321 598.112 526.18 598.678 527.468 597.83C528.755 597.123 529.327 595.284 528.469 594.012C527.754 592.739 525.894 592.315 524.607 593.022ZM526.466 575.348C525.179 576.055 524.607 577.893 525.465 579.166C526.18 580.438 528.04 581.004 529.327 580.156C530.615 579.449 531.187 577.611 530.328 576.338C529.47 575.065 527.754 574.641 526.466 575.348ZM525.322 559.795C526.037 561.068 527.897 561.633 529.184 560.785C530.472 560.078 531.044 558.24 530.185 556.967C529.47 555.695 527.611 555.129 526.323 555.978C525.036 556.685 524.607 558.381 525.322 559.795ZM524.464 539.011C523.749 537.738 521.889 537.172 520.602 538.021C519.315 538.728 518.742 540.566 519.601 541.838C520.316 543.111 522.175 543.677 523.463 542.828C524.893 542.121 525.322 540.425 524.464 539.011ZM357.824 626.249C357.824 617.907 351.102 611.262 351.102 611.262C351.102 611.262 344.379 618.049 344.379 626.249C344.379 634.591 351.102 641.237 351.102 641.237C351.102 641.237 357.824 634.45 357.824 626.249ZM293.886 562.482C298.178 562.482 301.611 559.088 301.611 554.846C301.611 550.605 298.178 547.211 293.886 547.211C289.595 547.211 286.162 550.605 286.162 554.846C286.162 559.088 289.738 562.482 293.886 562.482ZM351.102 666.687C349.528 666.687 348.241 667.96 348.241 669.515C348.241 671.07 349.528 672.343 351.102 672.343C352.675 672.343 353.962 671.07 353.962 669.515C353.962 667.96 352.675 666.687 351.102 666.687ZM337.799 657.921C336.226 657.921 334.938 659.194 334.938 660.749C334.938 662.304 336.226 663.577 337.799 663.577C339.373 663.577 340.66 662.304 340.66 660.749C340.517 659.194 339.23 657.921 337.799 657.921ZM325.212 645.903C323.638 645.903 322.351 647.175 322.351 648.731C322.351 650.286 323.638 651.558 325.212 651.558C326.785 651.558 328.073 650.286 328.073 648.731C328.073 647.034 326.785 645.903 325.212 645.903ZM314.77 631.481C313.197 631.481 311.909 632.753 311.909 634.309C311.909 635.864 313.197 637.136 314.77 637.136C316.343 637.136 317.631 635.864 317.631 634.309C317.631 632.753 316.343 631.481 314.77 631.481ZM304.9 614.655C303.327 614.655 302.04 615.928 302.04 617.483C302.04 619.038 303.327 620.311 304.9 620.311C306.474 620.311 307.761 619.038 307.761 617.483C307.761 615.928 306.474 614.655 304.9 614.655ZM303.756 599.102C303.756 597.547 302.469 596.274 300.895 596.274C299.322 596.274 298.035 597.547 298.035 599.102C298.035 600.657 299.322 601.93 300.895 601.93C302.469 601.789 303.756 600.657 303.756 599.102ZM364.547 657.921C362.974 657.921 361.687 659.194 361.687 660.749C361.687 662.304 362.974 663.577 364.547 663.577C366.121 663.577 367.408 662.304 367.408 660.749C367.408 659.194 366.121 657.921 364.547 657.921ZM376.992 645.903C375.418 645.903 374.131 647.175 374.131 648.731C374.131 650.286 375.418 651.558 376.992 651.558C378.565 651.558 379.852 650.286 379.852 648.731C379.852 647.034 378.565 645.903 376.992 645.903ZM387.433 631.481C385.86 631.481 384.573 632.753 384.573 634.309C384.573 635.864 385.86 637.136 387.433 637.136C389.007 637.136 390.294 635.864 390.294 634.309C390.294 632.753 389.007 631.481 387.433 631.481ZM397.303 614.655C395.73 614.655 394.442 615.928 394.442 617.483C394.442 619.038 395.73 620.311 397.303 620.311C398.876 620.311 400.164 619.038 400.164 617.483C400.164 615.928 398.876 614.655 397.303 614.655ZM398.59 599.102C398.59 600.657 399.878 601.93 401.451 601.93C403.025 601.93 404.312 600.657 404.312 599.102C404.312 597.547 403.025 596.274 401.451 596.274C399.878 596.274 398.59 597.547 398.59 599.102ZM204.202 585.529C200.053 592.739 202.342 601.789 202.342 601.789C202.342 601.789 211.496 599.243 215.645 592.033C219.793 584.822 217.504 575.772 217.504 575.772C217.504 575.772 208.35 578.318 204.202 585.529ZM200.339 492.21C196.62 490.089 191.9 491.362 189.755 495.038C187.609 498.714 188.896 503.38 192.615 505.501C196.334 507.622 201.055 506.349 203.2 502.673C205.346 498.997 204.058 494.331 200.339 492.21ZM189.469 623.846C188.181 623.139 186.322 623.563 185.607 624.835C184.891 626.108 185.32 627.946 186.608 628.653C187.895 629.36 189.755 628.936 190.47 627.663C191.328 626.391 190.899 624.694 189.469 623.846ZM182.317 609.706C181.029 609 179.17 609.424 178.455 610.696C177.739 611.969 178.169 613.807 179.456 614.514C180.743 615.221 182.603 614.797 183.318 613.524C184.176 612.251 183.747 610.413 182.317 609.706ZM178.741 596.84C179.456 595.567 179.027 593.729 177.739 593.022C176.452 592.315 174.593 592.739 173.877 594.012C173.162 595.284 173.591 597.123 174.879 597.83C176.166 598.678 177.882 598.254 178.741 596.84ZM176.881 579.307C177.596 578.035 177.167 576.197 175.88 575.49C174.593 574.783 172.733 575.207 172.018 576.479C171.303 577.752 171.732 579.59 173.019 580.297C174.307 581.004 176.023 580.58 176.881 579.307ZM173.019 560.785C174.307 561.492 176.166 561.068 176.881 559.795C177.596 558.523 177.167 556.685 175.88 555.978C174.593 555.271 172.733 555.695 172.018 556.967C171.16 558.24 171.732 560.078 173.019 560.785ZM178.741 542.828C180.028 543.535 181.888 543.111 182.603 541.838C183.318 540.566 182.889 538.728 181.601 538.021C180.314 537.314 178.455 537.738 177.739 539.011C176.881 540.425 177.453 542.121 178.741 542.828ZM205.489 622.997C204.202 622.29 202.342 622.714 201.627 623.987C200.912 625.26 201.341 627.098 202.628 627.805C203.915 628.512 205.775 628.087 206.49 626.815C207.348 625.401 206.919 623.704 205.489 622.997ZM222.51 618.614C221.223 617.907 219.364 618.331 218.648 619.604C217.933 620.876 218.362 622.714 219.65 623.421C220.937 624.128 222.796 623.704 223.512 622.432C224.227 621.159 223.798 619.321 222.51 618.614ZM238.817 611.403C237.529 610.696 235.67 611.12 234.955 612.393C234.24 613.665 234.669 615.503 235.956 616.21C237.243 616.917 239.103 616.493 239.818 615.221C240.676 613.807 240.104 612.11 238.817 611.403ZM255.838 601.647C254.551 600.94 252.691 601.364 251.976 602.637C251.261 603.909 251.69 605.747 252.978 606.454C254.265 607.161 256.124 606.737 256.84 605.465C257.698 604.051 257.269 602.354 255.838 601.647ZM265.851 592.598C267.138 593.305 268.998 592.881 269.713 591.608C270.428 590.336 269.999 588.498 268.712 587.791C267.424 587.084 265.565 587.508 264.85 588.78C263.991 590.053 264.421 591.75 265.851 592.598ZM103.36 481.04C96.0647 485.14 93.49 494.189 93.49 494.189C93.49 494.189 102.644 496.593 109.939 492.351C117.234 488.251 119.809 479.202 119.809 479.202C119.809 479.202 110.655 476.798 103.36 481.04ZM144.412 408.647C148.131 406.527 149.418 401.861 147.272 398.184C145.127 394.508 140.406 393.236 136.688 395.357C132.969 397.478 131.681 402.143 133.827 405.82C135.972 409.496 140.693 410.768 144.412 408.647ZM67.314 505.925C66.0266 506.632 65.4545 508.47 66.3127 509.743C67.0279 511.015 68.8874 511.581 70.1748 510.732C71.4621 510.025 72.0342 508.187 71.176 506.915C70.3178 505.642 68.6013 505.077 67.314 505.925ZM68.3153 490.089C67.0279 490.796 66.4558 492.634 67.314 493.907C68.0292 495.179 69.8887 495.745 71.176 494.896C72.4634 494.189 73.0355 492.351 72.1773 491.079C71.3191 489.806 69.6026 489.241 68.3153 490.089ZM76.4684 474.395C75.7532 473.122 73.8937 472.556 72.6064 473.405C71.3191 474.112 70.7469 475.95 71.6051 477.222C72.3203 478.495 74.1798 479.061 75.4672 478.212C76.8975 477.364 77.3267 475.667 76.4684 474.395ZM82.7621 461.952C84.0495 461.245 84.6216 459.407 83.7634 458.135C83.0482 456.862 81.1887 456.296 79.9014 457.145C78.614 457.852 78.0419 459.69 78.9001 460.962C79.7583 462.376 81.4748 462.801 82.7621 461.952ZM92.6317 445.126C93.9191 444.42 94.4912 442.581 93.633 441.309C92.9178 440.036 91.0583 439.471 89.771 440.319C88.4836 441.026 87.9115 442.864 88.7697 444.137C89.6279 445.551 91.3444 445.975 92.6317 445.126ZM106.793 432.543C108.08 431.836 108.652 429.998 107.794 428.725C107.079 427.453 105.219 426.887 103.932 427.735C102.644 428.442 102.072 430.28 102.93 431.553C103.646 432.825 105.362 433.25 106.793 432.543ZM81.6178 512.995C80.3305 513.701 79.7583 515.54 80.6165 516.812C81.3317 518.085 83.1912 518.65 84.4786 517.802C85.7659 517.095 86.3381 515.257 85.4798 513.984C84.7646 512.712 83.0482 512.288 81.6178 512.995ZM98.4963 517.66C97.209 518.367 96.6368 520.206 97.495 521.478C98.2102 522.751 100.07 523.316 101.357 522.468C102.644 521.761 103.217 519.923 102.358 518.65C101.5 517.378 99.9267 516.812 98.4963 517.66ZM116.376 519.499C115.089 520.206 114.517 522.044 115.375 523.316C116.09 524.589 117.95 525.154 119.237 524.306C120.524 523.599 121.096 521.761 120.238 520.488C119.38 519.074 117.663 518.65 116.376 519.499ZM135.972 519.357C134.685 520.064 134.113 521.902 134.971 523.175C135.686 524.447 137.546 525.013 138.833 524.164C140.12 523.458 140.693 521.619 139.834 520.347C139.119 519.074 137.403 518.65 135.972 519.357ZM154.138 513.701C152.851 514.408 152.279 516.247 153.137 517.519C153.852 518.792 155.712 519.357 156.999 518.509C158.286 517.802 158.858 515.964 158 514.691C157.285 513.419 155.569 512.995 154.138 513.701ZM53.5823 347.142C53.5823 347.142 60.4482 353.787 68.7444 353.787C77.1836 353.787 83.9064 347.142 83.9064 347.142C83.9064 347.142 77.0406 340.497 68.7444 340.497C60.4482 340.638 53.5823 347.142 53.5823 347.142ZM140.979 298.221C145.27 298.221 148.703 294.827 148.703 290.585C148.703 286.344 145.27 282.95 140.979 282.95C136.688 282.95 133.255 286.344 133.255 290.585C133.255 294.827 136.688 298.221 140.979 298.221ZM24.9747 344.314C23.4013 344.314 22.1139 345.587 22.1139 347.142C22.1139 348.697 23.4013 349.97 24.9747 349.97C26.5481 349.97 27.8355 348.697 27.8355 347.142C27.8355 345.587 26.5481 344.314 24.9747 344.314ZM33.8431 336.679C35.4165 336.679 36.7038 335.407 36.7038 333.851C36.7038 332.296 35.4165 331.023 33.8431 331.023C32.2696 331.023 30.9823 332.296 30.9823 333.851C30.9823 335.407 32.2696 336.679 33.8431 336.679ZM46.1443 324.378C47.7178 324.378 49.0051 323.105 49.0051 321.55C49.0051 319.995 47.7178 318.722 46.1443 318.722C44.5709 318.722 43.2836 319.995 43.2836 321.55C43.2836 323.105 44.5709 324.378 46.1443 324.378ZM60.5912 314.056C62.1646 314.056 63.452 312.784 63.452 311.229C63.452 309.673 62.1646 308.401 60.5912 308.401C59.0178 308.401 57.7304 309.673 57.7304 311.229C57.8735 312.784 59.0178 314.056 60.5912 314.056ZM77.7558 304.3C79.3292 304.3 80.6165 303.028 80.6165 301.473C80.6165 299.917 79.3292 298.645 77.7558 298.645C76.1824 298.645 74.895 299.917 74.895 301.473C74.895 303.028 76.1824 304.3 77.7558 304.3ZM96.3507 300.341C97.9242 300.341 99.2115 299.069 99.2115 297.514C99.2115 295.958 97.9242 294.686 96.3507 294.686C94.7773 294.686 93.49 295.958 93.49 297.514C93.49 299.069 94.7773 300.341 96.3507 300.341ZM33.8431 357.605C32.2696 357.605 30.9823 358.878 30.9823 360.433C30.9823 361.988 32.2696 363.261 33.8431 363.261C35.4165 363.261 36.7038 361.988 36.7038 360.433C36.7038 358.878 35.4165 357.605 33.8431 357.605ZM46.1443 369.906C44.5709 369.906 43.2836 371.179 43.2836 372.734C43.2836 374.289 44.5709 375.562 46.1443 375.562C47.7178 375.562 49.0051 374.289 49.0051 372.734C49.0051 371.179 47.7178 369.906 46.1443 369.906ZM60.5912 380.369C59.0178 380.369 57.7304 381.642 57.7304 383.197C57.7304 384.752 59.0178 386.025 60.5912 386.025C62.1646 386.025 63.452 384.752 63.452 383.197C63.452 381.642 62.1646 380.369 60.5912 380.369ZM77.7558 389.984C76.1824 389.984 74.895 391.256 74.895 392.812C74.895 394.367 76.1824 395.639 77.7558 395.639C79.3292 395.639 80.6165 394.367 80.6165 392.812C80.6165 391.256 79.3292 389.984 77.7558 389.984ZM96.3507 394.084C94.7773 394.084 93.49 395.357 93.49 396.912C93.49 398.467 94.7773 399.74 96.3507 399.74C97.9242 399.74 99.2115 398.467 99.2115 396.912C99.2115 395.357 97.9242 394.084 96.3507 394.084ZM109.939 201.933C102.644 197.832 93.49 200.095 93.49 200.095C93.49 200.095 96.0647 209.144 103.36 213.244C110.655 217.344 119.809 215.082 119.809 215.082C119.809 215.082 117.234 206.033 109.939 201.933ZM201.627 187.794C197.908 185.673 193.188 186.945 191.042 190.621C188.896 194.298 190.184 198.964 193.903 201.084C197.622 203.205 202.342 201.933 204.488 198.257C206.49 194.58 205.346 189.915 201.627 187.794ZM71.176 187.369C71.8912 186.097 71.4621 184.259 70.1748 183.552C68.8874 182.845 67.0279 183.269 66.3127 184.542C65.5975 185.814 66.0266 187.652 67.314 188.359C68.6013 189.208 70.3178 188.783 71.176 187.369ZM81.6178 181.29C82.9051 181.997 84.7646 181.572 85.4798 180.3C86.195 179.027 85.7659 177.189 84.4786 176.482C83.1912 175.775 81.3317 176.2 80.6165 177.472C79.9014 178.886 80.3305 180.583 81.6178 181.29ZM98.4963 176.765C99.7837 177.472 101.643 177.048 102.358 175.775C103.074 174.503 102.644 172.665 101.357 171.958C100.07 171.251 98.2102 171.675 97.495 172.948C96.6368 174.22 97.209 175.917 98.4963 176.765ZM116.376 174.927C117.663 175.634 119.523 175.21 120.238 173.937C120.953 172.665 120.524 170.827 119.237 170.12C117.95 169.413 116.09 169.837 115.375 171.109C114.517 172.382 114.946 174.079 116.376 174.927ZM135.972 174.927C137.26 175.634 139.119 175.21 139.834 173.937C140.55 172.665 140.12 170.827 138.833 170.12C137.546 169.413 135.686 169.837 134.971 171.109C134.256 172.523 134.685 174.22 135.972 174.927ZM154.138 180.583C155.426 181.29 157.285 180.865 158 179.593C158.715 178.32 158.286 176.482 156.999 175.775C155.712 175.068 153.852 175.493 153.137 176.765C152.279 178.179 152.851 179.876 154.138 180.583ZM72.1773 203.205C72.8925 201.933 72.4634 200.095 71.176 199.388C69.8887 198.681 68.0292 199.105 67.314 200.377C66.5988 201.65 67.0279 203.488 68.3153 204.195C69.6026 205.043 71.3191 204.619 72.1773 203.205ZM75.4672 216.072C74.1798 215.365 72.3203 215.789 71.6051 217.062C70.8899 218.334 71.3191 220.172 72.6064 220.879C73.8937 221.586 75.7532 221.162 76.4684 219.89C77.3267 218.617 76.8975 216.92 75.4672 216.072ZM82.7621 232.332C81.4748 231.625 79.6153 232.049 78.9001 233.322C78.1849 234.594 78.614 236.432 79.9014 237.139C81.1887 237.846 83.0482 237.422 83.7634 236.15C84.6216 234.736 84.1925 233.039 82.7621 232.332ZM92.6317 249.158C91.3444 248.451 89.4849 248.875 88.7697 250.147C88.0545 251.42 88.4836 253.258 89.771 253.965C91.0583 254.672 92.9178 254.248 93.633 252.975C94.4912 251.703 94.0621 249.865 92.6317 249.158ZM107.794 265.7C108.509 264.428 108.08 262.59 106.793 261.883C105.505 261.176 103.646 261.6 102.93 262.873C102.215 264.145 102.644 265.983 103.932 266.69C105.219 267.397 106.936 266.973 107.794 265.7ZM202.342 92.4956C202.342 92.4956 199.91 101.545 204.202 108.756C208.35 115.967 217.504 118.512 217.504 118.512C217.504 118.512 219.936 109.463 215.645 102.252C211.496 95.0407 202.342 92.4956 202.342 92.4956ZM299.465 145.659C303.184 143.538 304.471 138.872 302.326 135.196C300.18 131.52 295.46 130.247 291.741 132.368C288.022 134.489 286.735 139.155 288.88 142.831C291.026 146.507 295.746 147.78 299.465 145.659ZM189.469 70.4385C190.756 69.7316 191.328 67.8935 190.47 66.6209C189.755 65.3484 187.895 64.7829 186.608 65.6312C185.32 66.3382 184.748 68.1763 185.607 69.4488C186.465 70.7213 188.181 71.1455 189.469 70.4385ZM205.489 71.4283C206.776 70.7213 207.348 68.8832 206.49 67.6107C205.775 66.3382 203.915 65.7726 202.628 66.6209C201.341 67.3279 200.769 69.166 201.627 70.4385C202.485 71.7111 204.202 72.1352 205.489 71.4283ZM222.51 75.67C223.798 74.9631 224.37 73.125 223.512 71.8524C222.796 70.5799 220.937 70.0144 219.65 70.8627C218.362 71.5697 217.79 73.4078 218.648 74.6803C219.364 76.0942 221.08 76.5184 222.51 75.67ZM238.817 82.881C240.104 82.174 240.676 80.3359 239.818 79.0634C239.103 77.7909 237.243 77.2253 235.956 78.0737C234.669 78.922 234.096 80.6187 234.955 81.8913C235.67 83.3052 237.386 83.7293 238.817 82.881ZM255.838 92.7784C257.126 92.0715 257.698 90.2334 256.84 88.9608C256.124 87.6883 254.265 87.1227 252.978 87.9711C251.69 88.6781 251.118 90.5162 251.976 91.7887C252.691 93.0612 254.551 93.4854 255.838 92.7784ZM268.712 106.635C269.999 105.928 270.571 104.09 269.713 102.817C268.998 101.545 267.138 100.979 265.851 101.827C264.564 102.534 263.991 104.373 264.85 105.645C265.565 106.918 267.281 107.342 268.712 106.635ZM182.317 84.5777C183.604 83.8707 184.176 82.0326 183.318 80.7601C182.603 79.4876 180.743 78.922 179.456 79.7704C178.169 80.6187 177.596 82.3154 178.455 83.588C179.17 85.0019 181.029 85.426 182.317 84.5777ZM177.596 101.262C178.884 100.555 179.456 98.7169 178.598 97.4443C177.882 96.1718 176.023 95.6062 174.736 96.4546C173.448 97.1616 172.876 98.9996 173.734 100.272C174.593 101.545 176.309 102.11 177.596 101.262ZM175.737 118.936C177.024 118.229 177.596 116.391 176.738 115.118C176.023 113.846 174.163 113.28 172.876 114.129C171.589 114.836 171.017 116.674 171.875 117.946C172.733 119.219 174.45 119.643 175.737 118.936ZM176.881 134.489C176.166 133.216 174.307 132.651 173.019 133.499C171.732 134.206 171.16 136.044 172.018 137.317C172.733 138.589 174.593 139.155 175.88 138.307C177.167 137.458 177.739 135.903 176.881 134.489ZM177.739 155.274C178.455 156.546 180.314 157.112 181.601 156.263C182.889 155.556 183.461 153.718 182.603 152.446C181.888 151.173 180.028 150.608 178.741 151.456C177.453 152.163 176.881 153.86 177.739 155.274ZM344.522 68.1763C344.522 76.5184 351.245 83.1638 351.245 83.1638C351.245 83.1638 357.968 76.377 357.968 68.1763C357.968 59.8342 351.245 53.1887 351.245 53.1887C351.245 53.1887 344.522 59.8342 344.522 68.1763ZM408.317 131.803C404.026 131.803 400.593 135.196 400.593 139.438C400.593 143.679 404.026 147.073 408.317 147.073C412.608 147.073 416.041 143.679 416.041 139.438C416.041 135.196 412.608 131.803 408.317 131.803ZM351.102 27.5968C352.675 27.5968 353.962 26.3243 353.962 24.769C353.962 23.2137 352.675 21.9412 351.102 21.9412C349.528 21.9412 348.241 23.2137 348.241 24.769C348.241 26.3243 349.528 27.5968 351.102 27.5968ZM364.547 36.3631C366.121 36.3631 367.408 35.0906 367.408 33.5353C367.408 31.98 366.121 30.7075 364.547 30.7075C362.974 30.7075 361.687 31.98 361.687 33.5353C361.687 35.0906 362.974 36.3631 364.547 36.3631ZM376.992 48.5228C378.565 48.5228 379.852 47.2503 379.852 45.695C379.852 44.1397 378.565 42.8671 376.992 42.8671C375.418 42.8671 374.131 44.1397 374.131 45.695C374.131 47.2503 375.418 48.5228 376.992 48.5228ZM387.433 62.8034C389.007 62.8034 390.294 61.5309 390.294 59.9755C390.294 58.4202 389.007 57.1477 387.433 57.1477C385.86 57.1477 384.573 58.4202 384.573 59.9755C384.716 61.5309 386.003 62.8034 387.433 62.8034ZM397.303 79.7704C398.876 79.7704 400.164 78.4979 400.164 76.9426C400.164 75.3872 398.876 74.1147 397.303 74.1147C395.73 74.1147 394.442 75.3872 394.442 76.9426C394.442 78.4979 395.73 79.7704 397.303 79.7704ZM398.59 95.3235C398.59 96.8788 399.878 98.1513 401.451 98.1513C403.025 98.1513 404.312 96.8788 404.312 95.3235C404.312 93.7682 403.025 92.4956 401.451 92.4956C399.878 92.4956 398.59 93.7682 398.59 95.3235ZM337.799 36.3631C339.373 36.3631 340.66 35.0906 340.66 33.5353C340.66 31.98 339.373 30.7075 337.799 30.7075C336.226 30.7075 334.938 31.98 334.938 33.5353C334.938 35.0906 336.226 36.3631 337.799 36.3631ZM325.212 48.5228C326.785 48.5228 328.073 47.2503 328.073 45.695C328.073 44.1397 326.785 42.8671 325.212 42.8671C323.638 42.8671 322.351 44.1397 322.351 45.695C322.351 47.2503 323.638 48.5228 325.212 48.5228ZM314.77 62.8034C316.343 62.8034 317.631 61.5309 317.631 59.9755C317.631 58.4202 316.343 57.1477 314.77 57.1477C313.197 57.1477 311.909 58.4202 311.909 59.9755C311.909 61.5309 313.197 62.8034 314.77 62.8034ZM304.9 79.7704C306.474 79.7704 307.761 78.4979 307.761 76.9426C307.761 75.3872 306.474 74.1147 304.9 74.1147C303.327 74.1147 302.04 75.3872 302.04 76.9426C302.04 78.4979 303.327 79.7704 304.9 79.7704ZM303.756 95.3235C303.756 93.7682 302.469 92.4956 300.895 92.4956C299.322 92.4956 298.035 93.7682 298.035 95.3235C298.035 96.8788 299.322 98.1513 300.895 98.1513C302.469 98.1513 303.756 96.8788 303.756 95.3235ZM418.759 347.142C418.759 384.045 388.435 414.02 351.102 414.02C313.769 414.02 283.445 384.045 283.445 347.142C283.445 310.239 313.769 280.264 351.102 280.264C388.435 280.264 418.759 310.239 418.759 347.142ZM409.747 347.142C409.747 315.188 383.428 289.171 351.102 289.171C318.775 289.171 292.456 315.188 292.456 347.142C292.456 379.097 318.775 405.113 351.102 405.113C383.428 405.113 409.747 379.097 409.747 347.142Z" fill="white" fill-opacity="0.7"/>
</svg>
