<svg width="19" height="16" viewBox="0 0 19 16" fill="none" xmlns="http://www.w3.org/2000/svg">
<path d="M18.6724 5.66154C18.43 5.35743 18.0663 5.18297 17.6746 5.18297H14.1393L12.2222 0.79331C12.1034 0.521145 11.7864 0.396769 11.5142 0.515696C11.242 0.63455 11.1177 0.951603 11.2365 1.2238L12.9656 5.183H6.56723L8.29627 1.2238C8.41512 0.951603 8.29085 0.634586 8.01865 0.515696C7.74649 0.396769 7.42943 0.521074 7.31058 0.79331L5.39353 5.183H1.85822C1.46648 5.183 1.10282 5.35743 0.860416 5.66158C0.622456 5.96017 0.53465 6.34401 0.619516 6.71481L2.50746 14.9611C2.63929 15.5369 3.14866 15.9391 3.74616 15.9391H15.7866C16.3841 15.9391 16.8935 15.5369 17.0254 14.9611L18.9133 6.71478C18.9982 6.34398 18.9104 5.96013 18.6724 5.66154ZM15.7866 14.8634H3.74616C3.65484 14.8634 3.57485 14.8036 3.55596 14.721L1.66802 6.47477C1.65321 6.41006 1.67806 6.36137 1.70158 6.33193C1.72338 6.30454 1.77275 6.25861 1.85822 6.25861H4.92381L4.78294 6.58119C4.66408 6.85339 4.78835 7.1704 5.06055 7.28929C5.12831 7.31902 5.2015 7.33438 5.2755 7.3344C5.4828 7.3344 5.68035 7.21382 5.76863 7.01172L6.09751 6.25868H13.4354L13.7643 7.01172C13.8525 7.21386 14.0501 7.3344 14.2574 7.3344C14.3292 7.3344 14.4023 7.31991 14.4723 7.28929C14.7445 7.17044 14.8688 6.85339 14.7499 6.58119L14.6091 6.25861H17.6747C17.7601 6.25861 17.8095 6.30454 17.8313 6.33193C17.8548 6.3614 17.8797 6.41009 17.8649 6.47474L15.9769 14.7211C15.958 14.8036 15.878 14.8634 15.7866 14.8634Z" fill="white"/>
<path d="M6.53976 8.58899C6.24275 8.58899 6.00195 8.82978 6.00195 9.12679V13.0707C6.00195 13.3677 6.24275 13.6085 6.53976 13.6085C6.83677 13.6085 7.07756 13.3677 7.07756 13.0707V9.12679C7.07756 8.82978 6.8368 8.58899 6.53976 8.58899ZM9.76658 8.58899C9.46957 8.58899 9.22877 8.82978 9.22877 9.12679V13.0707C9.22877 13.3677 9.46957 13.6085 9.76658 13.6085C10.0636 13.6085 10.3044 13.3677 10.3044 13.0707V9.12679C10.3044 8.82978 10.0636 8.58899 9.76658 8.58899ZM12.9934 8.58899C12.6964 8.58899 12.4556 8.82978 12.4556 9.12679V13.0707C12.4556 13.3677 12.6964 13.6085 12.9934 13.6085C13.2904 13.6085 13.5312 13.3677 13.5312 13.0707V9.12679C13.5312 8.82978 13.2904 8.58899 12.9934 8.58899Z" fill="white"/>
</svg>
