<svg width="14" height="14" viewBox="0 0 14 14" fill="none" xmlns="http://www.w3.org/2000/svg">
<path d="M13.1946 5.89803L13.1937 5.8971L7.66219 0.365834C7.42639 0.129908 7.11292 0 6.7795 0C6.44606 0 6.13259 0.129828 5.89671 0.365728L0.368093 5.89419C0.366239 5.89604 0.364385 5.898 0.362531 5.89988C-0.121663 6.38683 -0.120816 7.17693 0.364915 7.66266C0.586805 7.88468 0.879912 8.01326 1.19328 8.02672C1.20599 8.02796 1.21884 8.02857 1.23176 8.02857H1.45222V12.0993C1.45222 12.9048 2.10761 13.5602 2.91333 13.5602H5.07741C5.29675 13.5602 5.47468 13.3824 5.47468 13.1629V9.97152C5.47468 9.60394 5.77369 9.30495 6.14127 9.30495H7.41771C7.78532 9.30495 8.08428 9.60397 8.08428 9.97152V13.1629C8.08428 13.3824 8.26212 13.5602 8.48155 13.5602H10.6456C11.4514 13.5602 12.1068 12.9048 12.1068 12.0993V8.0286H12.3112C12.6445 8.0286 12.958 7.89877 13.194 7.6629C13.6802 7.17634 13.6804 6.3849 13.1946 5.89803Z" fill="white"/>
</svg>
