<svg width="34" height="38" viewBox="0 0 34 38" fill="none" xmlns="http://www.w3.org/2000/svg">
<path d="M15.8137 11.6839C14.5558 11.8359 13.3701 12.3534 12.4032 13.1721C11.4363 13.9909 10.7305 15.0751 10.3733 16.2907C10.016 17.5063 10.0228 18.8 10.3929 20.0117C10.763 21.2235 11.4801 22.3002 12.4556 23.1087C12.6386 23.2678 12.7842 23.4653 12.8821 23.6871C12.9799 23.9089 13.0277 24.1495 13.0218 24.3919V26.9626C13.0228 27.7749 13.3459 28.5536 13.9203 29.128C14.4947 29.7024 15.2735 30.0255 16.0858 30.0265H17.005C17.8173 30.0255 18.596 29.7024 19.1704 29.128C19.7448 28.5536 20.0679 27.7749 20.0689 26.9626V24.3919C20.0672 24.1425 20.1201 23.8957 20.224 23.669C20.3278 23.4422 20.4801 23.2409 20.6701 23.0793C21.3808 22.4806 21.9548 21.7362 22.3532 20.8966C22.7516 20.0569 22.9651 19.1416 22.9792 18.2123C22.9934 17.283 22.8079 16.3616 22.4354 15.5102C22.0628 14.6588 21.5118 13.8973 20.8196 13.2771C20.1468 12.6701 19.352 12.214 18.4886 11.9392C17.6251 11.6644 16.7135 11.5774 15.8137 11.6839ZM14.2474 26.3498H18.8433V26.9626H14.2474V26.3498ZM17.005 28.8009H16.0858C15.8287 28.8002 15.5746 28.7453 15.3402 28.6397C15.1058 28.5341 14.8963 28.3802 14.7254 28.1881H18.3654C18.1945 28.3802 17.985 28.5341 17.7505 28.6397C17.5161 28.7453 17.2621 28.8002 17.005 28.8009ZM20.0027 14.1908C20.5639 14.6939 21.0106 15.3116 21.3126 16.0022C21.6146 16.6927 21.7649 17.44 21.7534 18.1936C21.7419 18.9472 21.5689 19.6896 21.2459 20.3706C20.923 21.0516 20.4577 21.6553 19.8814 22.1411C19.5544 22.4177 19.292 22.7625 19.1127 23.1514C18.9333 23.5402 18.8414 23.9637 18.8433 24.3919V25.1242H17.1582V22.673C17.1581 22.5812 17.1375 22.4906 17.0977 22.4079C17.0579 22.3251 17.0001 22.2524 16.9284 22.1951L14.2719 20.0687C14.2163 20.0245 14.1714 19.9683 14.1406 19.9043C14.1099 19.8403 14.094 19.7702 14.0942 19.6992V19.4681C14.0944 19.3429 14.1442 19.2228 14.2328 19.1342C14.3213 19.0457 14.4414 18.9958 14.5667 18.9957H14.7382C14.8162 18.9955 14.893 19.0147 14.9618 19.0515C15.0306 19.0883 15.0891 19.1415 15.1323 19.2065C15.2873 19.4392 15.4974 19.63 15.7439 19.7619C15.9905 19.8939 16.2657 19.963 16.5454 19.963C16.825 19.963 17.1003 19.8939 17.3468 19.7619C17.5933 19.63 17.8034 19.4392 17.9585 19.2065C18.0015 19.1416 18.06 19.0884 18.1287 19.0516C18.1973 19.0148 18.274 18.9956 18.3519 18.9957H18.5235C18.6488 18.9957 18.769 19.0454 18.8577 19.134C18.9465 19.2226 18.9964 19.3428 18.9965 19.4681V19.7715C18.9967 19.8336 18.9846 19.8952 18.9608 19.9526C18.937 20.0101 18.9021 20.0622 18.858 20.1061L17.3377 21.6264L18.2042 22.4929L19.7251 20.9725C19.8832 20.8151 20.0085 20.6279 20.0938 20.4217C20.179 20.2156 20.2227 19.9946 20.2221 19.7715V19.4681C20.2215 19.018 20.0423 18.5866 19.724 18.2684C19.4057 17.9502 18.9742 17.7712 18.5241 17.7707H18.3525C18.0728 17.7704 17.7973 17.8392 17.5506 17.9712C17.3039 18.1031 17.0938 18.294 16.9388 18.5269C16.8958 18.5919 16.8373 18.6452 16.7687 18.682C16.7 18.7189 16.6233 18.7382 16.5454 18.7382C16.4674 18.7382 16.3907 18.7189 16.3221 18.682C16.2534 18.6452 16.195 18.5919 16.152 18.5269C15.997 18.2941 15.7869 18.1033 15.5404 17.9714C15.2938 17.8394 15.0185 17.7705 14.7389 17.7707H14.5673C14.117 17.771 13.6852 17.95 13.3667 18.2684C13.0483 18.5867 12.8691 19.0184 12.8686 19.4688V19.6998C12.8679 19.9547 12.9248 20.2064 13.0352 20.4362C13.1456 20.6659 13.3065 20.8677 13.5059 21.0265L15.9326 22.9672V25.1242H14.2474V24.3919C14.2537 23.9693 14.1664 23.5505 13.992 23.1655C13.8175 22.7806 13.5601 22.4389 13.2381 22.165C12.4477 21.5101 11.8664 20.6381 11.5659 19.6566C11.2654 18.6751 11.2589 17.6271 11.5471 16.642C11.8354 15.6568 12.4058 14.7776 13.1879 14.1129C13.9701 13.4482 14.9298 13.0271 15.9485 12.9015C16.6771 12.8152 17.4158 12.8856 18.115 13.108C18.8142 13.3303 19.4578 13.6995 20.0027 14.1908ZM15.9326 9.19165H17.1582V11.03H15.9326V9.19165ZM23.8988 17.1579H25.7372V18.3835H23.8988V17.1579ZM7.35352 17.1579H9.19189V18.3835H7.35352V17.1579ZM9.17657 12.4964L10.0431 11.6299L11.3422 12.9297L10.4763 13.7962L9.17657 12.4964ZM21.7406 12.9315L23.0403 11.6318L23.9074 12.4983L22.6071 13.7974L21.7406 12.9315Z" fill="white"/>
<path d="M16.1359 0.156775L13.4335 2.58159C11.4707 4.33343 9.21354 5.72443 6.76635 6.69034L0.385979 9.23526C0.260669 9.28519 0.155334 9.37506 0.086309 9.49096C0.0172839 9.60685 -0.0115738 9.74228 0.00421097 9.87624L0.601681 14.9747C1.69122 24.2572 7.27129 32.5458 15.9116 37.7153L16.2303 37.9053C16.3254 37.9623 16.4343 37.9924 16.5453 37.9924C16.6562 37.9924 16.7651 37.9623 16.8602 37.9053L17.1789 37.7153C25.8192 32.5458 31.3993 24.2572 32.4888 14.9747L33.0863 9.87624C33.1021 9.74228 33.0732 9.60685 33.0042 9.49096C32.9352 9.37506 32.8298 9.28519 32.7045 9.23526L26.3242 6.69034C23.877 5.72443 21.6198 4.33343 19.657 2.58159L16.9546 0.156775C16.8421 0.0558335 16.6964 0 16.5453 0C16.3941 0 16.2484 0.0558335 16.1359 0.156775ZM25.8707 7.82891L31.8148 10.1998L31.2712 14.8319C30.227 23.7333 24.8614 31.691 16.5495 36.6631L16.5453 36.665L16.541 36.6631C8.22969 31.691 2.86349 23.7333 1.81991 14.8319L1.27636 10.1998L7.22043 7.82829C9.80201 6.80959 12.183 5.34222 14.2534 3.49403L16.5453 1.43628L18.8377 3.4928C20.908 5.34143 23.289 6.80922 25.8707 7.82829V7.82891Z" fill="white"/>
</svg>
