<svg width="58" height="72" viewBox="0 0 58 72" fill="none" xmlns="http://www.w3.org/2000/svg">
<path d="M6.97821 26.3699H13.595C14.1371 26.3699 14.5681 25.9389 14.5681 25.3968V18.78C14.5681 18.2379 14.1371 17.807 13.595 17.807H6.97821C6.43608 17.807 6.00515 18.2379 6.00515 18.78V25.3968C6.00515 25.9389 6.44998 26.3699 6.97821 26.3699ZM7.95127 19.7531H12.6219V24.4237H7.95127V19.7531ZM14.5681 35.5583V28.9415C14.5681 28.3994 14.1371 27.9685 13.595 27.9685H6.97821C6.43608 27.9685 6.00515 28.3994 6.00515 28.9415V35.5583C6.00515 36.1004 6.43608 36.5314 6.97821 36.5314H13.595C14.1371 36.5314 14.5681 36.1004 14.5681 35.5583ZM12.6219 34.5852H7.95127V29.9146H12.6219V34.5852ZM16.4586 23.8677C16.4586 23.3256 16.8895 22.8947 17.4316 22.8947H30.7069C31.249 22.8947 31.68 23.3256 31.68 23.8677C31.68 24.4098 31.249 24.8408 30.7069 24.8408H17.4316C16.8895 24.8408 16.4586 24.3959 16.4586 23.8677ZM16.4586 30.3872C16.4586 29.8451 16.8895 29.4141 17.4316 29.4141H36.4202C36.9623 29.4141 37.3932 29.8451 37.3932 30.3872C37.3932 30.9293 36.9623 31.3603 36.4202 31.3603H17.4316C16.8895 31.3603 16.4586 30.9154 16.4586 30.3872ZM16.4586 20.2118C16.4586 19.6697 16.8895 19.2387 17.4316 19.2387H36.4202C36.9623 19.2387 37.3932 19.6697 37.3932 20.2118C37.3932 20.7539 36.9623 21.1849 36.4202 21.1849H17.4316C16.8895 21.1849 16.4586 20.7539 16.4586 20.2118ZM16.4586 34.0292C16.4586 33.4871 16.8895 33.0562 17.4316 33.0562H30.7069C31.249 33.0562 31.68 33.4871 31.68 34.0292C31.68 34.5713 31.249 35.0023 30.7069 35.0023H17.4316C16.8895 35.0023 16.4586 34.5574 16.4586 34.0292ZM57.2714 47.2072L46.4565 36.3924C45.5252 35.461 43.9961 35.461 43.0647 36.3924L41.8276 37.6295V7.78446C41.8276 7.24233 41.3966 6.8114 40.8545 6.8114H31.9997V5.1016C31.9997 4.55947 31.5688 4.12854 31.0266 4.12854H27.8572C26.9676 1.7237 24.1457 0 20.9068 0C17.6679 0 14.8461 1.7237 13.9564 4.12854H10.787C10.2449 4.12854 9.81398 4.55947 9.81398 5.1016V6.8114H0.973057C0.430925 6.8114 0 7.24233 0 7.78446V56.4234C0 56.9656 0.430925 57.3965 0.973057 57.3965H19.5168L19.0858 57.8274C18.5993 58.3139 18.3352 58.9534 18.3352 59.6484C18.3352 60.3435 18.5993 60.9968 19.0858 61.4833L19.7531 62.1506C20.184 62.5815 20.7261 62.8178 21.2961 62.8873C21.3656 63.4712 21.6158 64.0133 22.0328 64.4303L22.7 65.0975C23.131 65.5285 23.6731 65.7648 24.243 65.8343C24.3125 66.4181 24.5627 66.9603 24.9798 67.3773L25.647 68.0445C26.1474 68.545 26.8147 68.7952 27.468 68.7952C27.7321 68.7952 27.9824 68.7535 28.2326 68.684C28.3577 68.9759 28.5384 69.24 28.7608 69.4763L29.428 70.1296C29.9146 70.6162 30.5679 70.8803 31.249 70.8803C31.6939 70.8803 32.1248 70.7691 32.514 70.5467C32.9866 70.9637 33.5844 71.2 34.2238 71.2C34.9189 71.2 35.5583 70.9359 36.0448 70.4494L36.7121 69.7821C36.9484 69.5458 37.1152 69.2817 37.2542 69.0037C37.5044 69.0871 37.7685 69.1288 38.0187 69.1288C38.686 69.1288 39.3393 68.8786 39.8537 68.3781L40.507 67.7109C40.924 67.2939 41.1881 66.7517 41.2437 66.1679C41.8137 66.0984 42.3558 65.8621 42.7867 65.4312L43.4401 64.7639C43.8571 64.3469 44.1212 63.8048 44.1768 63.2209C44.7467 63.1514 45.2889 62.9151 45.7198 62.4842L46.3731 61.817C46.8597 61.3304 47.1377 60.6771 47.1377 59.982C47.1377 59.3843 46.9292 58.8283 46.5677 58.3696L49.612 54.102L50.3766 53.3375L50.7658 53.7267C51.2245 54.1854 51.8223 54.4217 52.4617 54.4217C53.1011 54.4217 53.7128 54.1715 54.1576 53.7267L57.2575 50.6268C58.2027 49.6676 58.2027 48.1525 57.2714 47.2072ZM11.774 6.07466H14.7071C15.1797 6.07466 15.5828 5.74104 15.6662 5.26841C15.9998 3.3779 18.2518 1.94612 20.9068 1.94612C23.5758 1.94612 25.8277 3.364 26.1474 5.25451C26.2309 5.72714 26.634 6.06076 27.1066 6.06076H30.0397V10.2449H11.774V6.07466ZM1.94611 8.75752H9.82788V11.2319C9.82788 11.774 10.2588 12.2049 10.8009 12.2049H31.0266C31.5688 12.2049 31.9997 11.774 31.9997 11.2319V8.75752H39.8815V39.5895C39.0335 40.5348 39.0613 41.9944 39.9649 42.8979L40.0761 43.0091L39.52 43.5513L35.3915 43.6486H35.322C34.0987 43.7598 32.9032 44.0934 32.1526 44.5104L27.9685 43.6208L27.3429 42.9952L27.4541 42.884C28.3855 41.9527 28.3855 40.4236 27.4541 39.4922L24.3542 36.3924C23.4229 35.461 21.8938 35.461 20.9624 36.3924L10.1476 47.2072C9.68887 47.6659 9.45256 48.2637 9.45256 48.9031C9.45256 49.5425 9.70277 50.1542 10.1476 50.599L13.2475 53.6989C13.7062 54.1576 14.3039 54.3939 14.9434 54.3939C15.5828 54.3939 16.1945 54.1437 16.6393 53.6989L17.0285 53.3097L17.7792 54.0603L18.6688 55.4226H1.94611V8.75752ZM15.2492 52.3366C15.138 52.4478 14.999 52.4617 14.9295 52.4617C14.86 52.4617 14.721 52.4478 14.6098 52.3366L11.5099 49.2367C11.3987 49.1255 11.3848 48.9865 11.3848 48.917C11.3848 48.8475 11.3987 48.7085 11.5099 48.5973L22.3247 37.7824C22.4081 37.699 22.5332 37.6434 22.6444 37.6434C22.7556 37.6434 22.8808 37.6851 22.9642 37.7824L26.064 40.8684C26.2447 41.0491 26.2447 41.341 26.064 41.5079L15.2492 52.3366ZM20.4481 60.0933C20.323 59.9681 20.2674 59.8152 20.2674 59.6484C20.2674 59.4816 20.3369 59.3148 20.4481 59.2036L23.2978 56.3539C23.4229 56.2288 23.5758 56.1732 23.7426 56.1732C23.9094 56.1732 24.0762 56.2427 24.1874 56.3539L24.8547 57.0212C25.1049 57.2714 25.1049 57.6745 24.8547 57.9247L22.0189 60.7466C21.7687 60.9968 21.3656 60.9968 21.1153 60.7466L20.4481 60.0933ZM23.3951 63.0263C23.27 62.9012 23.2144 62.7483 23.2144 62.5815C23.2144 62.4147 23.2839 62.2479 23.3951 62.1367L26.2448 59.287C26.3699 59.1619 26.5228 59.1063 26.6896 59.1063C26.8564 59.1063 27.0232 59.1758 27.1344 59.287L27.8016 59.9542C28.0519 60.2045 28.0519 60.6076 27.8016 60.8578L24.952 63.6936C24.7018 63.9438 24.2986 63.9438 24.0484 63.6936L23.3951 63.0263ZM26.9954 66.6405L26.3282 65.9733C26.203 65.8482 26.1474 65.6953 26.1474 65.5285C26.1474 65.3617 26.2169 65.1949 26.3282 65.0836L29.1778 62.234C29.3029 62.1089 29.4558 62.0533 29.6227 62.0533C29.7895 62.0533 29.9563 62.1228 30.0675 62.234L30.7347 62.8873C30.9849 63.1375 30.9849 63.5407 30.7347 63.7909L28.733 65.7787L28.6913 65.8204L27.885 66.6266C27.6487 66.8769 27.2317 66.8769 26.9954 66.6405ZM31.2351 68.9064C31.0683 68.9064 30.9015 68.8369 30.7764 68.7257L30.1092 68.0723C29.8729 67.836 29.8729 67.4329 30.0953 67.1966L32.1109 65.181C32.236 65.0558 32.3889 65.0002 32.5557 65.0002C32.7225 65.0002 32.8893 65.0697 33.0005 65.181L33.6678 65.8482C33.918 66.0984 33.918 66.5015 33.6678 66.7517L31.6661 68.7396C31.5688 68.8369 31.4159 68.9064 31.2351 68.9064ZM35.3359 68.3781L34.6686 69.0454C34.5574 69.1566 34.3906 69.2261 34.2238 69.2261C34.1404 69.2261 34.057 69.2122 33.9875 69.1844L35.0718 68.114C35.2247 67.9611 35.3498 67.8082 35.4471 67.6275C35.5027 67.7248 35.5305 67.8221 35.5305 67.9333C35.5166 68.1001 35.4471 68.253 35.3359 68.3781ZM44.997 60.413L44.3436 61.0802C44.0934 61.3304 43.6903 61.3304 43.4401 61.0802L38.3524 55.9925C37.977 55.6172 37.3515 55.6172 36.9762 55.9925C36.6009 56.3678 36.6009 56.9934 36.9762 57.3687L39.2142 59.6067L42.0639 62.4564C42.189 62.5815 42.2446 62.7344 42.2446 62.9012C42.2446 63.068 42.1751 63.2348 42.0639 63.3461L41.4105 64.0133C41.1603 64.2635 40.7572 64.2635 40.507 64.0133L35.3498 58.8422C34.9745 58.4669 34.3489 58.4669 33.9736 58.8422C33.5983 59.2175 33.5983 59.843 33.9736 60.2184L36.2672 62.512L36.295 62.5398L39.1447 65.3895C39.2698 65.5146 39.3254 65.6675 39.3254 65.8343C39.3254 66.0011 39.2559 66.1679 39.1447 66.2791L38.4914 66.9464C38.2551 67.1827 37.8797 67.1966 37.6295 66.9742L37.2681 66.6127C37.1986 66.5432 37.1152 66.4876 37.0318 66.4459C36.9484 66.3208 36.8511 66.1957 36.7399 66.0845L35.3776 64.7222C35.3359 64.6805 35.2942 64.6527 35.2664 64.6249C35.2108 64.5554 35.1552 64.4998 35.0857 64.4303L34.4184 63.777C34.0014 63.3599 33.4593 63.1097 32.8893 63.0402C32.8198 62.4703 32.5835 61.9282 32.1526 61.4972L31.4854 60.83C31.0683 60.413 30.5262 60.1628 29.9563 60.0933C29.9007 59.5372 29.6505 58.9812 29.2195 58.5503L28.5523 57.8969C28.1353 57.4799 27.5931 57.2297 27.0232 57.1602C26.9676 56.6041 26.7174 56.0481 26.2865 55.6172L25.6192 54.9639C25.1327 54.4773 24.4793 54.2132 23.7982 54.2132C23.1171 54.2132 22.4637 54.4773 21.9772 54.9639L21.2266 55.7145L19.3916 52.9204C19.3499 52.8648 19.3082 52.8092 19.2665 52.7675L18.4464 51.9474L26.0084 44.3853L26.8286 45.2055C26.9676 45.3445 27.1344 45.4279 27.3151 45.4696L30.4011 46.1229L28.2743 48.2498C27.1622 49.3618 27.1622 51.1828 28.2743 52.2949L29.0527 53.0733C29.5948 53.6155 30.3038 53.9074 31.0683 53.9074C31.8329 53.9074 32.5418 53.6155 33.084 53.0733L34.335 51.8223C35.3081 50.8492 36.6287 51.1689 38.2551 52.7953L45.0387 59.5372C45.1499 59.6484 45.2194 59.8152 45.2194 59.982C45.1916 60.135 45.1221 60.2879 44.997 60.413ZM48.1802 52.7675C48.1385 52.8092 48.1107 52.8509 48.0829 52.8926L45.1777 56.9517L39.5895 51.4052C36.1282 47.9717 33.7651 49.5842 32.9171 50.4322L31.6522 51.6972C31.5685 51.7815 31.4689 51.8483 31.3591 51.8937C31.2493 51.9391 31.1315 51.962 31.0127 51.9613C30.7625 51.9613 30.5401 51.864 30.3733 51.6972L29.5948 50.9187C29.2334 50.5573 29.2334 49.9874 29.5948 49.6259L32.9171 46.3036C33.0979 46.1646 34.0292 45.7198 35.461 45.5808L39.951 45.4835C40.2012 45.4835 40.4375 45.3723 40.6182 45.2055L41.4383 44.3853L49.0004 51.9474L48.1802 52.7675ZM55.8952 49.2367L52.7953 52.3366C52.6841 52.4478 52.5451 52.4617 52.4756 52.4617C52.4061 52.4617 52.2671 52.4478 52.1559 52.3366L41.341 41.5218C41.2981 41.4789 41.264 41.428 41.2408 41.3719C41.2175 41.3159 41.2055 41.2558 41.2055 41.1951C41.2055 41.1344 41.2175 41.0743 41.2408 41.0183C41.264 40.9622 41.2981 40.9113 41.341 40.8684L44.4409 37.7685C44.5243 37.6851 44.6494 37.6434 44.7606 37.6434C44.8718 37.6434 44.997 37.6851 45.0804 37.7685L55.8952 48.5834C56.062 48.7641 56.062 49.056 55.8952 49.2367Z" fill="#A61B28"/>
</svg>
