<svg width="71" height="71" viewBox="0 0 71 71" fill="none" xmlns="http://www.w3.org/2000/svg">
<mask id="mask0_1339_3203" style="mask-type:luminance" maskUnits="userSpaceOnUse" x="0" y="0" width="71" height="71">
<path d="M0 0H71V71H0V0Z" fill="white"/>
<path d="M70.9999 71V6.10352e-05H0V71H70.9999ZM2.21876 2.21881H68.7812V68.7812H2.21876V2.21881Z" fill="white"/>
</mask>
<g mask="url(#mask0_1339_3203)">
<path d="M68.8505 57.6841C68.8505 58.2968 69.3472 58.7935 69.9599 58.7935C70.5726 58.7934 71.0693 58.2968 71.0693 57.6841V50.0704C71.0693 49.4577 70.5726 48.961 69.9599 48.961H58.4448C57.8322 48.961 57.3355 49.4577 57.3354 50.0704C57.3354 50.6831 57.8321 51.1798 58.4448 51.1798H68.8505V57.6841Z" fill="#A61B28"/>
<path d="M68.8506 62.1216V64.9885L58.2918 65.3349L58.2348 65.3383C57.6499 65.3872 57.1999 65.887 57.2194 66.4802C57.2388 67.0734 57.7207 67.5425 58.3075 67.553L58.3646 67.5526L69.9964 67.1708C70.5946 67.1512 71.0694 66.6605 71.0694 66.062V62.1216C71.0694 61.5089 70.5727 61.0122 69.96 61.0122C69.3473 61.0122 68.8506 61.5089 68.8506 62.1216Z" fill="#A61B28"/>
</g>
<path d="M39.018 50.4662C39.3883 50.9543 40.0843 51.0497 40.5723 50.6793C41.0604 50.309 41.1559 49.613 40.7855 49.125L37.7749 45.1575C37.4046 44.6695 36.7086 44.5741 36.2205 44.9445C35.7325 45.3148 35.6371 46.0107 36.0074 46.4987L39.018 50.4662Z" fill="#A61B28"/>
<mask id="mask1_1339_3203" style="mask-type:luminance" maskUnits="userSpaceOnUse" x="0" y="0" width="71" height="71">
<path d="M0 0H71V71H0V0Z" fill="white"/>
<path d="M70.9999 71V6.10352e-05H0V71H70.9999ZM2.21876 2.21881H68.7812V68.7812H2.21876V2.21881Z" fill="white"/>
</mask>
<g mask="url(#mask1_1339_3203)">
<path d="M58.3516 52.1045C58.655 52.6368 59.3325 52.8224 59.8648 52.5191C60.3971 52.2157 60.5827 51.5383 60.2793 51.006L60.2099 50.8863C58.7379 48.3925 56.3424 47.057 54.1232 46.3534C51.869 45.6388 49.6821 45.5367 48.5059 45.5764H48.5051C47.8879 45.5976 47.3137 45.3263 46.9562 44.8531L46.956 44.8527L41.6129 37.7846L41.6127 37.7847C40.42 36.2062 38.4541 35.5579 36.6461 35.9668C36.0485 36.102 35.6737 36.696 35.8088 37.2935C35.944 37.8911 36.538 38.266 37.1356 38.1309C38.1231 37.9075 39.1937 38.2631 39.8428 39.1223L39.8429 39.1226L45.1856 46.1902C45.9925 47.2587 47.2653 47.8389 48.5806 47.7939C49.5829 47.7601 51.5042 47.8508 53.4526 48.4684C55.4006 49.086 57.261 50.191 58.3516 52.1045Z" fill="#A61B28"/>
<path d="M20.0088 61.2875C20.573 61.4494 21.171 61.142 21.3635 60.5804C21.562 60.0008 21.2532 59.37 20.6736 59.1714L20.6192 59.1522C20.4932 59.1063 20.3683 59.0519 20.2446 58.9879L20.2447 58.9877L5.27097 51.175L5.27084 51.1748C3.80695 50.4114 3.22516 48.6205 3.95101 47.1433L3.98663 47.0732L3.9869 47.0728C4.75345 45.6057 6.54869 45.0235 8.02438 45.746L8.09439 45.7815L10.5278 47.0515C11.0709 47.335 11.741 47.1245 12.0245 46.5813C12.3079 46.0382 12.0975 45.3681 11.5544 45.0846L9.12062 43.8144L9.12035 43.8141C6.54591 42.4715 3.36661 43.4695 2.02071 46.0446L1.95923 46.1658C0.704647 48.7192 1.70905 51.8197 4.24461 53.1421L19.2184 60.9549L19.2212 60.9562C19.4588 61.0794 19.7032 61.1844 19.9544 61.2704L20.0088 61.2875Z" fill="#A61B28"/>
<path d="M10.6471 39.5996C13.3607 39.5996 15.873 38.9157 17.7883 37.7495C19.6611 36.6091 21.07 34.9307 21.3412 32.898L21.3533 32.8009L21.3534 32.8005C21.4432 32.0166 20.8877 31.0864 19.8688 31.0864H1.42552C0.406675 31.0865 -0.149094 32.0166 -0.0588389 32.801C0.179936 34.8773 1.60366 36.591 3.50615 37.7495C5.42139 38.9157 7.9336 39.5996 10.6471 39.5996ZM10.6471 37.3809C8.28771 37.3809 6.18504 36.783 4.66008 35.8544C3.45271 35.1192 2.67455 34.2249 2.33041 33.3052H18.964C18.6199 34.2249 17.8418 35.1192 16.6344 35.8544C15.1094 36.783 13.0066 37.3809 10.6471 37.3809Z" fill="#A61B28"/>
<path d="M17.6579 32.527C17.8409 33.1117 18.4634 33.4373 19.0481 33.2542C19.6328 33.0711 19.9584 32.4486 19.7753 31.864L12.2343 7.78088L12.2159 7.72672C12.0124 7.17623 11.4105 6.87631 10.8441 7.05367C10.2594 7.23675 9.93384 7.8591 10.1169 8.44378L17.6579 32.527Z" fill="#A61B28"/>
<path d="M2.23071 33.2496C2.7947 33.4346 3.40059 33.1427 3.61147 32.595L3.63057 32.5412L11.528 8.45804L11.5444 8.40333C11.6988 7.8371 11.3834 7.24313 10.8195 7.05818C10.2373 6.8673 9.6105 7.18454 9.41959 7.76671L1.52231 31.8498L1.50593 31.9045C1.35149 32.4707 1.66673 33.0647 2.23071 33.2496Z" fill="#A61B28"/>
<path d="M53.655 39.5996C56.3686 39.5996 58.8809 38.9157 60.7961 37.7495C62.6986 36.591 64.1223 34.8773 64.3611 32.801L64.3677 32.7271C64.4163 31.9589 63.8632 31.0864 62.8766 31.0864H44.4335C43.4147 31.0865 42.8587 32.0164 42.949 32.801C43.1878 34.8773 44.6115 36.591 46.514 37.7495C48.4292 38.9157 50.9415 39.5996 53.655 39.5996ZM53.655 37.3809C51.2956 37.3809 49.1929 36.783 47.6679 35.8544C46.4605 35.1192 45.6824 34.2249 45.3382 33.3052H61.9719C61.6277 34.2249 60.8496 35.1192 59.6422 35.8544C58.1172 36.783 56.0145 37.3809 53.655 37.3809Z" fill="#A61B28"/>
<path d="M60.6657 32.527C60.8488 33.1117 61.4712 33.4373 62.0559 33.2542C62.6406 33.0711 62.9662 32.4486 62.7831 31.864L55.2422 7.78088L55.2237 7.72672C55.0202 7.17623 54.4183 6.87631 53.8519 7.05367C53.2672 7.23675 52.9417 7.8591 53.1247 8.44378L60.6657 32.527Z" fill="#A61B28"/>
<path d="M45.2401 33.2494C45.8223 33.4403 46.449 33.1231 46.6398 32.5409L54.5358 8.45782L54.5521 8.40311C54.7065 7.83687 54.3912 7.2429 53.8272 7.05796C53.2632 6.87305 52.6575 7.16501 52.4466 7.71273L52.4274 7.76649L44.5316 31.8497C44.3407 32.4319 44.6579 33.0585 45.2401 33.2494Z" fill="#A61B28"/>
<path d="M58.9396 5.75203V5.75772C58.9396 6.44565 58.3823 7.00292 57.6941 7.00292H36.813C36.2003 7.00292 35.7036 7.49961 35.7036 8.1123C35.7036 8.72499 36.2003 9.22168 36.813 9.22168H57.6941C59.6075 9.22168 61.1583 7.67121 61.1584 5.75772V5.75203C61.1584 3.8386 59.6074 2.28807 57.6941 2.28807H36.813C36.2003 2.28807 35.7036 2.78476 35.7036 3.39744C35.7036 4.01014 36.2003 4.50682 36.813 4.50682H57.6941C58.3823 4.50682 58.9396 5.06425 58.9396 5.75203Z" fill="#A61B28"/>
<path d="M28.6481 4.50684L28.7051 4.50535C29.2912 4.47564 29.7574 3.99101 29.7574 3.39746C29.7574 2.80391 29.2912 2.31928 28.7051 2.28957L28.6481 2.28808H17.9312C17.3185 2.28808 16.8218 2.78477 16.8218 3.39746C16.8218 4.01015 17.3185 4.50684 17.9312 4.50684H28.6481Z" fill="#A61B28"/>
<path d="M4.30322 5.75203V5.75772C4.30326 7.6711 5.8538 9.22165 7.76719 9.22168H28.6485L28.7055 9.22019C29.2917 9.19051 29.7578 8.70587 29.7578 8.1123C29.7578 7.51873 29.2917 7.03409 28.7055 7.00441L28.6485 7.00292H7.76719C7.07919 7.00289 6.52201 6.44572 6.52198 5.75772V5.75203C6.52198 5.06418 7.07912 4.50686 7.76719 4.50682H13.2381L13.2953 4.50533C13.8814 4.4756 14.3475 3.99098 14.3475 3.39744C14.3475 2.80392 13.8814 2.31929 13.2953 2.28956L13.2381 2.28807H7.76719C5.85382 2.2881 4.30322 3.83871 4.30322 5.75203Z" fill="#A61B28"/>
<path d="M43.5008 53.277C43.7905 53.7874 44.4328 53.9863 44.9632 53.7198C45.5107 53.4447 45.7316 52.7779 45.4565 52.2304L45.4062 52.1324C44.3322 50.0836 42.1835 48.682 39.7045 48.682H25.7568C24.1599 48.682 22.6951 49.2662 21.5702 50.2297L21.4624 50.3241L21.4209 50.3632C21.0041 50.7765 20.9803 51.4486 21.3763 51.8907C21.7724 52.3328 22.443 52.3828 22.8994 52.0138L22.9429 51.9768L23.0136 51.9148C23.7522 51.2821 24.71 50.9007 25.7568 50.9007H39.7045C41.3518 50.9007 42.7797 51.845 43.4738 53.2266L43.5008 53.277Z" fill="#A61B28"/>
<path d="M36.8913 50.9009C37.504 50.9009 38.0007 50.4042 38.0007 49.7915V8.11222C38.0006 7.49957 37.5039 7.00285 36.8913 7.00284H36.8134C36.2008 7.00287 35.7041 7.49957 35.704 8.11222C35.704 8.25641 35.7318 8.39414 35.7819 8.52052V48.6821H29.6802V8.51998C29.7301 8.39374 29.7578 8.25621 29.7578 8.11222C29.7577 7.5187 29.2917 7.03404 28.7055 7.00433L28.6484 7.00284H28.5708C27.9581 7.00284 27.4615 7.49956 27.4614 8.11222V49.7915C27.4614 50.4042 27.9581 50.9009 28.5708 50.9009H36.8913Z" fill="#A61B28"/>
<path d="M36.3355 5.75487C36.3355 7.74603 34.7213 9.36034 32.73 9.36035C30.7388 9.36035 29.1245 7.74602 29.1245 5.75487C29.1245 3.76372 30.7389 2.14939 32.73 2.14939C34.7213 2.14939 36.3355 3.76371 36.3355 5.75487ZM38.5542 5.75487C38.5542 2.53836 35.9467 -0.0693626 32.73 -0.0693693C29.5135 -0.0693693 26.9058 2.53834 26.9058 5.75487C26.9058 8.9714 29.5135 11.5791 32.73 11.5791C35.9467 11.5791 38.5542 8.97137 38.5542 5.75487Z" fill="#A61B28"/>
<path d="M32.8121 70.8931C33.5031 71.0765 34.2243 71.1173 34.9315 71.013L34.9314 71.0129L58.4275 67.5503L61.2883 67.4564C61.9007 67.4363 62.3808 66.9235 62.3607 66.3111C62.3406 65.6988 61.8279 65.2188 61.2156 65.2389L58.2917 65.3347C58.2497 65.3361 58.2078 65.3399 58.1663 65.346L34.6078 68.8179C34.1985 68.8783 33.7811 68.8547 33.3812 68.7486C32.9813 68.6425 32.6071 68.4562 32.2816 68.201L29.0824 65.6905C28.6003 65.3123 27.903 65.3963 27.5247 65.8783C27.1465 66.3603 27.2307 67.0577 27.7127 67.436L30.912 69.9464L30.9122 69.9465C31.4747 70.3877 32.1212 70.7098 32.8121 70.8931Z" fill="#A61B28"/>
<path d="M24.2225 64.6977C24.7045 65.0759 25.4019 64.9917 25.7801 64.5097C26.1583 64.0277 26.0741 63.3303 25.5921 62.9521L11.4946 51.8908C10.1727 50.8536 9.94334 48.9435 10.9813 47.6238C12.02 46.3034 13.9349 46.0733 15.2578 47.1112L31.5762 59.9148L31.6122 59.9421C31.9889 60.2137 32.4972 60.2225 32.8841 59.9598H32.8842L32.8843 59.9597C32.8845 59.9596 32.8849 59.9594 32.8853 59.9591C32.8862 59.9585 32.8877 59.9574 32.8898 59.956C32.894 59.9531 32.9007 59.9486 32.9098 59.9425C32.928 59.9303 32.9557 59.9117 32.9926 59.8872C33.0663 59.8381 33.1766 59.7651 33.3201 59.6716C33.6074 59.4846 34.0276 59.2154 34.5545 58.8901C35.6092 58.239 37.0875 57.3655 38.7812 56.4763C42.2136 54.6743 46.367 52.8968 49.6568 52.6427C52.9671 52.3869 55.7333 53.2068 57.6514 54.7693C59.5532 56.3186 60.7223 58.6773 60.7223 61.7334C60.7223 62.3461 61.219 62.8428 61.8316 62.8428C62.4443 62.8428 62.941 62.3461 62.941 61.7334C62.941 58.0667 61.5141 55.0541 59.0528 53.0491C56.6079 51.0574 53.2439 50.1402 49.4859 50.4306C45.7073 50.7225 41.2055 52.6977 37.7498 54.5119C35.9995 55.4308 34.4755 56.3314 33.3889 57.0022C32.9604 57.2668 32.5993 57.4962 32.3184 57.6773L16.6273 45.3656C14.3417 43.5724 11.0336 43.9689 9.23761 46.252H9.23748C7.44083 48.5361 7.83859 51.8425 10.1249 53.6364L24.2225 64.6977Z" fill="#A61B28"/>
</g>
</svg>
