<svg width="36" height="36" viewBox="0 0 36 36" fill="none" xmlns="http://www.w3.org/2000/svg">
<path d="M20.8453 25.6208L20.8743 25.6201C21.1715 25.605 21.4078 25.3593 21.4078 25.0583C21.4078 24.7574 21.1715 24.5117 20.8743 24.4966L20.8453 24.4958H6.12891C5.81825 24.4958 5.56641 24.7477 5.56641 25.0583C5.56641 25.369 5.81825 25.6208 6.12891 25.6208H20.8453Z" fill="white"/>
<path d="M20.135 28.7363C20.4457 28.7363 20.6975 28.4845 20.6975 28.1738C20.6975 27.8632 20.4457 27.6113 20.135 27.6113H6.12891C5.81825 27.6113 5.56641 27.8632 5.56641 28.1738C5.56641 28.4845 5.81825 28.7363 6.12891 28.7363H20.135Z" fill="white"/>
<path d="M19.9318 31.8518L19.9607 31.8511C20.258 31.836 20.4943 31.5903 20.4943 31.2893C20.4943 30.9883 20.258 30.7426 19.9607 30.7276L19.9318 30.7268H6.12891C5.81825 30.7268 5.56641 30.9786 5.56641 31.2893C5.56641 31.6 5.81825 31.8518 6.12891 31.8518H19.9318Z" fill="white"/>
<mask id="mask0_1339_5009" style="mask-type:luminance" maskUnits="userSpaceOnUse" x="0" y="0" width="36" height="36">
<path d="M0 0H36V36H0V0Z" fill="white"/>
<path d="M36 36V3.43323e-05H0V36H36ZM1.125 1.12504H34.875V34.875H1.125V1.12504Z" fill="white"/>
</mask>
<g mask="url(#mask0_1339_5009)">
<path d="M33.6011 8.99542C33.3238 8.85536 32.9855 8.96657 32.8455 9.24384C32.7054 9.52113 32.8166 9.8595 33.0939 9.99957L33.6011 8.99542ZM31.5706 18.2922C31.8392 18.4279 32.1652 18.3278 32.3127 18.0693L32.3264 18.0439L35.9745 10.8245C36.0418 10.6913 36.0534 10.5369 36.0068 10.3951C35.9602 10.2534 35.8592 10.136 35.7261 10.0687L33.6011 8.99542L33.0939 9.99957L34.7166 10.8193L31.3223 17.5364L31.3099 17.5626C31.1893 17.8346 31.302 18.1565 31.5706 18.2922Z" fill="white"/>
<path d="M23.7335 28.5852C23.8607 28.6418 24.0048 28.6494 24.1377 28.6057C24.2794 28.5591 24.3969 28.4582 24.4642 28.325L28.6173 20.1073L28.6297 20.0812C28.7503 19.8091 28.6375 19.4874 28.369 19.3516C28.1004 19.2159 27.7744 19.316 27.6269 19.5744L27.6132 19.5999L23.7138 27.3155L21.0224 25.9547L30.8953 6.41415L30.8988 6.4081C30.9177 6.37906 30.9577 6.36746 30.9891 6.3829L33.5575 7.68094L33.5584 7.68135C33.5729 7.68868 33.585 7.7018 33.5913 7.72097C33.5975 7.74002 33.5956 7.7574 33.5882 7.77192C33.5879 7.77248 33.5876 7.77308 33.5873 7.77364L28.7043 17.4375L29.7084 17.9449L34.5906 8.28265L34.6043 8.25498C34.8827 7.67217 34.6426 6.96822 34.0649 6.67693L31.4962 5.37861L31.4953 5.3782C30.9092 5.08332 30.1913 5.31764 29.8928 5.90349C29.8926 5.90403 29.8923 5.90459 29.892 5.90514L19.7647 25.9492C19.6246 26.2264 19.7358 26.5647 20.0129 26.7049L23.7083 28.5733L23.7335 28.5852ZM28.9527 18.1932C29.23 18.3333 29.5683 18.2221 29.7084 17.9449L28.7043 17.4375C28.5642 17.7148 28.6754 18.0531 28.9527 18.1932Z" fill="white"/>
<path d="M19.6643 31.9093C19.8485 32.017 20.0269 31.9907 20.1141 31.9664C20.1966 31.9435 20.2573 31.9072 20.2817 31.8922C20.3071 31.8766 20.3329 31.8585 20.3553 31.8418L20.4096 31.8003L20.4262 31.7868L22.3025 30.2064L22.3027 30.2062L24.325 28.5015C24.4693 28.3799 24.543 28.1939 24.5212 28.0063C24.4993 27.8188 24.3848 27.6547 24.2163 27.5695L22.3677 26.6343L22.3675 26.6343L20.5208 25.701C20.3522 25.6158 20.1522 25.6209 19.9883 25.7144C19.8243 25.808 19.7182 25.9777 19.7058 26.166L19.3703 31.2524C19.3694 31.267 19.369 31.2816 19.3692 31.2963C19.3695 31.3217 19.3695 31.384 19.3741 31.4345C19.3764 31.4599 19.3825 31.5203 19.4057 31.5894C19.4275 31.6543 19.4914 31.8083 19.6643 31.9093ZM20.6547 28.878L20.6547 28.8779L20.7725 27.0887L22.9496 28.1895L20.5675 30.1969L20.6547 28.878Z" fill="white"/>
<path d="M33.5826 7.69296C33.7098 7.7495 33.8538 7.757 33.9867 7.71335C34.1284 7.66678 34.2458 7.56579 34.3131 7.43265L35.4238 5.23483H35.4239C35.9213 4.25101 35.5237 3.04261 34.5403 2.54544C33.5566 2.04807 32.3482 2.4455 31.8511 3.42895V3.42901L30.7403 5.62697C30.6002 5.90423 30.7113 6.24257 30.9886 6.3827L33.5574 7.68094L33.5826 7.69296ZM31.9979 5.6324L32.8551 3.93645L32.8655 3.91653C33.0887 3.50186 33.6106 3.336 34.0328 3.54945C34.4621 3.76652 34.6367 4.29837 34.4199 4.72726L34.4198 4.72733L33.5627 6.42321L31.9979 5.6324Z" fill="white"/>
<path d="M18.8154 22.4446C19.1261 22.4446 19.3779 22.1927 19.3779 21.8821C19.3779 21.5714 19.1261 21.3196 18.8154 21.3196H8.71778C8.40711 21.3196 8.15527 21.5714 8.15527 21.8821C8.15527 22.1927 8.40711 22.4446 8.71778 22.4446H18.8154Z" fill="white"/>
<path d="M-0.0351562 1.47697V15.5289C-0.0351377 15.8396 0.216696 16.0914 0.527345 16.0914C0.828299 16.0914 1.07403 15.8551 1.08909 15.5578L1.08985 15.5289V1.47697L1.09012 1.46619C1.09582 1.35562 1.18879 1.26611 1.30079 1.26611H26.2332C26.3477 1.26611 26.4441 1.36243 26.4441 1.47697V12.8653C26.4441 13.176 26.6959 13.4278 27.0066 13.4278C27.3173 13.4278 27.5691 13.176 27.5691 12.8653V1.47697C27.5691 0.739185 26.9671 0.141102 26.2332 0.141102H1.30079C0.575441 0.141102 -0.0164202 0.721516 -0.0347443 1.4425L-0.0351562 1.47697ZM26.4441 22.0478V34.5233C26.4441 34.6332 26.3527 34.728 26.2438 34.7339L26.2332 34.7341H1.30079C1.18614 34.7341 1.08985 34.6377 1.08985 34.5233V17.9992L1.08909 17.9702C1.07403 17.673 0.828298 17.4367 0.527345 17.4367C0.226393 17.4367 -0.0193347 17.673 -0.0344009 17.9702L-0.0351562 17.9992V34.5233C-0.0351562 35.2571 0.56296 35.8591 1.30079 35.8591H26.2332L26.2676 35.8587C26.9867 35.8404 27.5691 35.2466 27.5691 34.5233V22.0478C27.5691 21.7371 27.3173 21.4853 27.0066 21.4853C26.696 21.4853 26.4441 21.7371 26.4441 22.0478Z" fill="white"/>
<path d="M13.774 19.5027C14.8017 19.5232 15.7807 19.1127 16.6192 18.6435C17.0453 18.4051 17.4505 18.1423 17.8208 17.8961C18.198 17.6452 18.527 17.4196 18.8296 17.233L18.8964 17.1915C19.5825 16.7602 20.152 16.2568 20.4364 15.56C20.7344 14.8296 20.6741 14.0018 20.3341 13.0338L19.2732 10.0074L20.3313 8.43392L20.3315 8.43372C20.4063 8.32229 20.472 8.18621 20.4945 8.02674C20.5182 7.85957 20.4889 7.70527 20.4298 7.57246C20.3306 7.3492 20.1389 7.18393 20.0462 7.101L20.0458 7.10066L17.6526 4.96381L17.6525 4.96368C17.4792 4.80902 17.2947 4.67379 17.0318 4.6253C16.9211 4.60488 16.8159 4.60372 16.7342 4.60429C16.6261 4.60503 16.5829 4.60786 16.4572 4.60786C16.3773 4.60786 16.2983 4.62491 16.2254 4.65784L13.774 5.76651L11.3224 4.65784C11.2496 4.62491 11.1706 4.60786 11.0907 4.60786C10.965 4.60786 10.9217 4.60503 10.8135 4.60429C10.7317 4.60372 10.6263 4.60492 10.5156 4.6253C10.2521 4.6738 10.0673 4.80922 9.894 4.96498V4.96505L7.50357 7.09936L7.46382 7.13465C7.36208 7.22568 7.20424 7.37644 7.11713 7.57246C7.0581 7.70528 7.02905 7.85912 7.05217 8.02551C7.07423 8.18422 7.13894 8.31987 7.21285 8.43118C7.21353 8.43221 7.21422 8.43324 7.21491 8.43427L8.2744 10.0074L7.21188 13.0338L7.18085 13.1242C6.86839 14.0537 6.82134 14.8528 7.11074 15.5604C7.40487 16.2795 8.00262 16.7926 8.71839 17.233C9.02097 17.4196 9.34993 17.6452 9.72714 17.8961C10.0974 18.1423 10.5027 18.4051 10.9288 18.6435C11.7673 19.1127 12.7463 19.5231 13.774 19.5027ZM13.7872 18.3778C13.7784 18.3776 13.7696 18.3776 13.7608 18.3778C13.0314 18.395 12.2623 18.1006 11.4782 17.6618C11.0911 17.4452 10.7149 17.202 10.3502 16.9593C9.99258 16.7215 9.63308 16.4753 9.30836 16.2752L9.30801 16.275C8.66436 15.8789 8.31115 15.5237 8.15197 15.1345C8.00224 14.7684 7.9831 14.2683 8.24687 13.4835L8.2733 13.4067L8.27337 13.4066L9.42948 10.1137C9.48833 9.94604 9.46453 9.76046 9.36528 9.6131L8.24316 7.94723C8.24537 7.94526 8.2476 7.94322 8.24989 7.94119C8.25038 7.94075 8.25091 7.94032 8.2514 7.93988L10.6446 5.80297L10.6459 5.8018C10.6916 5.76082 10.7183 5.7404 10.7323 5.73066C10.7336 5.73057 10.735 5.73034 10.7366 5.73025C10.7517 5.72943 10.7729 5.72899 10.8057 5.72922C10.8394 5.72945 10.8757 5.73025 10.9253 5.73114C10.9386 5.73138 10.9525 5.73161 10.967 5.73183L13.5422 6.89631L13.5701 6.90806C13.7106 6.96271 13.8677 6.95878 14.0058 6.89631L16.5808 5.73183C16.5953 5.73161 16.6092 5.73138 16.6225 5.73114C16.6721 5.73025 16.7083 5.72945 16.7419 5.72922C16.7746 5.72899 16.7957 5.72943 16.8107 5.73025C16.8122 5.73033 16.8136 5.73058 16.8149 5.73066C16.8291 5.74046 16.8564 5.76113 16.9034 5.8031L19.2965 7.93988C19.2989 7.94201 19.3012 7.94414 19.3035 7.9462L18.1824 9.61345C18.0834 9.76067 18.0597 9.94597 18.1184 10.1134L19.2725 13.4064L19.2726 13.4067C19.564 14.2361 19.549 14.757 19.3948 15.1349C19.2361 15.5239 18.8835 15.879 18.24 16.275L18.2396 16.2751C17.9149 16.4753 17.5554 16.7215 17.1977 16.9593C16.833 17.2019 16.4568 17.4452 16.0698 17.6618C15.2856 18.1006 14.5165 18.395 13.7872 18.3778Z" fill="white"/>
<path d="M15.1295 15.1321C15.3453 15.1776 15.5906 15.1493 15.7991 15.0057C16.014 14.8576 16.1329 14.6256 16.1534 14.38C16.1543 14.3696 16.1548 14.3592 16.1551 14.3489L16.1707 13.7931L16.1998 13.0589L16.6236 12.4387L16.6241 12.4378L16.9437 11.9683L16.9601 11.9428C17.0773 11.749 17.1279 11.4995 17.0461 11.2507C16.9635 10.9995 16.7718 10.8266 16.5552 10.7372C16.5459 10.7334 16.5365 10.7298 16.527 10.7264L15.9766 10.5331L15.9765 10.5332L15.2465 10.2766L14.7616 9.69675L14.3973 9.25942C14.3926 9.25382 14.3878 9.24835 14.383 9.24294C14.2454 9.09028 14.049 8.97815 13.8223 8.95853C13.7905 8.95578 13.7585 8.95572 13.7267 8.95839C13.4944 8.97793 13.3001 9.09248 13.1645 9.24294C13.16 9.24798 13.1555 9.25312 13.1512 9.25832L12.7842 9.69633C12.7838 9.69671 12.7836 9.69713 12.7833 9.6975L12.3005 10.2768L11.571 10.5332L11.0205 10.7264C11.0116 10.7296 11.0028 10.7329 10.9941 10.7365C10.7778 10.8249 10.5833 10.997 10.4999 11.2507C10.4171 11.5025 10.4706 11.754 10.5904 11.9476L10.6038 11.9682L10.9609 12.4931C10.9611 12.4934 10.9614 12.4937 10.9616 12.494L11.3478 13.059L11.3768 13.793L11.3924 14.3489L11.3941 14.38C11.4146 14.6256 11.5336 14.8576 11.7484 15.0057C11.9569 15.1493 12.2022 15.1777 12.418 15.1321C12.4238 15.1309 12.4295 15.1297 12.4352 15.1283L13.0015 14.99L13.7736 14.8016L14.5438 14.99L14.5445 14.9902L15.1127 15.1283L15.1295 15.1321ZM14.8109 13.8972L14.811 13.8972L13.9074 13.6762C13.8198 13.6548 13.7282 13.6547 13.6405 13.6761L12.5067 13.9528L12.5011 13.755C12.5011 13.7528 12.501 13.7507 12.5009 13.7485L12.4655 12.8529C12.4613 12.7472 12.4274 12.6449 12.3678 12.5576L11.8909 11.8602L11.891 11.8601L11.7553 11.6608L11.9438 11.5945L12.8199 11.2867C12.9156 11.253 13.0006 11.194 13.0656 11.116L13.6466 10.4188L13.7731 10.2678L13.898 10.4177L13.8986 10.4184L14.4827 11.1168L14.495 11.1312C14.5581 11.2017 14.6381 11.2552 14.7276 11.2867L15.7922 11.6608L15.6941 11.8048L15.1797 12.5577C15.1201 12.645 15.0863 12.7472 15.0821 12.8528L15.0465 13.7485C15.0464 13.7507 15.0464 13.7529 15.0463 13.755L15.0408 13.9531L14.8109 13.8972Z" fill="white"/>
</g>
</svg>
