<svg width="70" height="70" viewBox="0 0 70 70" fill="none" xmlns="http://www.w3.org/2000/svg">
<path d="M53.1234 36.472C52.6829 40.7421 50.7907 44.7318 47.763 47.7749C44.7352 50.818 40.7551 52.7303 36.4873 53.1924C36.4014 53.1914 36.3161 53.2076 36.2365 53.24C36.1569 53.2724 36.0846 53.3204 36.0238 53.3812C35.963 53.4419 35.915 53.5143 35.8826 53.5939C35.8502 53.6735 35.834 53.7587 35.8351 53.8447V67.8027C35.8351 68.1487 35.6976 68.4805 35.453 68.7251C35.2083 68.9697 34.8765 69.1072 34.5306 69.1072C34.1846 69.1072 33.8528 68.9697 33.6082 68.7251C33.3635 68.4805 33.2261 68.1487 33.2261 67.8027V62.7382C33.2137 62.5693 33.1409 62.4106 33.0212 62.2908C32.9015 62.1711 32.7427 62.0984 32.5738 62.086C26.772 61.6164 21.2688 59.3182 16.8563 55.522C12.4437 51.7259 9.34943 46.6276 8.01877 40.9609C7.96923 40.793 7.954 40.6169 7.97397 40.443C7.99394 40.2691 8.0487 40.101 8.135 39.9487C8.2213 39.7964 8.33737 39.663 8.47629 39.5565C8.61521 39.45 8.77415 39.3726 8.94363 39.3288C9.11311 39.285 9.28967 39.2758 9.46279 39.3017C9.63592 39.3275 9.80206 39.388 9.95133 39.4794C10.1006 39.5709 10.2299 39.6914 10.3316 39.8339C10.4334 39.9763 10.5053 40.1378 10.5433 40.3087C11.7263 45.3952 14.4848 49.9784 18.4254 53.4051C22.3661 56.8319 27.288 58.9273 32.4894 59.3926C32.6582 59.477 32.8194 59.3926 32.9805 59.2314C33.0657 59.1833 33.1346 59.1109 33.1784 59.0234C33.2221 58.9359 33.2387 58.8373 33.2261 58.7403V53.8447C33.2271 53.7587 33.2109 53.6735 33.1785 53.5939C33.1461 53.5143 33.0981 53.4419 33.0373 53.3812C32.9766 53.3204 32.9043 53.2724 32.8247 53.24C32.7451 53.2076 32.6598 53.1914 32.5738 53.1924C28.3264 52.7192 24.3628 50.8267 21.3245 47.821C18.2869 44.7681 16.3906 40.7641 15.9531 36.4796C15.9282 36.3228 15.8495 36.1796 15.7305 36.0746C15.6114 35.9696 15.4595 35.9093 15.3009 35.9041H1.34286C0.986708 35.9041 0.645148 35.7626 0.393313 35.5108C0.141479 35.259 0 34.9174 0 34.5613C0 34.2051 0.141479 33.8636 0.393313 33.6117C0.645148 33.3599 0.986708 33.2184 1.34286 33.2184H6.64522C6.80344 33.2118 6.95459 33.151 7.07333 33.0462C7.19208 32.9415 7.27121 32.7991 7.29746 32.6429C7.64566 26.8497 9.79813 21.3108 13.4531 16.8026C17.108 12.2945 22.0822 9.04321 27.6782 7.50464C28.0171 7.44032 28.3677 7.5081 28.6582 7.69408C28.9487 7.88006 29.157 8.17014 29.2405 8.50484C29.3239 8.83953 29.2761 9.19345 29.1069 9.49403C28.9377 9.7946 28.6598 10.019 28.3304 10.1213C23.324 11.4713 18.8641 14.351 15.5734 18.3584C12.2828 22.3657 10.3258 27.3006 9.9755 32.4741C9.95386 32.5694 9.95472 32.6684 9.97801 32.7633C10.0013 32.8583 10.0464 32.9464 10.1097 33.0209C10.173 33.0954 10.2527 33.1541 10.3427 33.1923C10.4326 33.2306 10.5302 33.2474 10.6277 33.2414H15.2702C15.4288 33.2363 15.5808 33.176 15.6998 33.0709C15.8188 32.9659 15.8975 32.8227 15.9224 32.6659C16.3569 28.388 18.2484 24.3893 21.2798 21.3397C24.3112 18.2901 28.2986 16.3748 32.5738 15.9148C32.6598 15.9158 32.7451 15.8996 32.8247 15.8672C32.9043 15.8348 32.9766 15.7868 33.0373 15.726C33.0981 15.6652 33.1461 15.5929 33.1785 15.5133C33.2109 15.4337 33.2271 15.3485 33.2261 15.2625V1.30449C33.2261 0.958517 33.3635 0.626715 33.6082 0.382076C33.8528 0.137437 34.1846 0 34.5306 0C34.8765 0 35.2083 0.137437 35.453 0.382076C35.6976 0.626715 35.8351 0.958517 35.8351 1.30449V17.1348C35.8438 17.3195 35.8139 17.5041 35.7472 17.6765C35.6805 17.849 35.5785 18.0056 35.4477 18.1364C35.317 18.2672 35.1603 18.3692 34.9879 18.4359C34.8154 18.5026 34.6309 18.5325 34.4462 18.5237C20.2579 18.5237 13.1677 35.8964 23.1969 45.9333C33.2261 55.9702 50.3456 48.7879 50.5911 34.5536C50.5891 34.3817 50.6214 34.2112 50.6862 34.052C50.7511 33.8928 50.8471 33.7481 50.9686 33.6266C51.0902 33.505 51.2348 33.409 51.394 33.3442C51.5532 33.2794 51.7237 33.247 51.8956 33.2491H67.7183C68.0744 33.2491 68.416 33.3906 68.6678 33.6424C68.9197 33.8942 69.0611 34.2358 69.0611 34.592C69.0611 34.9481 68.9197 35.2897 68.6678 35.5415C68.416 35.7933 68.0744 35.9348 67.7183 35.9348H62.5003C62.3384 35.9283 62.1803 35.9845 62.0588 36.0917C61.9373 36.1989 61.8618 36.3489 61.8481 36.5103C61.4246 42.3396 59.1702 47.8861 55.4068 52.3579C51.6433 56.8296 46.5633 59.998 40.8919 61.4107C39.1807 61.8174 38.5898 59.2084 40.3164 58.8017C45.3812 57.5424 49.9233 54.7259 53.3029 50.7489C56.6825 46.7718 58.7292 41.8348 59.1547 36.6331C59.1763 36.5378 59.1755 36.4388 59.1522 36.3438C59.1289 36.2489 59.0838 36.1607 59.0205 36.0863C58.9572 36.0118 58.8775 35.9531 58.7875 35.9148C58.6976 35.8766 58.6 35.8597 58.5025 35.8657H53.7756C53.617 35.8709 53.465 35.9312 53.346 36.0362C53.227 36.1413 53.1483 36.2845 53.1234 36.4413V36.472ZM63.6897 14.7714L54.259 24.1484C54.0286 24.3985 53.7087 24.5474 53.3689 24.5627H47.0844C46.9128 24.5778 46.7472 24.633 46.6009 24.7239L35.4284 35.9809C35.1771 36.2156 34.8447 36.3437 34.5009 36.3382C34.1571 36.3327 33.8289 36.1941 33.5853 35.9515C33.3417 35.7088 33.2017 35.3812 33.1948 35.0374C33.1879 34.6937 33.3147 34.3607 33.5484 34.1085L44.7209 22.8439C44.7961 22.8062 44.859 22.748 44.9025 22.676C44.946 22.6041 44.9681 22.5213 44.9665 22.4372V16.1373C44.9649 15.9558 45.0001 15.7759 45.07 15.6084C45.1399 15.4409 45.243 15.2893 45.3732 15.1628L54.7501 5.79346C54.9312 5.59771 55.167 5.46102 55.4269 5.40121C55.6867 5.34139 55.9586 5.36122 56.207 5.45811C56.4554 5.55499 56.6689 5.72445 56.8197 5.9444C56.9704 6.16435 57.0514 6.4246 57.0522 6.69126V11.8325C57.063 12.0019 57.1352 12.1616 57.2553 12.2816C57.3753 12.4017 57.535 12.4739 57.7044 12.4847H62.7612C63.031 12.4776 63.2966 12.552 63.5234 12.6981C63.7503 12.8441 63.9279 13.0551 64.033 13.3036C64.1382 13.5521 64.1661 13.8265 64.1131 14.091C64.0601 14.3556 63.9286 14.598 63.7358 14.7868L63.6897 14.7714ZM52.9469 21.6775L58.4104 16.214C58.5053 16.1263 58.5724 16.0127 58.6033 15.8872C58.6342 15.7617 58.6276 15.6299 58.5843 15.5081C58.541 15.3864 58.4629 15.28 58.3597 15.2023C58.2565 15.1245 58.1327 15.0787 58.0037 15.0707H55.7016C55.3453 15.079 54.9999 14.9469 54.7401 14.7028C54.4802 14.4588 54.3268 14.1224 54.3128 13.7662V11.5332C54.3121 11.4011 54.2727 11.272 54.1994 11.162C54.1261 11.052 54.0222 10.966 53.9005 10.9145C53.7787 10.8631 53.6446 10.8484 53.5146 10.8725C53.3847 10.8965 53.2647 10.9582 53.1694 11.0498L47.798 16.5133C47.6546 16.6382 47.5663 16.8147 47.5524 17.0044V21.2478C47.5514 21.3337 47.5676 21.419 47.6 21.4986C47.6324 21.5782 47.6804 21.6505 47.7412 21.7113C47.802 21.7721 47.8743 21.8201 47.9539 21.8525C48.0335 21.8849 48.1187 21.9011 48.2047 21.9001H52.5248C52.6936 21.9001 52.8548 21.9001 52.9315 21.7312L52.9469 21.6775ZM45.611 34.5689C45.6141 36.7629 44.9662 38.9085 43.7493 40.7342C42.5324 42.5598 40.8013 43.9834 38.775 44.8247C36.7487 45.6661 34.5184 45.8874 32.3663 45.4607C30.2142 45.034 28.2371 43.9784 26.6851 42.4275C25.1332 40.8766 24.0762 38.9002 23.648 36.7484C23.2198 34.5966 23.4396 32.3661 24.2795 30.3393C25.1195 28.3124 26.5419 26.5803 28.3666 25.3622C30.1914 24.144 32.3366 23.4946 34.5306 23.4961C34.8603 23.5214 35.1682 23.6702 35.3929 23.9128C35.6176 24.1553 35.7425 24.4738 35.7425 24.8045C35.7425 25.1351 35.6176 25.4536 35.3929 25.6961C35.1682 25.9387 34.8603 26.0875 34.5306 26.1128C32.2919 26.1128 30.145 27.0021 28.562 28.585C26.9791 30.168 26.0898 32.3149 26.0898 34.5536C26.0898 36.7922 26.9791 38.9392 28.562 40.5221C30.145 42.1051 32.2919 42.9944 34.5306 42.9944C39.4262 42.9944 42.6875 39.3265 42.9253 34.5536C42.9177 34.3685 42.9482 34.1837 43.015 34.0109C43.0818 33.8381 43.1834 33.6808 43.3136 33.549C43.4438 33.4171 43.5997 33.3134 43.7717 33.2444C43.9436 33.1754 44.128 33.1425 44.3132 33.1478C44.4984 33.1531 44.6805 33.1964 44.8483 33.2751C45.016 33.3538 45.1658 33.4662 45.2883 33.6052C45.4107 33.7443 45.5032 33.9071 45.5601 34.0834C45.617 34.2598 45.6369 34.4459 45.6187 34.6303L45.611 34.5689Z" fill="#A61B28"/>
</svg>
