<svg width="77" height="75" viewBox="0 0 77 75" fill="none" xmlns="http://www.w3.org/2000/svg">
<path d="M50.3934 59.0561L43.5341 56.7688C52.0311 51.4154 48.2188 37.9306 38.0325 37.9387C27.8462 37.9387 24.034 51.4072 32.5323 56.7688L25.6731 59.0561C23.9188 59.6392 22.3929 60.7602 21.3121 62.2599C20.2313 63.7596 19.6505 65.5618 19.6523 67.4104V71.2633C19.6534 72.1876 20.0211 73.0736 20.6746 73.7272C21.3281 74.3807 22.2142 74.7483 23.1384 74.7494H52.9267C53.8513 74.7487 54.7378 74.3812 55.3918 73.7277C56.0459 73.0742 56.414 72.1879 56.4154 71.2633V67.4104C56.4174 65.5617 55.8368 63.7595 54.7559 62.2597C53.6751 60.7599 52.1477 59.639 50.3934 59.0561ZM30.5263 48.1631C30.8416 38.2418 45.2261 38.2459 45.5401 48.1631C45.2248 58.0844 30.8403 58.0816 30.5263 48.1631ZM53.6959 71.2633C53.6957 71.3644 53.6757 71.4644 53.6368 71.5576C53.598 71.6509 53.5412 71.7356 53.4697 71.8069C53.3981 71.8782 53.3132 71.9347 53.2198 71.9732C53.1264 72.0117 53.0263 72.0314 52.9253 72.0312H23.1384C22.9348 72.0309 22.7397 71.9499 22.5958 71.8059C22.4519 71.662 22.3709 71.4669 22.3705 71.2633V67.4104C22.369 66.1323 22.7702 64.8864 23.5173 63.8494C24.2644 62.8125 25.3192 62.0374 26.532 61.6343L34.5968 58.946C36.8283 58.2079 39.2381 58.2079 41.4696 58.946L49.5331 61.6343C50.7462 62.0371 51.8016 62.8121 52.5491 63.849C53.2967 64.8859 53.6984 66.1321 53.6973 67.4104L53.6959 71.2633ZM71.0582 58.2787L66.0214 56.603C67.4714 55.5436 68.5493 54.0528 69.1009 52.3438C69.6525 50.6348 69.6495 48.7951 69.0925 47.0879C68.5354 45.3807 67.4527 43.8934 65.9993 42.8387C64.5459 41.784 62.7961 41.2158 61.0003 41.2156C59.2045 41.2154 57.4547 41.783 56.0009 42.8373C54.5472 43.8917 53.4642 45.3787 52.9066 47.0858C52.3491 48.7928 52.3456 50.6325 52.8967 52.3416C53.4479 54.0507 54.5254 55.5418 55.9751 56.6016C55.801 56.649 55.6382 56.7306 55.4959 56.8416C55.3537 56.9526 55.235 57.0908 55.1467 57.2481C55.0583 57.4054 55.0022 57.5787 54.9815 57.7579C54.9608 57.9372 54.9759 58.1187 55.026 58.292C55.0761 58.4653 55.1602 58.6269 55.2734 58.7674C55.3865 58.9079 55.5265 59.0245 55.6851 59.1104C55.8438 59.1964 56.0179 59.2498 56.1974 59.2678C56.3769 59.2858 56.5582 59.2679 56.7307 59.2151C58.0747 58.6596 59.5028 58.3348 60.9548 58.2542C62.905 58.0952 68.2897 60.3268 70.1965 60.8569C71.1259 61.1683 71.9341 61.7638 72.5069 62.5593C73.0797 63.3547 73.3882 64.31 73.389 65.2902V68.3889C73.3894 68.484 73.3527 68.5755 73.2867 68.644C73.2208 68.7126 73.1307 68.7527 73.0356 68.7558H60.4913C60.1309 68.7558 59.7852 68.899 59.5303 69.1539C59.2754 69.4088 59.1322 69.7545 59.1322 70.1149C59.1322 70.4754 59.2754 70.8211 59.5303 71.0759C59.7852 71.3308 60.1309 71.474 60.4913 71.474H73.0356C73.8517 71.4711 74.6333 71.1447 75.2091 70.5664C75.7849 69.9881 76.1079 69.205 76.1071 68.3889V65.2902C76.1069 63.7397 75.6192 62.2285 74.7132 60.9703C73.8072 59.7121 72.5286 58.7705 71.0582 58.2787ZM61.0118 55.5374C59.4733 55.5392 57.997 54.9298 56.9078 53.8431C55.8185 52.7564 55.2056 51.2816 55.2038 49.743C55.202 48.2044 55.8115 46.7281 56.8982 45.6389C57.9848 44.5497 59.4597 43.9368 60.9983 43.935C61.7601 43.9341 62.5146 44.0833 63.2188 44.374C63.923 44.6647 64.563 45.0913 65.1023 45.6293C65.6417 46.1674 66.0697 46.8064 66.3621 47.5099C66.6544 48.2134 66.8054 48.9676 66.8063 49.7294C66.8072 50.4912 66.658 51.2458 66.3673 51.95C66.0766 52.6541 65.65 53.2942 65.1119 53.8335C64.5739 54.3728 63.9349 54.8009 63.2314 55.0932C62.5279 55.3856 61.7737 55.5365 61.0118 55.5374Z" fill="white"/>
<path d="M21.0657 58.3317C21.1225 58.157 21.1434 57.9726 21.127 57.7896C21.1107 57.6066 21.0575 57.4288 20.9707 57.2669C20.8838 57.105 20.7651 56.9624 20.6217 56.8476C20.4783 56.7328 20.3131 56.6481 20.1361 56.5988C21.5869 55.5378 22.665 54.0452 23.2161 52.3344C23.7673 50.6236 23.7633 48.7823 23.2047 47.074C22.6462 45.3656 21.5616 43.8776 20.1063 42.8229C18.6509 41.7682 16.8993 41.2007 15.1019 41.2017C13.3045 41.2026 11.5535 41.772 10.0993 42.8283C8.64509 43.8846 7.56217 45.3738 7.00546 47.0827C6.44874 48.7917 6.44675 50.633 6.99976 52.3432C7.55276 54.0533 8.63245 55.5448 10.0844 56.6043L5.04219 58.28C3.57316 58.7728 2.29608 59.7146 1.39133 60.9725C0.486574 62.2304 -0.000116516 63.7407 1.21719e-06 65.2902V68.3889C-0.000723516 69.2049 0.322217 69.988 0.898006 70.5664C1.47379 71.1447 2.25543 71.4711 3.07152 71.474H15.575C15.9355 71.474 16.2812 71.3308 16.5361 71.0759C16.7909 70.821 16.9341 70.4753 16.9341 70.1149C16.9341 69.7544 16.7909 69.4087 16.5361 69.1539C16.2812 68.899 15.9355 68.7558 15.575 68.7558H3.07152C2.97646 68.7526 2.88638 68.7125 2.82041 68.644C2.75443 68.5755 2.71775 68.484 2.71816 68.3889V65.2902C2.71868 64.3106 3.02669 63.3559 3.59873 62.5608C4.17078 61.7656 4.978 61.1701 5.90656 60.8582C7.84189 60.3336 13.1423 58.0993 15.1252 58.2556C16.0399 58.2607 16.9481 58.4102 17.8162 58.6986L19.3519 59.2015C19.5216 59.2571 19.7005 59.2787 19.8785 59.265C20.0565 59.2514 20.23 59.2028 20.3892 59.122C20.5484 59.0412 20.6901 58.9298 20.8062 58.7942C20.9223 58.6586 21.0105 58.5014 21.0657 58.3317ZM15.1211 55.5374C13.5825 55.5392 12.1063 54.9297 11.017 53.8431C9.92782 52.7564 9.31489 51.2815 9.31309 49.743C9.31129 48.2044 9.92076 46.7281 11.0074 45.6389C12.0941 44.5497 13.5689 43.9367 15.1075 43.9349C15.8694 43.9341 16.6239 44.0832 17.3281 44.3739C18.0323 44.6646 18.6723 45.0912 19.2116 45.6293C19.7509 46.1673 20.179 46.8064 20.4714 47.5099C20.7637 48.2134 20.9147 48.9675 20.9156 49.7294C20.9164 50.4912 20.7673 51.2458 20.4766 51.9499C20.1858 52.6541 19.7593 53.2941 19.2212 53.8335C18.6832 54.3728 18.0441 54.8008 17.3406 55.0932C16.6371 55.3856 15.8829 55.5365 15.1211 55.5374Z" fill="white"/>
<path d="M3.99904 43.0135C4.11131 43.1523 4.2498 43.2676 4.40662 43.3528C4.56344 43.4381 4.73551 43.4916 4.91302 43.5103C5.09052 43.5291 5.26998 43.5127 5.44114 43.4621C5.61231 43.4114 5.77182 43.3276 5.91059 43.2154C6.04936 43.1031 6.16465 42.9646 6.24989 42.8078C6.33513 42.651 6.38865 42.4789 6.40739 42.3014C6.42614 42.1239 6.40973 41.9444 6.35912 41.7733C6.30851 41.6021 6.22467 41.4426 6.11241 41.3038C4.92919 39.8527 3.85916 38.3129 2.91178 36.6979C6.56423 30.6603 11.7249 25.6771 17.8866 22.2382C24.0482 18.7992 30.9987 17.0228 38.0548 17.0837C45.1108 17.0225 52.0613 18.7988 58.2227 22.2378C64.3842 25.6768 69.5446 30.6602 73.1966 36.6979C72.2477 38.3137 71.1739 39.8528 69.9851 41.3011C69.865 41.4385 69.7738 41.5987 69.717 41.772C69.6601 41.9454 69.6388 42.1285 69.6542 42.3103C69.6696 42.4921 69.7215 42.6689 69.8068 42.8303C69.892 42.9916 70.0088 43.1341 70.1503 43.2493C70.2918 43.3645 70.4551 43.4501 70.6303 43.5008C70.8056 43.5516 70.9893 43.5665 71.1704 43.5448C71.3516 43.523 71.5265 43.465 71.6848 43.3742C71.8431 43.2834 71.9814 43.1617 72.0916 43.0163C73.5705 41.246 74.8682 39.3319 75.965 37.3027C76.0593 37.114 76.1083 36.9061 76.1083 36.6952C76.1083 36.4843 76.0593 36.2763 75.965 36.0877C72.1335 29.4361 66.6053 23.9205 59.945 20.1042C53.2847 16.2879 45.7308 14.3076 38.0548 14.3655C30.3786 14.3074 22.8245 16.2876 16.1639 20.1039C9.50335 23.9202 3.97496 29.4359 0.143337 36.0877C0.0490731 36.2763 0 36.4843 0 36.6952C0 36.9061 0.0490731 37.114 0.143337 37.3027C1.23699 39.3289 2.52852 41.2418 3.99904 43.0135Z" fill="white"/>
<path d="M38.0563 29.2202C36.4027 29.218 34.7953 29.7655 33.4869 30.7767C32.1786 31.7879 31.2435 33.2053 30.8287 34.806C30.7386 35.1551 30.7909 35.5257 30.974 35.8363C31.1571 36.1468 31.4561 36.3719 31.8052 36.4621C32.1543 36.5522 32.5249 36.4999 32.8355 36.3168C33.146 36.1337 33.3711 35.8347 33.4612 35.4856C33.727 34.4692 34.3224 33.5698 35.1542 32.928C35.9859 32.2863 37.007 31.9386 38.0576 31.9394C39.1081 31.9402 40.1287 32.2894 40.9595 32.9323C41.7903 33.5753 42.3843 34.4756 42.6486 35.4924C42.7369 35.842 42.9605 36.1422 43.2702 36.327C43.5799 36.5118 43.9503 36.566 44.2999 36.4777C44.6495 36.3894 44.9498 36.1658 45.1346 35.8561C45.3193 35.5464 45.3735 35.176 45.2852 34.8264C44.8777 33.2198 43.9449 31.7955 42.6352 30.7797C41.3254 29.764 39.7138 29.2151 38.0563 29.2202ZM38.0563 9.51355C38.4167 9.51355 38.7624 9.37037 39.0173 9.11549C39.2722 8.86061 39.4154 8.51493 39.4154 8.15448V1.35908C39.4154 0.998629 39.2722 0.652942 39.0173 0.398065C38.7624 0.143189 38.4167 0 38.0563 0C37.6958 0 37.3502 0.143189 37.0953 0.398065C36.8404 0.652942 36.6972 0.998629 36.6972 1.35908V8.15448C36.6972 8.51493 36.8404 8.86061 37.0953 9.11549C37.3502 9.37037 37.6958 9.51355 38.0563 9.51355ZM13.8647 13.0472C14.081 13.3355 14.4029 13.5262 14.7597 13.5771C15.1166 13.6281 15.479 13.5352 15.7674 13.319C16.0558 13.1027 16.2464 12.7807 16.2974 12.4239C16.3483 12.0671 16.2555 11.7046 16.0392 11.4163L11.962 5.97995C11.7457 5.69159 11.4237 5.50095 11.0669 5.44998C10.7101 5.399 10.3476 5.49186 10.0593 5.70813C9.7709 5.9244 9.58027 6.24637 9.52929 6.60319C9.47831 6.96002 9.57118 7.32248 9.78745 7.61084L13.8647 13.0472ZM61.1593 13.5908C61.3703 13.591 61.5785 13.542 61.7672 13.4476C61.956 13.3532 62.1201 13.2161 62.2465 13.0472L66.3238 7.61084C66.5281 7.32198 66.6116 6.96484 66.5568 6.61533C66.5019 6.26582 66.3129 5.95148 66.0299 5.73912C65.7469 5.52676 65.3923 5.43311 65.0414 5.47808C64.6904 5.52305 64.3709 5.70309 64.1506 5.97995L60.0734 11.4163C59.9219 11.6182 59.8297 11.8583 59.807 12.1097C59.7844 12.361 59.8322 12.6138 59.945 12.8395C60.0579 13.0653 60.2314 13.2551 60.4461 13.3878C60.6608 13.5205 60.9069 13.5908 61.1593 13.5908Z" fill="white"/>
<path d="M52.5282 41.7781C52.8287 41.7779 53.1206 41.6782 53.3584 41.4945C53.5962 41.3108 53.7664 41.0535 53.8424 40.7628C54.4498 38.4194 54.5265 35.9699 54.0668 33.593C53.6071 31.2162 52.6227 28.9719 51.1854 27.0239C51.0698 26.8705 50.9231 26.7432 50.755 26.6503C50.5869 26.5573 50.4011 26.5008 50.2097 26.4844C50.0183 26.468 49.8256 26.492 49.6441 26.555C49.4626 26.618 49.2964 26.7185 49.1563 26.8499C48.7852 27.1991 48.2932 27.391 47.7837 27.3854C47.2432 27.3847 46.7251 27.1697 46.3429 26.7875C45.9608 26.4053 45.7458 25.8872 45.7451 25.3468C45.6703 24.5313 46.5401 23.9374 46.2887 23.1125C46.2419 22.9276 46.1567 22.7546 46.0387 22.6047C45.9207 22.4549 45.7725 22.3315 45.6037 22.2426C42.8091 20.7815 39.6508 20.1622 36.5114 20.4597C33.3719 20.7572 30.3862 21.9589 27.9158 23.919C25.4455 25.8791 23.5967 28.5136 22.5933 31.5032C21.59 34.4928 21.4752 37.7093 22.2629 40.7628C22.3578 41.1072 22.5845 41.4004 22.8939 41.5789C23.2034 41.7574 23.5706 41.8069 23.9163 41.7167C24.2619 41.6265 24.5582 41.4038 24.7409 41.0968C24.9236 40.7899 24.9782 40.4233 24.8927 40.0765C24.6035 38.9727 24.4587 37.8361 24.4619 36.6951C24.4798 34.4723 25.0395 32.2874 26.0927 30.3299C27.1458 28.3724 28.6606 26.7012 30.5056 25.4614C32.3505 24.2216 34.4701 23.4506 36.6804 23.2151C38.8908 22.9796 41.1252 23.2868 43.19 24.11C42.9584 24.9775 42.9767 25.8928 43.2427 26.7504C43.5086 27.6079 44.0115 28.3729 44.6933 28.9571C45.3751 29.5414 46.2081 29.9211 47.0963 30.0525C47.9845 30.1839 48.8918 30.0617 49.7136 29.6999C50.9863 31.8105 51.654 34.2305 51.6435 36.6951C51.9683 38.3233 49.9827 41.5117 52.5282 41.7781Z" fill="white"/>
</svg>
