<svg width="40" height="40" viewBox="0 0 40 40" fill="none" xmlns="http://www.w3.org/2000/svg">
<path d="M16.5342 29.4286C16.4108 29.4286 16.2874 29.3669 16.164 29.3052L14.3132 27.8862C14.1898 27.7628 14.1281 27.6394 14.0664 27.4543C14.0664 27.2693 14.0664 27.1459 14.1898 27.0225L20.9763 18.2618C21.1613 18.015 21.5932 17.9533 21.84 18.1384L23.6908 19.5574C23.8142 19.6808 23.8759 19.8041 23.9376 19.9892C23.9376 20.1743 23.9376 20.2977 23.8142 20.4211L17.0278 29.1818C16.9044 29.3669 16.7193 29.4286 16.5342 29.4286ZM15.4854 27.2693L16.4108 27.9479L22.3952 20.1743L21.4698 19.4957L15.4854 27.2693Z" fill="white"/>
<path d="M27.2074 36.4C26.8373 36.4 26.4671 36.2766 26.0969 36.0299L20.2976 31.5878C19.9891 31.341 19.5572 30.9709 19.1871 30.6007L18.8786 30.2922C17.7681 29.1817 17.0277 28.5031 16.8426 28.0712C16.7193 27.8861 16.781 27.5776 16.9043 27.3925L22.0867 20.6678C22.2718 20.421 22.7037 20.3593 22.9505 20.5444L23.8142 21.223C23.9376 21.2847 24.061 21.3464 24.1844 21.3464C24.6162 21.2847 25.1098 21.4081 25.48 21.7166L25.665 21.84C25.9118 22.0251 25.9735 22.4569 25.7884 22.7037C25.6034 22.9505 25.1715 23.0122 24.9247 22.8271L24.6779 22.642C24.5545 22.5803 24.4311 22.5186 24.3078 22.5186C23.8759 22.5803 23.3823 22.4569 23.0122 22.1485L22.642 21.84L18.0766 27.7627C18.5084 28.2563 19.3105 29.0583 19.6806 29.3668C19.804 29.4902 19.9274 29.6136 20.0508 29.6753C20.421 30.0454 20.7911 30.3539 21.0379 30.539L26.8373 34.981C27.084 35.1661 27.4542 35.1044 27.6393 34.8576C27.8244 34.6109 27.7627 34.2407 27.5159 34.0556L26.6522 33.377C26.4054 33.1919 26.3437 32.76 26.5288 32.5132C26.7139 32.2665 27.1457 32.2048 27.3925 32.3898L28.2562 33.0685C29.0583 33.6854 29.1817 34.796 28.5647 35.598C28.2562 36.1532 27.701 36.4 27.2074 36.4ZM33.9939 32.5749C33.6237 32.5749 33.1918 32.4515 32.8834 32.2048L29.0583 29.2434C28.8115 29.0583 28.7498 28.6264 28.9349 28.3797C29.12 28.1329 29.5518 28.0712 29.7986 28.2563L33.6237 31.2176C33.7471 31.341 33.8705 31.341 34.0556 31.341C34.179 31.341 34.3641 31.2176 34.4258 31.0942C34.6108 30.8475 34.5491 30.4773 34.3024 30.2922L27.3308 24.9247C27.084 24.7397 27.0223 24.3078 27.2074 24.061C27.3925 23.8142 27.8244 23.7525 28.0712 23.9376L35.0427 29.3051C35.8447 29.922 35.9681 31.0326 35.3512 31.8346C35.0427 32.2048 34.6108 32.4515 34.179 32.5132C34.1173 32.5749 34.0556 32.5749 33.9939 32.5749Z" fill="white"/>
<path d="M29.2436 34.9195C28.8734 34.9195 28.4416 34.7961 28.1331 34.5493L26.4673 33.3154C26.2206 33.1303 26.1589 32.6984 26.3439 32.4517C26.529 32.2049 26.9609 32.1432 27.2077 32.3283L28.8734 33.6239C29.1202 33.809 29.4904 33.7473 29.6755 33.5005C29.8606 33.2537 29.7989 32.8835 29.5521 32.6984L27.8863 31.4028C27.6395 31.2178 27.5778 30.7859 27.7629 30.5391C27.948 30.2923 28.3799 30.2306 28.6267 30.4157L30.2924 31.7113C31.0945 32.3283 31.2179 33.4388 30.6009 34.2408C30.2924 34.6727 29.7989 34.9195 29.2436 34.9195Z" fill="white"/>
<path d="M31.4026 33.6239C31.0324 33.6239 30.6006 33.5005 30.2921 33.2537L28.5646 31.8964C28.3179 31.7113 28.2562 31.2795 28.4413 31.0327C28.6263 30.7859 29.0582 30.7242 29.305 30.9093L31.0324 32.2666C31.2792 32.4517 31.6494 32.39 31.8345 32.1432C32.0196 31.8964 31.9579 31.5263 31.7111 31.3412L29.6752 29.7988C29.4284 29.6137 29.3667 29.1819 29.5518 28.9351C29.7368 28.6883 30.1687 28.6266 30.4155 28.8117L32.4514 30.3541C33.2535 30.971 33.3769 32.0815 32.7599 32.8836C32.5131 33.3771 31.9579 33.6239 31.4026 33.6239ZM26.2202 28.6883C26.1585 28.6883 26.0351 28.6883 25.9734 28.6266C25.8501 28.5649 25.7267 28.4415 25.665 28.2564L24.4928 25.2334C23.9992 23.9378 24.4311 22.4571 25.4799 21.5934L27.0223 20.4211C27.6392 19.9276 28.4413 19.6808 29.1816 19.6808H29.7368C30.2304 19.6808 30.6623 19.5574 31.0324 19.2489L31.5877 18.8788C31.8962 18.6937 32.2663 18.7554 32.4514 19.0639C32.6365 19.3723 32.5748 19.7425 32.2663 19.9276L31.7111 20.2978C31.0941 20.7296 30.4155 20.9147 29.6752 20.9147H29.1199C28.6263 20.9147 28.0711 21.0998 27.7009 21.4083L26.1585 22.5805C25.4799 23.074 25.2331 23.9995 25.5416 24.8015L26.5287 27.1459C27.084 26.6524 27.3307 25.912 27.1457 25.1717L27.0223 24.7398C26.9606 24.4313 27.1457 24.0612 27.4541 23.9995C27.7626 23.9378 28.1328 24.1229 28.1945 24.4313L28.3179 24.8632C28.7497 26.4056 27.9477 28.0096 26.4053 28.6266C26.3436 28.6883 26.2819 28.6883 26.2202 28.6883Z" fill="white"/>
<path d="M36.5236 29.5519C36.2769 29.5519 36.0918 29.4285 35.9684 29.1817L30.9711 18.5702C30.9094 18.4468 30.9094 18.2617 30.9711 18.0766C31.0328 17.8915 31.1562 17.7681 31.2796 17.7065L33.624 16.6576C33.9324 16.5342 34.3026 16.6576 34.426 16.9661L39.4233 27.5777C39.485 27.7011 39.485 27.8861 39.4233 28.0712C39.3616 28.2563 39.2382 28.3797 39.1148 28.4414L36.7704 29.4902C36.7087 29.5519 36.647 29.5519 36.5236 29.5519ZM32.3901 18.6319L36.8321 28.1329L38.0043 27.5777L33.5623 18.0766L32.3901 18.6319Z" fill="white"/>
<path d="M34.3023 29.7988C34.0555 29.7988 33.8704 29.6754 33.747 29.4286C33.6236 29.1201 33.747 28.75 34.0555 28.6266L35.9681 27.7628C36.2765 27.6395 36.6467 27.7628 36.7701 28.0713C36.8935 28.3798 36.7701 28.75 36.4616 28.8734L34.5491 29.7371C34.4874 29.7988 34.4257 29.7988 34.3023 29.7988ZM27.0223 39.4849H6.84797C5.05881 39.4849 3.57812 38.0042 3.57812 36.2151V6.84821C3.57812 5.05905 5.05881 3.57837 6.84797 3.57837H27.0223C28.8114 3.57837 30.2921 5.05905 30.2921 6.84821V19.7425C30.2921 20.1127 30.0453 20.3594 29.6752 20.3594C29.305 20.3594 29.0582 20.1127 29.0582 19.7425V6.84821C29.0582 5.7377 28.1328 4.81227 27.0223 4.81227H6.84797C5.73745 4.81227 4.81203 5.7377 4.81203 6.84821V36.2151C4.81203 37.3256 5.73745 38.251 6.84797 38.251H27.0223C28.1328 38.251 29.0582 37.3256 29.0582 36.2151V34.3642C29.0582 33.9941 29.305 33.7473 29.6752 33.7473C30.0453 33.7473 30.2921 33.9941 30.2921 34.3642V36.2151C30.2921 38.0042 28.8114 39.4849 27.0223 39.4849Z" fill="white"/>
<path d="M4.19527 35.9065H3.26984C1.48068 35.9065 0 34.4259 0 32.6367V3.26984C0 1.48068 1.48068 0 3.26984 0H23.4441C25.2333 0 26.714 1.48068 26.714 3.26984V4.19527C26.714 4.56544 26.4672 4.81222 26.097 4.81222H6.84816C5.73764 4.81222 4.81222 5.73764 4.81222 6.84816V35.2896C4.81222 35.5981 4.56544 35.9065 4.19527 35.9065ZM3.26984 1.2339C2.15933 1.2339 1.2339 2.15933 1.2339 3.26984V32.6367C1.2339 33.7472 2.15933 34.6726 3.26984 34.6726H3.57832V6.84816C3.57832 5.059 5.059 3.57832 6.84816 3.57832H25.4801V3.26984C25.4801 2.15933 24.5546 1.2339 23.4441 1.2339H3.26984Z" fill="white"/>
<path d="M22.2104 9.37772C21.4083 9.37772 20.668 8.94585 20.2361 8.2672H13.7582C13.3263 8.94585 12.586 9.37772 11.7839 9.37772C10.7968 9.37772 9.93306 8.76077 9.62459 7.83534C9.5012 7.52686 9.68628 7.15669 9.99476 7.0333C10.3032 6.90991 10.6734 7.095 10.7968 7.40347C10.9819 7.83534 11.352 8.08212 11.7839 8.08212C12.2158 8.08212 12.6476 7.77364 12.8327 7.34178C12.8944 7.095 13.1412 6.90991 13.388 6.90991H20.6063C20.8531 6.90991 21.0999 7.095 21.1616 7.34178C21.3467 7.77364 21.7168 8.08212 22.2104 8.08212C22.6423 8.08212 23.0741 7.77364 23.1975 7.34178C23.3209 7.0333 23.6911 6.84822 23.9995 6.97161C24.308 7.095 24.4931 7.46517 24.3697 7.77364C24.0612 8.76077 23.1975 9.37772 22.2104 9.37772Z" fill="white"/>
<path d="M20.1123 12.5241C19.9889 12.5241 19.8655 12.4624 19.8038 12.4007C19.4954 12.2156 19.4337 11.8454 19.6188 11.537L21.6547 8.39051C21.7781 8.20542 21.9632 8.08203 22.21 8.08203C22.4567 8.08203 22.6418 8.20542 22.7035 8.39051L24.431 11.537C24.6161 11.8454 24.4927 12.2156 24.1842 12.4007C23.8757 12.5858 23.5055 12.4624 23.3205 12.1539L22.1483 9.93288L20.6676 12.2156C20.5442 12.4624 20.2974 12.5241 20.1123 12.5241Z" fill="white"/>
<path d="M21.9637 15.2387C20.2362 15.2387 18.8172 13.8197 18.8172 12.0922C18.8172 11.722 19.064 11.4753 19.4342 11.4753H24.4315C24.8017 11.4753 25.0484 11.722 25.0484 12.0922C25.1101 13.8197 23.6912 15.2387 21.9637 15.2387ZM20.1745 12.7092C20.4213 13.4495 21.1617 14.0048 21.9637 14.0048C22.7657 14.0048 23.5061 13.4495 23.7528 12.7092H20.1745ZM9.74806 12.5241C9.62467 12.5241 9.50128 12.4624 9.43959 12.4007C9.13111 12.2156 9.06942 11.8454 9.2545 11.537L11.2904 8.39051C11.4138 8.20542 11.5989 8.08203 11.8457 8.08203C12.0925 8.08203 12.2776 8.20542 12.3393 8.39051L14.0667 11.537C14.2518 11.8454 14.1284 12.2156 13.8199 12.4007C13.5115 12.5858 13.1413 12.4624 12.9562 12.1539L11.7223 9.99458L10.2416 12.2773C10.1799 12.4624 9.99484 12.5241 9.74806 12.5241Z" fill="white"/>
<path d="M11.5986 15.2386C9.87114 15.2386 8.45215 13.8196 8.45215 12.0921C8.45215 11.722 8.69893 11.4752 9.0691 11.4752H14.0664C14.4366 11.4752 14.6834 11.722 14.6834 12.0921C14.745 13.8196 13.3261 15.2386 11.5986 15.2386ZM9.80944 12.7091C10.0562 13.4494 10.7966 14.0047 11.5986 14.0047C12.4006 14.0047 13.141 13.4494 13.3878 12.7091H9.80944ZM16.8427 17.8298C16.4725 17.8298 16.2257 17.583 16.2257 17.2128V6.97144C16.2257 6.60127 16.4725 6.35449 16.8427 6.35449C17.2129 6.35449 17.4596 6.60127 17.4596 6.97144V17.2128C17.4596 17.5213 17.2129 17.8298 16.8427 17.8298Z" fill="white"/>
<path d="M18.3859 17.8298H15.3628C14.9926 17.8298 14.7459 17.5831 14.7459 17.2129C14.7459 16.8427 14.9926 16.5959 15.3628 16.5959H18.3859C18.756 16.5959 19.0028 16.8427 19.0028 17.2129C19.0028 17.5831 18.6943 17.8298 18.3859 17.8298ZM15.3628 21.7166H9.1316C8.76143 21.7166 8.51465 21.4699 8.51465 21.0997C8.51465 20.7295 8.76143 20.4827 9.1316 20.4827H15.3628C15.733 20.4827 15.9798 20.7295 15.9798 21.0997C15.9798 21.4699 15.6713 21.7166 15.3628 21.7166ZM13.8204 25.295H9.1316C8.76143 25.295 8.51465 25.0482 8.51465 24.678C8.51465 24.3078 8.76143 24.0611 9.1316 24.0611H13.8204C14.1906 24.0611 14.4374 24.3078 14.4374 24.678C14.4374 25.0482 14.1289 25.295 13.8204 25.295ZM12.7099 28.8116H9.1316C8.76143 28.8116 8.51465 28.5648 8.51465 28.1946C8.51465 27.8245 8.76143 27.5777 9.1316 27.5777H12.7099C13.0801 27.5777 13.3269 27.8245 13.3269 28.1946C13.3269 28.5648 13.0184 28.8116 12.7099 28.8116ZM15.6713 32.3282H9.1316C8.76143 32.3282 8.51465 32.0814 8.51465 31.7112C8.51465 31.3411 8.76143 31.0943 9.1316 31.0943H15.6713C16.0415 31.0943 16.2882 31.3411 16.2882 31.7112C16.2882 32.0814 15.9798 32.3282 15.6713 32.3282ZM20.4218 35.9065H9.1316C8.76143 35.9065 8.51465 35.6597 8.51465 35.2896C8.51465 34.9194 8.76143 34.6726 9.1316 34.6726H20.4218C20.792 34.6726 21.0388 34.9194 21.0388 35.2896C21.0388 35.6597 20.7303 35.9065 20.4218 35.9065Z" fill="white"/>
</svg>
