<svg width="68" height="75" viewBox="0 0 68 75" fill="none" xmlns="http://www.w3.org/2000/svg">
<path d="M14.7992 67.561C15.4415 67.5611 15.9621 68.0896 15.9621 68.7417V73.8191C15.9621 74.4712 15.4415 74.9999 14.7992 74.9999H4.68086C4.03854 74.9999 3.5178 74.4712 3.5178 73.8191V68.7417C3.51782 68.0896 4.03855 67.561 4.68086 67.561H14.7992ZM32.1283 62.3655C32.7706 62.3655 33.2912 62.8942 33.2912 63.5463V73.8191C33.2912 74.4712 32.7706 74.9999 32.1283 74.9999H22.0099C21.3676 74.9999 20.8469 74.4712 20.8469 73.8191V63.5463C20.8469 62.8942 21.3676 62.3655 22.0099 62.3655H32.1283ZM49.341 57.1699C49.9833 57.1699 50.504 57.6986 50.504 58.3508V73.8191C50.504 74.4712 49.9833 74.9999 49.341 74.9999H39.2228C38.5804 74.9999 38.0597 74.4712 38.0597 73.8191V58.3508C38.0597 57.6986 38.5804 57.1699 39.2228 57.1699H49.341ZM66.5538 49.3768C67.1961 49.3768 67.7168 49.9054 67.7169 50.5575V73.8191C67.7169 74.4712 67.1961 74.9999 66.5538 74.9999H56.4354C55.7931 74.9999 55.2724 74.4712 55.2724 73.8191V50.5575C55.2724 49.9054 55.7931 49.3769 56.4354 49.3768H66.5538ZM57.5985 72.6384H65.3907V51.7383H57.5985V72.6384ZM40.3857 72.6384H48.1781V59.5316H40.3857V72.6384ZM23.173 72.6384H30.9652V64.727H23.173V72.6384ZM5.84392 72.6384H13.6362V69.9225H5.84392V72.6384ZM55.2255 30.9892C55.5247 30.6547 55.9856 30.523 56.4127 30.6497L66.7636 33.7196C67.1077 33.8217 67.3862 34.0793 67.5185 34.4176C67.6507 34.756 67.6219 35.1373 67.4403 35.4512L61.974 44.8975C61.7492 45.2859 61.3263 45.5108 60.8837 45.4769C60.4412 45.443 60.0562 45.1563 59.8914 44.738L59.1618 42.8862L5.00046 65.1133C4.71439 65.2307 4.39403 65.2279 4.11001 65.1054C3.826 64.983 3.6015 64.751 3.48603 64.4605L0.811016 57.7299C0.695481 57.4391 0.698609 57.1137 0.819654 56.8252C0.94073 56.5368 1.1699 56.3089 1.45653 56.1922L55.7382 34.0784L55.0068 32.2216C54.8415 31.8021 54.9264 31.3236 55.2255 30.9892ZM58.3294 34.2965C58.5677 34.9015 58.2783 35.5881 57.6827 35.8308L3.40418 57.9432L5.20748 62.481L59.3724 40.2526C59.659 40.135 59.98 40.1381 60.2644 40.2613C60.5488 40.3844 60.7733 40.6174 60.8881 40.9089L61.1701 41.6246L64.6786 35.5614L58.0535 33.5965L58.3294 34.2965ZM20.7261 26.9481C21.3449 26.8825 21.901 27.3224 21.9959 27.9396L22.0036 27.9999L22.8178 35.9112C22.8461 36.1862 22.7783 36.4626 22.6264 36.6922L17.4083 44.5798C17.1646 44.984 17.265 45.399 17.5807 45.6291C17.6298 45.6508 17.6898 45.674 17.7502 45.6924C17.7904 45.7046 17.8213 45.7119 17.8411 45.7156C17.8444 45.7162 17.847 45.7165 17.849 45.7168C17.9044 45.718 17.9596 45.7232 18.0142 45.7324C18.1881 45.7618 18.4823 45.6855 18.75 45.3638L24.1803 37.0352L24.1825 37.032C24.2349 36.9521 24.3278 36.649 24.3352 36.3122L23.875 30.8205L23.8714 30.7598C23.8503 30.1355 24.3151 29.5973 24.9351 29.5438C25.5551 29.4902 26.1029 29.9408 26.1861 30.5597L26.1926 30.6202L26.6578 36.1698C26.6606 36.2031 26.662 36.2366 26.662 36.27C26.662 36.8613 26.5284 37.7167 26.1178 38.342L26.1177 38.3418L20.6536 46.7224C20.6344 46.7519 20.6139 46.7806 20.5921 46.8083C19.9507 47.6223 18.8966 48.2393 17.7135 48.0743C17.2492 48.0472 16.7653 47.8575 16.4888 47.7171C16.4558 47.7004 16.4238 47.682 16.3926 47.6622C14.8847 46.7054 14.5401 44.7831 15.4412 43.3193L15.462 43.2868L20.4604 35.7307L19.6901 28.2452C19.6234 27.5966 20.0873 27.0159 20.7261 26.9481Z" fill="white"/>
<path d="M21.8799 11.062C23.1488 10.8089 24.439 10.7962 25.6325 11.0425L25.7477 11.0671L25.7618 11.0704L29.7311 12.0018L29.7468 12.0056C31.3282 12.3999 32.828 13.1992 33.9432 14.4442L36.4896 17.2145C37.1004 17.8177 37.8547 18.1416 38.6864 18.1416H41.0756C42.5614 17.9968 44.0178 18.9456 44.379 20.5668C44.3975 20.6497 44.4069 20.7345 44.4069 20.8195V20.8797C44.55 22.4973 43.4413 23.9995 41.734 24.1887C41.7088 24.1915 41.6834 24.1934 41.658 24.1946L39.0897 24.3111C39.072 24.3119 39.0543 24.3123 39.0366 24.3123C36.682 24.3122 34.3043 23.5301 32.4398 21.9363C32.4359 21.933 32.4321 21.9297 32.4283 21.9263L31.0113 20.6827L29.7319 26.7433L32.7212 28.4203L32.7593 28.4426C32.7718 28.4503 32.7842 28.4582 32.7965 28.4664C33.5053 28.9377 34.0595 29.6043 34.3831 30.3302C34.6882 31.0148 34.8255 31.848 34.564 32.6455L32.9452 41.0642C32.921 41.1902 32.876 41.3113 32.8122 41.4226C32.0839 42.6937 30.5421 43.3377 29.1206 42.7301C27.7682 42.1521 27.0448 40.6576 27.3868 39.2084L28.486 33.2286L21.8538 30.8881C20.1011 30.344 19.1535 28.6206 19.3118 26.8846C19.3156 26.8426 19.3218 26.8008 19.3301 26.7595L21.1819 17.6226L20.1738 17.8739C19.536 18.033 19.0162 18.4146 18.7169 19.0116L17.4492 21.54C17.0629 22.4517 16.3033 23.0303 15.5041 23.2296C15.2072 23.3036 14.8699 23.3609 14.4958 23.3342C14.1314 23.3083 13.7948 23.2074 13.4669 23.0503C11.9149 22.4291 11.1966 20.5381 11.9586 19.018L11.9861 18.9666L14.5544 14.426L14.5577 14.4204C15.162 13.3657 16.1058 12.5627 17.3755 12.242L21.8117 11.0778L21.8799 11.062ZM25.2357 13.3389C24.3699 13.1479 23.381 13.1416 22.3689 13.3393L17.9697 14.494C17.9651 14.4952 17.9604 14.4964 17.9557 14.4975C17.3666 14.6444 16.9153 15.0019 16.5881 15.5701L14.0398 20.0749C13.8958 20.3854 14.0653 20.7675 14.3214 20.8831L14.3468 20.8935L14.4035 20.9165C14.4222 20.9246 14.4407 20.9332 14.4589 20.9423C14.5816 21.0034 14.6373 21.0098 14.6622 21.0116C14.6966 21.0141 14.768 21.0129 14.9379 20.9706C15.0566 20.941 15.2161 20.8404 15.3045 20.6198L15.3235 20.5753C15.3301 20.5606 15.337 20.546 15.3442 20.5316L16.6284 17.9701C17.263 16.7042 18.3776 15.9216 19.6076 15.6149L22.4094 14.9164C22.7981 14.8195 23.2094 14.9281 23.499 15.2041C23.7887 15.4801 23.9163 15.8849 23.8369 16.2765L21.6332 27.149C21.5843 27.9098 21.9875 28.4689 22.5091 28.6522L22.615 28.6868L30.2035 31.3645C30.7441 31.5554 31.0656 32.1096 30.9622 32.6722L29.6781 39.6578C29.6736 39.6821 29.6683 39.7062 29.6623 39.7302C29.562 40.1306 29.7717 40.475 30.0403 40.5898C30.2247 40.6686 30.4938 40.6381 30.6962 40.3955L32.2865 32.1265L32.2968 32.0783C32.3081 32.0304 32.3225 31.9832 32.3398 31.937C32.378 31.8357 32.3974 31.608 32.2495 31.276C32.1101 30.9633 31.8577 30.6497 31.5301 30.4237L27.8407 28.3541C27.3964 28.1049 27.1657 27.597 27.2707 27.0995L29.1386 18.251L29.1472 18.2132C29.2426 17.8255 29.5312 17.5125 29.9128 17.386C30.3067 17.2555 30.7405 17.3434 31.0522 17.6169L33.9613 20.17C35.3603 21.3651 37.1765 21.979 39.0171 21.9833L41.5041 21.8705C41.859 21.817 42.1281 21.5036 42.0792 21.0644C42.0759 21.0351 42.0741 21.0057 42.073 20.9763C41.9461 20.5974 41.6103 20.4203 41.2828 20.4611C41.2348 20.4671 41.1864 20.47 41.1381 20.47H38.6864C37.1891 20.47 35.847 19.8671 34.8256 18.8484C34.8136 18.8365 34.802 18.8242 34.7906 18.8118L32.2221 16.0175C32.2181 16.0132 32.2142 16.0088 32.2102 16.0043C31.4598 15.1624 30.3983 14.5691 29.1856 14.2658L25.2357 13.3389ZM24.5883 3.91769C25.2005 1.17034 27.9444 -0.476856 30.651 0.122964C33.4057 0.733502 35.0574 3.47005 34.456 6.16923C33.8438 8.91655 31.0998 10.5636 28.3933 9.9638C25.6385 9.35328 23.9869 6.61686 24.5883 3.91769ZM30.1444 2.39605C28.6481 2.06447 27.1893 2.97871 26.8676 4.42275C26.5351 5.91496 27.4518 7.36981 28.8997 7.69072C30.396 8.02232 31.8548 7.10807 32.1766 5.66401C32.5091 4.17181 31.5923 2.71695 30.1444 2.39605Z" fill="white"/>
<path d="M10.2623 19.8202C10.8199 18.9908 11.9913 18.6327 12.9431 19.2268L12.9882 19.2559L13.0423 19.2938L13.519 19.6485C14.0457 20.0402 14.1525 20.7812 13.7575 21.3036C13.3748 21.8096 12.6616 21.9248 12.1386 21.5753L12.0886 21.5401L12.0311 21.4974L11.3119 22.71L14.4994 24.5897L15.2768 23.279L15.0515 23.1449C14.487 22.8089 14.3039 22.0828 14.6425 21.523C14.9813 20.9631 15.7135 20.7815 16.2781 21.1174L16.8741 21.4721L16.922 21.5021C17.7604 22.0565 18.121 23.2226 17.5156 24.1678L16.5486 25.7982L17.2277 26.1987L17.2797 26.2311C18.8567 27.2738 19.3818 29.2243 18.5191 30.9355C18.5019 30.9697 18.4829 31.0032 18.4624 31.0356L15.2699 36.0777C14.3394 37.8414 12.1522 38.3828 10.509 37.3245L1.70436 32.1324C1.68678 32.122 1.66946 32.1112 1.65244 32.1C0.0753988 31.0573 -0.44984 29.1067 0.412917 27.3954L0.435126 27.3534C0.442809 27.3396 0.4509 27.326 0.459136 27.3125L3.5584 22.2288L3.58676 22.1846C4.62171 20.6451 6.54356 20.1163 8.24923 20.9163L8.33026 20.9555L8.36868 20.9754C8.38136 20.9823 8.39392 20.9894 8.40634 20.9967L9.26261 21.5017L10.2266 19.8766C10.238 19.8575 10.2499 19.8387 10.2623 19.8202ZM2.52926 28.4864C2.22647 29.1209 2.41165 29.7482 2.95589 30.1195L11.7442 35.302L11.7961 35.3344C12.2769 35.6523 12.8951 35.5032 13.168 34.9618C13.1852 34.9276 13.2042 34.8943 13.2247 34.8619L14.9691 32.1065L4.21252 25.7257L2.52926 28.4864ZM7.233 23.0557C6.59071 22.7528 5.95541 22.9378 5.5808 23.4814L5.44604 23.7022L16.2373 30.1036L16.4073 29.8351C16.7037 29.2039 16.5177 28.5812 15.9763 28.2117L7.233 23.0557ZM15.5073 22.8941C15.502 22.9021 15.4969 22.9101 15.4922 22.9181C15.4973 22.9101 15.5021 22.9019 15.5073 22.8941Z" fill="white"/>
</svg>
