<svg width="70" height="69" viewBox="0 0 70 69" fill="none" xmlns="http://www.w3.org/2000/svg">
<path d="M46.3506 54.3156L40.0419 52.2119C47.8569 47.2882 44.3507 34.8858 34.982 34.8933C25.6133 34.8933 22.1071 47.2807 29.9233 52.2119L23.6146 54.3156C22.0012 54.8519 20.5977 55.8829 19.6037 57.2623C18.6096 58.6416 18.0755 60.2991 18.0772 61.9993V65.543C18.0781 66.3931 18.4163 67.208 19.0173 67.8091C19.6184 68.4101 20.4333 68.7483 21.2834 68.7492H48.6806C49.531 68.7486 50.3464 68.4107 50.9479 67.8096C51.5494 67.2085 51.888 66.3934 51.8893 65.543V61.9993C51.8912 60.299 51.3571 58.6415 50.363 57.2621C49.3689 55.8827 47.9642 54.8517 46.3506 54.3156ZM28.0783 44.297C28.3683 35.1721 41.5982 35.1758 41.8869 44.297C41.5969 53.4219 28.3671 53.4194 28.0783 44.297ZM49.3881 65.543C49.3879 65.6359 49.3695 65.7279 49.3338 65.8137C49.2981 65.8995 49.2458 65.9774 49.18 66.0429C49.1142 66.1085 49.0361 66.1605 48.9502 66.1959C48.8643 66.2313 48.7723 66.2494 48.6794 66.2493H21.2834C21.0962 66.2489 20.9167 66.1744 20.7843 66.0421C20.652 65.9097 20.5775 65.7302 20.5771 65.543V61.9993C20.5757 60.8239 20.9448 59.6779 21.6319 58.7242C22.319 57.7705 23.2892 57.0576 24.4046 56.6869L31.822 54.2144C33.8744 53.5356 36.0908 53.5356 38.1432 54.2144L45.5594 56.6869C46.6752 57.0574 47.6458 57.7701 48.3334 58.7238C49.0209 59.6775 49.3904 60.8236 49.3894 61.9993L49.3881 65.543ZM65.3567 53.6006L60.7242 52.0594C62.0579 51.085 63.0492 49.7139 63.5566 48.1421C64.0639 46.5703 64.0612 44.8783 63.5488 43.3081C63.0364 41.738 62.0407 40.37 60.7039 39.4C59.3671 38.4299 57.7579 37.9074 56.1062 37.9072C54.4546 37.9069 52.8451 38.429 51.5081 39.3987C50.1711 40.3684 49.1749 41.7361 48.6622 43.3061C48.1494 44.8762 48.1462 46.5681 48.6531 48.1401C49.16 49.712 50.151 51.0834 51.4843 52.0582C51.3243 52.1018 51.1744 52.1768 51.0436 52.2789C50.9128 52.381 50.8036 52.5081 50.7224 52.6528C50.6412 52.7974 50.5895 52.9568 50.5705 53.1217C50.5514 53.2865 50.5653 53.4535 50.6114 53.6129C50.6575 53.7723 50.7348 53.9209 50.8389 54.0501C50.943 54.1794 51.0717 54.2866 51.2176 54.3656C51.3635 54.4446 51.5237 54.4938 51.6888 54.5104C51.8539 54.5269 52.0207 54.5104 52.1793 54.4619C53.4154 53.951 54.7288 53.6522 56.0643 53.5781C57.858 53.4319 62.8105 55.4844 64.5642 55.9719C65.419 56.2583 66.1623 56.806 66.6892 57.5376C67.216 58.2692 67.4998 59.1478 67.5004 60.0493V62.8993C67.5008 62.9868 67.4671 63.071 67.4064 63.134C67.3457 63.197 67.2629 63.2339 67.1754 63.2368H55.638C55.3065 63.2368 54.9886 63.3685 54.7542 63.6029C54.5198 63.8373 54.3881 64.1553 54.3881 64.4868C54.3881 64.8183 54.5198 65.1362 54.7542 65.3707C54.9886 65.6051 55.3065 65.7368 55.638 65.7368H67.1754C67.926 65.7341 68.6449 65.4339 69.1745 64.902C69.7041 64.3701 70.0011 63.6499 70.0004 62.8993V60.0493C70.0002 58.6233 69.5517 57.2334 68.7184 56.0762C67.885 54.919 66.7091 54.053 65.3567 53.6006ZM56.1168 51.0794C54.7017 51.0811 53.3439 50.5205 52.3421 49.5211C51.3404 48.5216 50.7766 47.1652 50.775 45.7501C50.7733 44.335 51.3339 42.9772 52.3333 41.9754C53.3327 40.9736 54.6892 40.4099 56.1043 40.4083C56.805 40.4074 57.4989 40.5446 58.1466 40.812C58.7943 41.0794 59.3829 41.4717 59.8789 41.9666C60.375 42.4615 60.7687 43.0492 61.0376 43.6962C61.3065 44.3433 61.4453 45.0369 61.4461 45.7376C61.4469 46.4383 61.3097 47.1322 61.0424 47.7799C60.775 48.4276 60.3827 49.0162 59.8878 49.5122C59.3929 50.0083 58.8052 50.402 58.1582 50.6709C57.5111 50.9398 56.8175 51.0786 56.1168 51.0794Z" fill="#A61B28"/>
<path d="M19.3758 53.6495C19.428 53.4889 19.4472 53.3193 19.4322 53.151C19.4172 52.9827 19.3682 52.8191 19.2884 52.6702C19.2085 52.5214 19.0993 52.3902 18.9674 52.2846C18.8355 52.179 18.6836 52.1012 18.5208 52.0558C19.8551 51.0799 20.8467 49.7071 21.3536 48.1336C21.8605 46.5602 21.8568 44.8667 21.3431 43.2955C20.8294 41.7242 19.8319 40.3557 18.4934 39.3856C17.1548 38.4156 15.5438 37.8936 13.8907 37.8945C12.2376 37.8954 10.6271 38.4191 9.28963 39.3906C7.95214 40.3621 6.95615 41.7317 6.44412 43.3035C5.93209 44.8753 5.93025 46.5688 6.43887 48.1417C6.94749 49.7146 7.94051 51.0864 9.27589 52.0608L4.63843 53.602C3.28733 54.0552 2.11275 54.9215 1.28062 56.0784C0.448495 57.2353 0.000869399 58.6244 0.000977682 60.0495V62.8995C0.000311122 63.65 0.29733 64.3703 0.826901 64.9022C1.35647 65.4341 2.07537 65.7343 2.82595 65.7369H14.3258C14.6574 65.7369 14.9753 65.6052 15.2097 65.3708C15.4441 65.1364 15.5758 64.8185 15.5758 64.4869C15.5758 64.1554 15.4441 63.8375 15.2097 63.6031C14.9753 63.3686 14.6574 63.237 14.3258 63.237H2.82595C2.73852 63.234 2.65567 63.1971 2.59499 63.1341C2.53431 63.0711 2.50058 62.9869 2.50095 62.8995V60.0495C2.50144 59.1486 2.78472 58.2705 3.31084 57.5392C3.83697 56.8079 4.5794 56.2601 5.43343 55.9733C7.21341 55.4908 12.0884 53.4358 13.9121 53.5795C14.7534 53.5843 15.5887 53.7218 16.3871 53.987L17.7996 54.4495C17.9556 54.5007 18.1201 54.5205 18.2839 54.508C18.4476 54.4954 18.6072 54.4507 18.7536 54.3764C18.9 54.3021 19.0303 54.1997 19.1371 54.0749C19.2438 53.9502 19.325 53.8057 19.3758 53.6495ZM13.9083 51.0796C12.4933 51.0812 11.1355 50.5207 10.1337 49.5212C9.13191 48.5218 8.56818 47.1653 8.56652 45.7502C8.56487 44.3352 9.12541 42.9774 10.1249 41.9756C11.1243 40.9738 12.4808 40.4101 13.8958 40.4084C14.5965 40.4076 15.2905 40.5448 15.9382 40.8122C16.5858 41.0796 17.1745 41.4719 17.6705 41.9668C18.1665 42.4616 18.5602 43.0494 18.8291 43.6964C19.098 44.3434 19.2369 45.0371 19.2377 45.7377C19.2385 46.4384 19.1013 47.1324 18.8339 47.7801C18.5665 48.4277 18.1742 49.0164 17.6793 49.5124C17.1845 50.0084 16.5967 50.4021 15.9497 50.671C15.3027 50.9399 14.609 51.0787 13.9083 51.0796Z" fill="#A61B28"/>
<path d="M3.67805 39.5608C3.7813 39.6885 3.90868 39.7945 4.05291 39.8729C4.19714 39.9513 4.3554 40.0005 4.51866 40.0178C4.68191 40.035 4.84697 40.0199 5.00439 39.9734C5.16182 39.9268 5.30853 39.8497 5.43616 39.7465C5.56378 39.6432 5.66983 39.5158 5.74822 39.3716C5.82662 39.2274 5.87585 39.0691 5.89308 38.9058C5.91032 38.7426 5.89523 38.5775 5.84868 38.4201C5.80213 38.2627 5.72503 38.116 5.62178 37.9883C4.53353 36.6537 3.54939 35.2375 2.67806 33.7521C6.03733 28.1992 10.7838 23.616 16.4509 20.4531C22.1179 17.2901 28.5105 15.6564 35.0003 15.7123C41.4899 15.6561 47.8824 17.2898 53.5493 20.4527C59.2162 23.6157 63.9624 28.199 67.3212 33.7521C66.4485 35.2382 65.4609 36.6538 64.3675 37.9858C64.257 38.1122 64.1732 38.2595 64.1209 38.419C64.0686 38.5785 64.049 38.7468 64.0632 38.914C64.0774 39.0812 64.1251 39.2439 64.2035 39.3923C64.2819 39.5407 64.3894 39.6717 64.5195 39.7777C64.6496 39.8836 64.7998 39.9623 64.961 40.009C65.1222 40.0557 65.2911 40.0694 65.4577 40.0494C65.6243 40.0294 65.7852 39.9761 65.9308 39.8926C66.0763 39.809 66.2036 39.6971 66.305 39.5633C67.6652 37.9352 68.8586 36.1747 69.8674 34.3084C69.9541 34.1349 69.9993 33.9436 69.9993 33.7496C69.9993 33.5557 69.9541 33.3644 69.8674 33.1909C66.3435 27.0732 61.259 22.0004 55.1333 18.4904C49.0076 14.9804 42.0601 13.1591 35.0003 13.2123C27.9402 13.1588 20.9924 14.9801 14.8665 18.4901C8.74053 22.0001 3.65589 27.073 0.131831 33.1909C0.0451341 33.3644 0 33.5557 0 33.7496C0 33.9436 0.0451341 34.1349 0.131831 34.3084C1.1377 36.1719 2.32556 37.9313 3.67805 39.5608Z" fill="#A61B28"/>
<path d="M35.0007 26.8747C33.4799 26.8727 32.0015 27.3763 30.7982 28.3063C29.5948 29.2363 28.7348 30.54 28.3533 32.0122C28.2704 32.3333 28.3185 32.6741 28.4869 32.9598C28.6553 33.2454 28.9303 33.4524 29.2514 33.5353C29.5725 33.6182 29.9133 33.5701 30.199 33.4017C30.4846 33.2333 30.6916 32.9583 30.7745 32.6372C31.019 31.7024 31.5666 30.8752 32.3316 30.285C33.0966 29.6948 34.0357 29.375 35.0019 29.3757C35.9681 29.3764 36.9068 29.6976 37.6709 30.2889C38.435 30.8802 38.9814 31.7083 39.2244 32.6434C39.3057 32.965 39.5113 33.2412 39.7961 33.4111C40.0809 33.5811 40.4216 33.6309 40.7432 33.5497C41.0648 33.4685 41.3409 33.2628 41.5108 32.978C41.6808 32.6932 41.7306 32.3525 41.6494 32.031C41.2746 30.5533 40.4167 29.2433 39.2121 28.3091C38.0074 27.3749 36.5252 26.87 35.0007 26.8747ZM35.0007 8.74992C35.3323 8.74992 35.6502 8.61822 35.8846 8.38381C36.119 8.14939 36.2507 7.83145 36.2507 7.49993V1.24999C36.2507 0.918471 36.119 0.600532 35.8846 0.366113C35.6502 0.131695 35.3323 0 35.0007 0C34.6692 0 34.3513 0.131695 34.1169 0.366113C33.8824 0.600532 33.7507 0.918471 33.7507 1.24999V7.49993C33.7507 7.83145 33.8824 8.14939 34.1169 8.38381C34.3513 8.61822 34.6692 8.74992 35.0007 8.74992ZM12.7509 11.9999C12.9499 12.2651 13.246 12.4404 13.5742 12.4873C13.9023 12.5342 14.2357 12.4488 14.5009 12.2499C14.7661 12.051 14.9415 11.7549 14.9884 11.4267C15.0352 11.0985 14.9498 10.7651 14.7509 10.4999L11.001 5.49995C10.802 5.23473 10.5059 5.0594 10.1777 5.01252C9.84956 4.96563 9.51619 5.05104 9.25098 5.24995C8.98576 5.44886 8.81043 5.74498 8.76354 6.07317C8.71666 6.40135 8.80207 6.73472 9.00098 6.99994L12.7509 11.9999ZM56.2493 12.4999C56.4434 12.5001 56.6348 12.455 56.8084 12.3682C56.982 12.2814 57.133 12.1553 57.2493 11.9999L60.9992 6.99994C61.1871 6.73426 61.264 6.40579 61.2135 6.08433C61.163 5.76287 60.9892 5.47377 60.7289 5.27845C60.4687 5.08313 60.1425 4.997 59.8198 5.03837C59.497 5.07973 59.2031 5.24532 59.0005 5.49995L55.2505 10.4999C55.1113 10.6856 55.0264 10.9064 55.0056 11.1376C54.9847 11.3688 55.0287 11.6013 55.1325 11.8089C55.2363 12.0165 55.3959 12.1912 55.5934 12.3132C55.7908 12.4352 56.0171 12.4999 56.2493 12.4999Z" fill="#A61B28"/>
<path d="M48.3132 38.4246C48.5896 38.4244 48.8581 38.3327 49.0768 38.1638C49.2955 37.9948 49.4521 37.7582 49.522 37.4908C50.0806 35.3355 50.1511 33.0826 49.7283 30.8965C49.3056 28.7105 48.4002 26.6463 47.0783 24.8547C46.9719 24.7136 46.837 24.5965 46.6824 24.511C46.5277 24.4256 46.3569 24.3736 46.1808 24.3585C46.0048 24.3434 45.8276 24.3655 45.6606 24.4235C45.4937 24.4814 45.3409 24.5738 45.212 24.6947C44.8706 25.0158 44.4182 25.1923 43.9495 25.1872C43.4525 25.1865 42.9759 24.9888 42.6245 24.6373C42.273 24.2858 42.0752 23.8093 42.0746 23.3122C42.0058 22.5622 42.8058 22.016 42.5746 21.2572C42.5315 21.0872 42.4531 20.9281 42.3446 20.7902C42.2361 20.6524 42.0998 20.5389 41.9446 20.4572C39.3743 19.1134 36.4695 18.5437 33.582 18.8174C30.6946 19.091 27.9485 20.1962 25.6765 21.999C23.4044 23.8018 21.704 26.2248 20.7812 28.9744C19.8584 31.7241 19.7528 34.6824 20.4773 37.4908C20.5646 37.8075 20.7731 38.0772 21.0577 38.2414C21.3423 38.4055 21.68 38.4511 21.998 38.3681C22.3159 38.2851 22.5883 38.0803 22.7564 37.798C22.9244 37.5157 22.9746 37.1786 22.896 36.8596C22.63 35.8444 22.4968 34.799 22.4997 33.7496C22.5162 31.7052 23.031 29.6957 23.9997 27.8953C24.9683 26.0949 26.3614 24.5579 28.0583 23.4176C29.7552 22.2774 31.7046 21.5682 33.7375 21.3516C35.7705 21.135 37.8255 21.4175 39.7246 22.1747C39.5116 22.9726 39.5284 23.8144 39.773 24.6031C40.0177 25.3919 40.4802 26.0954 41.1072 26.6328C41.7343 27.1701 42.5005 27.5193 43.3174 27.6402C44.1343 27.761 44.9687 27.6486 45.7245 27.3159C46.8951 29.2571 47.5092 31.4828 47.4995 33.7496C47.7983 35.2471 45.972 38.1796 48.3132 38.4246Z" fill="#A61B28"/>
</svg>
