<svg width="36" height="38" viewBox="0 0 36 38" fill="none" xmlns="http://www.w3.org/2000/svg">
<path d="M12.896 23.5698H10.6738C9.98164 23.5698 9.41845 23.0069 9.41845 22.3145V21.0759C9.41845 21.0027 9.36664 20.9394 9.29011 20.9183C8.51798 20.7077 7.77588 20.3994 7.08179 20.0009C7.01873 19.9648 6.94442 19.972 6.89727 20.0192L6.01256 20.9039C5.89627 21.0208 5.75794 21.1134 5.60558 21.1765C5.45323 21.2396 5.28987 21.2718 5.12497 21.2713C4.7899 21.2713 4.47445 21.1409 4.23738 20.9039L2.66603 19.3325C2.54908 19.2162 2.45636 19.0779 2.39321 18.9255C2.33007 18.7732 2.29777 18.6098 2.29818 18.4448C2.29818 18.1095 2.42889 17.794 2.66603 17.5573L3.55044 16.6726C3.59781 16.6254 3.60507 16.5512 3.56865 16.4881C3.1704 15.7939 2.86224 15.0519 2.6516 14.2798C2.63043 14.2032 2.56715 14.1514 2.49395 14.1514H1.25537C0.563183 14.1514 0 13.5881 0 12.8961V10.6738C0 9.98156 0.563257 9.41838 1.2553 9.41838H2.49395C2.56715 9.41838 2.63043 9.36694 2.6516 9.29004C2.8623 8.51797 3.17054 7.77591 3.56887 7.08179C3.60499 7.01873 3.59774 6.94442 3.55066 6.89734L2.66603 6.01256C2.54905 5.89631 2.45629 5.75799 2.39315 5.60563C2.33 5.45327 2.29772 5.2899 2.29818 5.12497C2.29818 4.7899 2.42889 4.47445 2.66603 4.23738L4.23738 2.66603C4.47445 2.42889 4.78953 2.29855 5.12497 2.29855C5.46041 2.29855 5.77579 2.42889 6.01286 2.66625L6.89734 3.55074C6.94442 3.59781 7.01843 3.60507 7.08179 3.56895C7.77584 3.17058 8.51782 2.86229 9.28982 2.65153C9.36701 2.63043 9.41845 2.56715 9.41845 2.49395V1.25537C9.41845 0.563183 9.98171 0 10.6738 0H12.896C13.5882 0 14.1514 0.563257 14.1514 1.2553V2.49395C14.1514 2.56715 14.2029 2.63043 14.2798 2.65123C15.0518 2.86215 15.7937 3.17054 16.4878 3.56895C16.5511 3.60507 16.6251 3.59781 16.6726 3.55074L17.557 2.66603C18.0476 2.17568 18.8419 2.17531 19.3324 2.66625L19.4987 2.83257C20.0177 3.35119 19.2333 4.13709 18.7137 3.6175C18.6114 3.52905 18.4802 3.31308 18.3422 3.45126L17.4575 4.33575C17.0574 4.7358 16.4314 4.81648 15.9353 4.53174C15.3231 4.18045 14.6686 3.90851 13.9877 3.72245C13.4304 3.57072 13.0408 3.06527 13.0408 2.49365V1.25537C13.0408 1.17529 12.9759 1.11023 12.8958 1.11023H10.6735C10.6351 1.11031 10.5983 1.12563 10.5711 1.15282C10.544 1.18002 10.5287 1.21687 10.5287 1.2553V2.49395C10.5287 3.06557 10.1392 3.57065 9.58181 3.72275C8.90084 3.90865 8.24631 4.1805 7.63402 4.53174C7.13811 4.81648 6.51217 4.7358 6.11204 4.33567L5.22756 3.45119C5.21418 3.43759 5.1982 3.42683 5.18058 3.41955C5.16295 3.41226 5.14404 3.4086 5.12497 3.40878C5.09759 3.40878 5.05762 3.41596 5.02261 3.45126L3.45097 5.02261C3.43741 5.03597 3.42667 5.05191 3.41937 5.06949C3.41208 5.08707 3.40837 5.10594 3.40848 5.12497C3.40848 5.15243 3.41596 5.19262 3.45097 5.22763L4.33567 6.11234C4.7358 6.51246 4.81648 7.13819 4.53174 7.63431C4.18045 8.24662 3.90851 8.90114 3.72245 9.5821C3.57072 10.1395 3.06527 10.5287 2.49395 10.5287H1.25537C1.17529 10.5287 1.11023 10.594 1.11023 10.6738V12.896C1.11023 12.9761 1.17529 13.0411 1.2553 13.0411H2.49395C3.06535 13.0411 3.57065 13.4303 3.72275 13.9878C3.90779 14.6675 4.18017 15.3227 4.53174 15.9356C4.81648 16.4317 4.7358 17.0574 4.33567 17.4575L3.45119 18.3422C3.43756 18.3556 3.42678 18.3715 3.4195 18.3892C3.41221 18.4068 3.40856 18.4258 3.40878 18.4448C3.40878 18.472 3.41625 18.5122 3.45126 18.5475L5.02261 20.1186C5.0793 20.1753 5.17123 20.1756 5.22793 20.1186L6.11234 19.2341C6.51246 18.834 7.13841 18.7533 7.63454 19.0382C8.24675 19.3895 8.9012 19.6614 9.5821 19.8474C10.1395 19.9992 10.529 20.5046 10.529 21.0762V22.3144C10.529 22.3945 10.594 22.4596 10.6738 22.4596H12.896C12.9761 22.4596 13.0411 22.3945 13.0411 22.3145V21.0762C13.0411 20.5045 13.4306 19.9992 13.988 19.8474C14.6972 19.6543 14.9881 20.7255 14.2801 20.9184C14.2031 20.9394 14.1514 21.0027 14.1514 21.0762V22.3144C14.1514 23.0066 13.5881 23.5698 12.8961 23.5698H12.896Z" fill="white"/>
<path d="M6.55273 11.7849C6.55273 8.11419 10.2437 5.59796 13.6449 6.89382C14.3304 7.15547 13.9364 8.19309 13.2494 7.93152C10.5652 6.90826 7.66274 8.9009 7.66274 11.7849C7.66274 14.1308 9.63858 16.0396 12.0308 15.8994C12.7623 15.8552 12.8307 16.9645 12.0961 17.0079C9.07969 17.1854 6.55273 14.7799 6.55273 11.7849Z" fill="white"/>
<path d="M30.7194 24.6509L25.0947 23.5572V22.1674C26.6742 21.0898 27.5294 19.5638 27.7156 17.8499C28.5355 17.7849 29.1826 17.097 29.1826 16.2609V15.12C30.5192 14.5389 30.3388 12.5882 28.9247 12.2592V11.8188C28.9247 7.85985 25.7152 4.65039 21.7565 4.65039H21.1555C17.1964 4.65039 13.9872 7.85984 13.9872 11.8186V12.2592C12.5737 12.5879 12.3921 14.5388 13.7293 15.12V16.2609C13.7293 17.097 14.3763 17.7849 15.1963 17.85C15.3588 19.3453 16.0597 20.7139 17.1652 21.6658C17.373 21.8451 17.5906 22.0126 17.8172 22.1674V23.5572L12.1926 24.651C9.22509 25.2281 6.91211 26.9009 6.91211 29.9875V35.6339C6.91211 36.8831 7.92486 37.8959 9.17417 37.8959H33.7377C34.9871 37.8959 35.9998 36.8831 35.9998 35.6338V29.9875C35.9998 26.911 33.701 25.2306 30.7193 24.651L30.7194 24.6509ZM26.0988 24.8834C25.5381 25.6986 24.9765 26.5133 24.4142 27.3274C24.143 27.7203 23.6563 27.7703 23.4661 27.6564L22.5892 27.1305C23.4444 26.6254 24.6278 25.758 24.9869 24.6672L26.0988 24.8834ZM21.4558 26.4831C20.6128 26.0587 18.9321 25.01 18.9275 24.0189V22.7803C19.7258 23.1253 20.5863 23.3032 21.456 23.3032C22.3257 23.3032 23.1861 23.1253 23.9845 22.7803V24.0146C23.9845 25.0074 22.2998 26.0584 21.4558 26.4831ZM15.0975 11.8185C15.0975 9.5414 16.3603 7.55372 18.2225 6.5192V7.2151C18.2225 7.94896 19.3328 7.95007 19.3328 7.2151V6.0407C19.841 5.88015 20.3682 5.78781 20.9007 5.7661V8.51096C20.9007 9.24475 22.0109 9.24593 22.0109 8.51096V5.76602C22.5435 5.78777 23.0709 5.88013 23.5791 6.0407V7.2151C23.5791 7.94896 24.6893 7.95007 24.6893 7.2151V6.5192C26.5516 7.55372 27.8145 9.5414 27.8145 11.8186V12.2199H15.0975V11.8185ZM14.3301 13.3301H28.5818C29.1138 13.3301 29.1132 14.1341 28.5818 14.1341H14.3302C13.7978 14.1341 13.7984 13.3301 14.3302 13.3301H14.3301ZM16.2713 17.2878C16.2682 17.1427 16.2083 17.0045 16.1046 16.903C16.0008 16.8014 15.8614 16.7445 15.7162 16.7446C15.6236 16.7218 14.8392 16.8889 14.8392 16.2609V15.2447H28.0724V16.2609C28.0724 16.8878 27.2671 16.727 27.1955 16.7446C27.0503 16.7446 26.911 16.8015 26.8072 16.9031C26.7035 17.0046 26.6436 17.1427 26.6404 17.2878C26.6106 18.6756 26.0208 19.9645 25.0224 20.8244C22.9023 22.65 20.0096 22.6503 17.8895 20.8244C16.8909 19.9645 16.301 18.6756 16.2713 17.2878ZM17.9248 24.6672C18.2841 25.758 19.4673 26.6254 20.3227 27.1304C19.4438 27.6011 19.506 27.742 19.1067 27.6948C18.8583 27.665 18.6354 27.5268 18.4931 27.321C17.9324 26.5089 17.3723 25.6964 16.8128 24.8834L17.9248 24.6672ZM11.5198 36.7857H9.1738C8.53778 36.7857 8.02197 36.2699 8.02197 35.6338V29.9875C8.02197 28.324 8.77767 27.1739 10.4356 26.3793C10.5026 26.6748 11.5198 29.4356 11.5198 33.2934V36.7857ZM20.9006 36.7857H12.63V33.2934C12.63 29.1136 11.5747 26.4221 11.4709 25.9664C12.1191 25.7511 11.6377 25.917 15.6245 25.1145C16.7702 26.7795 18.9085 29.8861 20.1691 31.6778C20.648 32.3581 20.9006 33.1573 20.9006 33.989V36.7857ZM21.4558 31.6674C21.3445 31.4494 21.218 31.2394 21.0773 31.0391C20.6511 30.4336 20.0981 29.6392 19.5209 28.8062C19.6958 28.7674 19.8632 28.7007 20.0168 28.6085L21.4557 27.7455L22.895 28.6085C23.0485 28.7007 23.216 28.7675 23.3909 28.8062C22.8137 29.6386 22.2607 30.433 21.8345 31.0391C21.6936 31.2393 21.567 31.4493 21.4558 31.6674ZM34.8895 35.6339C34.8895 36.2699 34.374 36.7857 33.7376 36.7857H31.3917V34.6913C31.3917 33.9575 30.2815 33.9563 30.2815 34.6913V36.7857H22.0109V33.989C22.0109 33.1573 22.2639 32.3581 22.7424 31.6781C23.4594 30.6589 26.4117 26.3987 27.2874 25.1144C31.2721 25.9167 30.7916 25.7508 31.4407 25.9664C31.36 26.3079 30.4259 28.8467 30.2969 32.448C30.2702 33.1835 31.38 33.2197 31.4062 32.4879C31.5312 29.0028 32.3861 26.7604 32.476 26.3793C34.1338 27.1739 34.8896 28.324 34.8896 29.9873L34.8895 35.6339Z" fill="white"/>
</svg>
