<svg width="71" height="75" viewBox="0 0 71 75" fill="none" xmlns="http://www.w3.org/2000/svg">
<path d="M58.3686 38.7832C58.2267 38.7572 58.081 38.7593 57.9399 38.7896C57.7989 38.8198 57.6652 38.8776 57.5464 38.9595C57.4277 39.0415 57.3262 39.146 57.2479 39.2672C57.1696 39.3883 57.1159 39.5237 57.0899 39.6656C57.0374 39.9522 57.1008 40.2479 57.2663 40.4877C57.4318 40.7275 57.6857 40.8917 57.9723 40.9443C64.1819 42.0829 68.6887 47.4943 68.6887 53.8115C68.6887 60.1613 64.1409 65.4681 58.1318 66.6479C58.12 66.6498 58.108 66.6505 58.0961 66.6527C57.2758 66.8119 56.4423 66.8925 55.6067 66.8934C48.3933 66.8934 42.5247 61.0248 42.5247 53.8115C42.5247 47.412 47.1336 42.064 53.2412 40.9443C53.5277 40.8917 53.7817 40.7275 53.9472 40.4877C54.1126 40.2479 54.1761 39.9522 54.1236 39.6656C54.0142 39.0687 53.4408 38.6733 52.8449 38.7832C49.3432 39.4252 46.3075 41.2327 44.1014 43.7587L37.2704 41.1132V37.3005C39.7458 35.4054 41.4528 32.5573 41.8403 29.3087C44.7824 29.1782 46.9731 26.8242 46.9731 24.0255C46.9737 22.7399 46.5028 21.4987 45.6496 20.537V15.7151C45.6499 7.04971 38.6002 0 29.9351 0C21.2699 0 14.2201 7.04971 14.2201 15.715V20.6616C13.3634 21.6084 12.8972 22.7812 12.8972 24.0253C12.8972 26.821 15.0833 29.1778 18.0292 29.3084C18.4152 32.5775 20.1407 35.544 22.8581 37.4845V41.113L7.41953 47.0984C7.41262 47.1011 7.40574 47.1038 7.39888 47.1066C7.12715 47.2184 0.742188 49.9291 0.742188 57.3918V72.5112C0.742188 73.8835 1.85854 75 3.23096 75H56.9266C58.2922 75 59.4033 73.8891 59.4033 72.5232V68.6136C65.9977 66.9211 70.8861 60.9267 70.8861 53.8118C70.8861 46.4335 65.6216 40.1131 58.3686 38.7832ZM40.484 44.7139L36.5261 52.6459C36.4725 52.6078 35.4795 51.9023 31.6551 49.1862L36.5216 43.1792L40.484 44.7139ZM32.8986 52.765L31.767 54.4682H28.3705L27.239 52.765L30.0688 50.7552L32.8986 52.765ZM25.0557 41.4661V38.7239C26.5403 39.3625 28.3013 39.7354 30.0908 39.7354C31.815 39.7354 33.5225 39.3577 35.0733 38.6341V41.4765L30.0687 47.654L25.0557 41.4661ZM43.7131 26.3465C43.2136 26.7762 42.5989 27.0321 41.9273 27.0987V20.9528C44.7413 21.2253 45.7236 24.6174 43.7131 26.3465ZM17.9433 27.0987C16.254 26.9314 15.0947 25.5787 15.0947 24.0255C15.0947 22.4682 16.4468 21.2481 17.9433 21.0028V27.0987ZM17.9792 18.7825C17.4672 18.8292 16.8585 18.9804 16.4175 19.1522V15.715C16.4175 8.26143 22.4813 2.19741 29.9349 2.19741C37.3883 2.19741 43.4525 8.26128 43.4525 15.715V19.0559C42.9612 18.8816 42.4477 18.7778 41.9273 18.7477C41.9273 17.4272 42.0878 17.803 38.2598 13.6961C37.9538 13.3677 37.5947 12.8859 36.8354 12.7264C36.566 12.6697 36.2881 12.6668 36.0176 12.7179C35.7471 12.769 35.4893 12.873 35.2592 13.0241C30.9418 15.8443 25.524 17.4275 20.32 17.0865C19.0482 17.0026 18.1751 17.7258 17.9792 18.7825ZM20.1407 27.899V19.2775C25.7314 19.6519 31.63 17.9969 36.3883 14.9108C38.3737 17.044 39.4417 18.1512 39.73 18.5225C39.73 29.482 39.7325 27.5319 39.7239 28.1399C39.5957 33.3193 35.3497 37.5379 30.0908 37.5379C24.2402 37.5381 20.1407 33.0272 20.1407 27.899ZM23.6093 43.182L28.4768 49.1902L23.611 52.6462L19.6532 44.7142L23.6093 43.182ZM13.1106 72.8027V59.734C13.1106 59.1272 12.6188 58.6353 12.012 58.6353C11.4051 58.6353 10.9133 59.1272 10.9133 59.734V72.8027H3.23096C3.15372 72.8026 3.07968 72.7719 3.02506 72.7173C2.97045 72.6627 2.93972 72.5886 2.9396 72.5114V57.3921C2.9396 51.4812 7.93208 49.2678 8.22769 49.1421L17.5948 45.5106L21.7154 53.7688L21.7155 53.769C21.8483 54.0354 22.0373 54.27 22.2694 54.4563C22.5016 54.6427 22.7714 54.7765 23.0603 54.8486C24.1311 55.1164 24.7687 54.5193 25.4463 54.0381L26.6254 55.8126L23.7498 72.8027H13.1106ZM47.0356 72.8026H36.3877L35.4016 66.9759C35.3787 66.8325 35.3277 66.6951 35.2514 66.5716C35.1751 66.4481 35.0751 66.341 34.9572 66.2563C34.8393 66.1717 34.7058 66.1113 34.5643 66.0785C34.4229 66.0458 34.2764 66.0414 34.1333 66.0656C33.9902 66.0899 33.8533 66.1422 33.7305 66.2197C33.6077 66.2971 33.5015 66.3981 33.418 66.5168C33.3345 66.6356 33.2754 66.7697 33.244 66.9114C33.2126 67.0531 33.2096 67.1996 33.2352 67.3425L34.1594 72.8026H25.9785L28.7099 56.6654H31.4282L32.3674 62.2151C32.3914 62.3574 32.4433 62.4936 32.5199 62.6159C32.5966 62.7381 32.6966 62.8441 32.8142 62.9277C32.9319 63.0112 33.0648 63.0708 33.2055 63.103C33.3462 63.1352 33.4918 63.1393 33.6341 63.1151C33.9214 63.0665 34.1775 62.9058 34.3463 62.6682C34.515 62.4307 34.5825 62.1359 34.5339 61.8486L33.5124 55.8126L34.6914 54.0381L35.3831 54.5294C36.4151 55.2626 37.8574 54.9003 38.4219 53.7691H38.4221L42.5424 45.5114L42.7299 45.5839C41.1603 48.0411 40.3268 50.8962 40.3275 53.8119C40.3275 59.0626 42.9902 63.703 47.0358 66.4544L47.0356 72.8026ZM57.2062 72.5234C57.2061 72.5975 57.1767 72.6685 57.1243 72.7208C57.0719 72.7732 57.0009 72.8027 56.9269 72.8027H49.2331V67.6964C51.1741 68.591 53.3331 69.0913 55.607 69.0913C56.1471 69.0913 56.6805 69.0627 57.2063 69.0078L57.2062 72.5234Z" fill="white"/>
<path d="M55.6062 42.397C49.3121 42.397 44.1914 47.5176 44.1914 53.8118C44.1914 60.1059 49.3121 65.2266 55.6062 65.2266C61.9003 65.2266 67.021 60.1059 67.021 53.8118C67.021 47.5176 61.9003 42.397 55.6062 42.397ZM55.6062 63.029C50.5238 63.029 46.3888 58.894 46.3888 53.8116C46.3888 48.7292 50.5236 44.5942 55.6062 44.5942C60.6886 44.5942 64.8236 48.7292 64.8236 53.8116C64.8236 58.894 60.6886 63.029 55.6062 63.029Z" fill="white"/>
</svg>
