<svg width="75" height="75" viewBox="0 0 75 75" fill="none" xmlns="http://www.w3.org/2000/svg">
<mask id="mask0_1339_4148" style="mask-type:luminance" maskUnits="userSpaceOnUse" x="0" y="0" width="75" height="75">
<path d="M0 0H75V75H0V0Z" fill="white"/>
<path d="M75 75V0H0V75H75ZM2.34376 2.34376H72.6562V72.6562H2.34376V2.34376Z" fill="white"/>
</mask>
<g mask="url(#mask0_1339_4148)">
<path d="M49.0766 58L49.1195 57.9993C49.5617 57.9832 49.9596 57.72 50.1479 57.3153L56.9559 42.6846C63.6075 28.3905 53.2149 12 37.5 12H37.4999C21.785 12 11.3926 28.3905 18.0441 42.6846L24.852 57.3153C25.0464 57.733 25.4641 58 25.9233 58H49.0766ZM20.1866 41.6798C14.2676 28.9598 23.5156 14.3742 37.4999 14.3742H37.5C51.4843 14.3742 60.7325 28.9598 54.8133 41.6798L48.3239 55.6258H26.676L20.1866 41.6798Z" fill="white"/>
<path d="M23 59C23 61.2092 24.8519 63 27.1361 63H30.8528L30.9135 62.9985C31.5379 62.9679 32.0345 62.4686 32.0345 61.8571C32.0345 61.2457 31.5379 60.7464 30.9135 60.7158L30.8528 60.7143H27.1361C26.1572 60.7143 25.3635 59.9468 25.3635 59C25.3635 58.0532 26.1572 57.2857 27.1361 57.2857H47.8639C48.8428 57.2857 49.6365 58.0532 49.6365 59C49.6365 59.9468 48.8428 60.7143 47.8639 60.7143H44.1472C43.4946 60.7143 42.9655 61.226 42.9655 61.8571C42.9655 62.4883 43.4946 63 44.1472 63H47.8639C50.1481 63 52 61.2092 52 59C52 56.7908 50.1481 55 47.8639 55H27.1361C24.8519 55 23 56.7908 23 59Z" fill="white"/>
<path d="M49.6365 65C49.6365 65.9468 48.8429 66.7143 47.8639 66.7143H27.1361C26.1571 66.7143 25.3635 65.9468 25.3635 65C25.3635 64.068 26.1325 63.3097 27.0904 63.2863L27.1361 63.2857L27.1968 63.2842C27.8213 63.2536 28.3178 62.7543 28.3178 62.1429C28.3178 61.5314 27.8213 61.0321 27.1968 61.0015L27.1361 61L27.0293 61.0013C24.7943 61.056 23 62.8253 23 65C23 67.2092 24.8518 69 27.1361 69H47.8639C50.1482 69 52 67.2092 52 65C52 62.7908 50.1482 61 47.8639 61C47.2113 61 46.6822 61.5117 46.6822 62.1429C46.6822 62.774 47.2113 63.2857 47.8639 63.2857C48.8429 63.2857 49.6365 64.0532 49.6365 65Z" fill="white"/>
<path d="M42.5652 68.1852C42.5652 70.6398 40.5213 72.6296 38 72.6296C35.4787 72.6296 33.4348 70.6398 33.4348 68.1852C33.4348 67.5306 32.8897 67 32.2174 67C31.5451 67 31 67.5306 31 68.1852C31 71.9489 34.134 75 38 75C41.866 75 45 71.9489 45 68.1852C45 67.5306 44.4549 67 43.7826 67C43.1103 67 42.5652 67.5306 42.5652 68.1852Z" fill="white"/>
<path d="M37 1.28571V7.71429C37 8.42437 37.4477 9 38 9C38.5523 9 39 8.42437 39 7.71429V1.28571C39 0.575643 38.5523 0 38 0C37.4477 0 37 0.575643 37 1.28571Z" fill="white"/>
<path d="M17.1902 15.721C17.6156 16.1054 18.2725 16.0926 18.6825 15.6826C19.1058 15.2593 19.1058 14.5729 18.6825 14.1496L14.8504 10.3175L14.8099 10.279C14.3845 9.89456 13.7275 9.90743 13.3174 10.3175C12.8942 10.7408 12.8942 11.4271 13.3174 11.8504L17.1497 15.6826L17.1902 15.721Z" fill="white"/>
<path d="M10.7143 36L10.7804 35.998C11.4597 35.9578 12 35.3026 12 34.5C12 33.6974 11.4597 33.0422 10.7804 33.002L10.7143 33H4.28571C3.57563 33 3 33.6716 3 34.5C3 35.3284 3.57563 36 4.28571 36H10.7143Z" fill="white"/>
<path d="M13.3174 59.6297C13.7275 60.1081 14.3845 60.1229 14.8099 59.6744L14.8504 59.6297L18.6825 55.1587C19.1058 54.6649 19.1058 53.8642 18.6825 53.3704C18.2592 52.8765 17.573 52.8765 17.1497 53.3704L13.3174 57.8412L13.2791 57.8884C12.8946 58.3848 12.9074 59.1512 13.3174 59.6297Z" fill="white"/>
<path d="M56.3174 15.6826C56.7275 16.0926 57.3845 16.1054 57.8099 15.7209L57.8504 15.6826L61.6825 11.8503C62.1058 11.427 62.1058 10.7408 61.6825 10.3175C61.2592 9.89418 60.573 9.89418 60.1497 10.3175L56.3174 14.1496L56.2791 14.1901C55.8946 14.6155 55.9074 15.2725 56.3174 15.6826Z" fill="white"/>
<path d="M70.8571 36L70.9159 35.998C71.5198 35.9578 72 35.3026 72 34.5C72 33.6974 71.5198 33.0422 70.9159 33.002L70.8571 33H65.1429C64.5117 33 64 33.6716 64 34.5C64 35.3284 64.5117 36 65.1429 36H70.8571Z" fill="white"/>
<path d="M60.1902 59.6745C60.6156 60.1229 61.2725 60.108 61.6825 59.6297C62.1058 59.1358 62.1058 58.335 61.6825 57.8412L57.8504 53.3704L57.8099 53.3255C57.3845 52.877 56.7275 52.892 56.3174 53.3704C55.8942 53.8643 55.8942 54.6649 56.3174 55.1588L60.1497 59.6297L60.1902 59.6745Z" fill="white"/>
<path d="M46.75 37.5C46.75 38.7427 45.7427 39.75 44.5 39.75H42.25V37.5C42.25 36.2573 43.2573 35.25 44.5 35.25C45.7427 35.25 46.75 36.2573 46.75 37.5ZM49 37.5C49 35.0147 46.9853 33 44.5 33C42.0147 33 40 35.0147 40 37.5V40.875C40 41.4963 40.5037 42 41.125 42H44.5C46.9853 42 49 39.9853 49 37.5Z" fill="white"/>
<path d="M32.75 39.75H30.5C29.2573 39.75 28.25 38.7427 28.25 37.5C28.25 36.2573 29.2573 35.25 30.5 35.25C31.7427 35.25 32.75 36.2573 32.75 37.5V39.75ZM35 37.5C35 35.0147 32.9853 33 30.5 33C28.0147 33 26 35.0147 26 37.5C26 39.9853 28.0147 42 30.5 42H33.875C34.4963 42 35 41.4963 35 40.875V37.5Z" fill="white"/>
<path d="M40 41.2054V56.7946C40 57.4603 40.6716 58 41.5 58C42.3284 58 43 57.4603 43 56.7946V41.2054L42.998 41.1435C42.9578 40.5065 42.3026 40 41.5 40C40.6974 40 40.0422 40.5065 40.002 41.1435L40 41.2054Z" fill="white"/>
<path d="M33 56.8C33 57.4627 33.5596 58 34.25 58C34.9404 58 35.5 57.4627 35.5 56.8V42.4H41.75L41.8142 42.3985C42.4747 42.3664 43 41.8421 43 41.2C43 40.558 42.4747 40.0337 41.8142 40.0016L41.75 40H34.25C33.5597 40 33 40.5373 33 41.2V56.8Z" fill="white"/>
</g>
</svg>
