<svg width="71" height="71" viewBox="0 0 71 71" fill="none" xmlns="http://www.w3.org/2000/svg">
<path d="M26.0339 0C22.2689 0.00591685 18.6599 1.50449 15.998 4.16717C13.3362 6.82985 11.8387 10.4394 11.834 14.2044C11.834 14.6561 11.8564 15.1033 11.8832 15.5595C11.8966 17.2277 14.4414 17.0667 14.2446 15.4074C14.2168 15.0055 14.2019 14.6028 14.1999 14.1999C14.1981 12.645 14.5032 11.105 15.0976 9.6681C15.6919 8.23125 16.5639 6.92578 17.6637 5.82648C18.7634 4.72718 20.0692 3.85565 21.5062 3.26183C22.9433 2.66801 24.4834 2.36355 26.0384 2.3659C27.5931 2.36354 29.1329 2.66824 30.5695 3.26251C32.0061 3.85678 33.3113 4.72891 34.41 5.82886C35.5087 6.92881 36.3793 8.23492 36.972 9.67221C37.5646 11.1095 37.8676 12.6497 37.8634 14.2044C37.8634 15.6668 37.6622 17.2635 37.2865 18.9183C37.0286 18.9435 36.7739 18.9945 36.5262 19.0704C36.3024 18.3437 35.8515 17.7078 35.2397 17.2563C34.628 16.8047 33.8875 16.5611 33.1271 16.5613C32.6604 16.5655 32.1976 16.4766 31.7657 16.2998C31.3337 16.123 30.9414 15.8618 30.6116 15.5316C30.2817 15.2014 30.0211 14.8087 29.8448 14.3765C29.6686 13.9444 29.5802 13.4814 29.585 13.0147C29.585 12.7004 29.4601 12.3989 29.2379 12.1767C29.0156 11.9544 28.7141 11.8295 28.3998 11.8295C28.0855 11.8295 27.784 11.9544 27.5618 12.1767C27.3395 12.3989 27.2146 12.7004 27.2146 13.0147C27.2194 13.4818 27.1309 13.9451 26.9544 14.3776C26.7779 14.81 26.5168 15.2029 26.1865 15.5332C25.8562 15.8635 25.4633 16.1246 25.0309 16.3011C24.5984 16.4776 24.1351 16.5661 23.668 16.5613H18.9317C18.1715 16.5688 17.4336 16.8188 16.8254 17.275C16.2172 17.7311 15.7706 18.3695 15.5506 19.0972C14.8696 18.88 14.1413 18.8583 13.4486 19.0346C12.6762 19.2291 11.9871 19.6674 11.4835 20.2845C10.98 20.9017 10.6888 21.6647 10.6533 22.4604C10.6145 23.9391 11.1451 25.3763 12.1356 26.4749C13.126 27.5736 14.5007 28.2499 15.9755 28.364C16.5748 30.0859 17.6079 31.5752 18.9317 32.7693V35.4975C18.6193 35.4996 18.3159 35.625 18.0954 35.8464L15.725 38.2167C15.5744 38.3689 15.4679 38.5591 15.4167 38.767C15.3655 38.9749 15.3716 39.1927 15.4343 39.3974L23.0285 64.0762L14.3073 52.9712L15.3493 48.8029C15.3983 48.6047 15.3952 48.3972 15.3403 48.2005C15.2854 48.0038 15.1807 47.8246 15.0363 47.6803L11.9503 44.5944L13.0952 39.7329C13.1407 39.5358 13.1349 39.3304 13.0786 39.1362C13.0222 38.9419 12.917 38.7654 12.7731 38.6233C12.6292 38.4812 12.4514 38.3783 12.2565 38.3243C12.0615 38.2704 11.8561 38.2672 11.6596 38.3151C8.32628 39.1438 5.3667 41.0654 3.25329 43.773C1.13989 46.4806 -0.0054825 49.8182 1.97317e-05 53.253V69.8143C1.97317e-05 70.4717 0.532237 70.9995 1.18521 70.9995H44.9701C46.5667 71.0218 46.5667 68.6112 44.9701 68.6291H28.4669L39.9878 53.9864C40.0989 53.8441 40.176 53.6782 40.2132 53.5014C40.2504 53.3247 40.2468 53.1418 40.2025 52.9667L39.1828 48.8834L42.2598 45.8064C42.3972 45.6684 42.4984 45.4987 42.5545 45.3122C42.6107 45.1258 42.6201 44.9284 42.5818 44.7375L41.911 41.3429C43.9101 42.1972 45.708 43.5881 47.0587 45.3681C48.0158 46.6204 49.8897 45.1937 48.9461 43.9369C46.8973 41.1925 43.9555 39.2486 40.6274 38.4403C40.4334 38.3926 40.2305 38.3947 40.0375 38.4465C39.8446 38.4982 39.6678 38.5978 39.5237 38.7362C39.3795 38.8745 39.2727 39.047 39.2131 39.2377C39.1535 39.4284 39.1431 39.631 39.1828 39.8268L40.1354 44.581L37.036 47.6848C36.8916 47.8291 36.7868 48.0083 36.732 48.205C36.6771 48.4016 36.674 48.6092 36.723 48.8074L37.765 52.9801L29.0438 64.0851L36.638 39.3974C36.6987 39.1926 36.7029 38.9751 36.6502 38.7681C36.5974 38.561 36.4897 38.372 36.3383 38.2212L33.9724 35.8508C33.862 35.7407 33.7308 35.6536 33.5865 35.5945C33.4422 35.5354 33.2876 35.5055 33.1316 35.5065V32.7783C34.4599 31.5886 35.4931 30.0993 36.0924 28.3774C38.9681 28.1628 41.4235 25.8863 41.4235 22.4649C41.4001 21.8478 41.2193 21.247 40.8984 20.7194C40.5775 20.1918 40.127 19.755 39.5898 19.4505C39.9923 17.6615 40.2338 15.886 40.2338 14.2088C40.2314 10.4435 38.7355 6.8328 36.0743 4.16903C33.413 1.50525 29.7993 0.00592151 26.0339 0ZM28.4043 16.5703C28.9522 17.3052 29.665 17.9014 30.4853 18.3107C31.3055 18.7201 32.2104 18.9313 33.1271 18.9272C33.2844 18.9236 33.4407 18.9518 33.5867 19.0103C33.7327 19.0688 33.8653 19.1563 33.9765 19.2675C34.0877 19.3787 34.1752 19.5113 34.2337 19.6573C34.2922 19.8033 34.3205 19.9597 34.3168 20.1169V24.8532C34.3168 29.4598 30.6494 33.1316 26.0384 33.1316C21.4273 33.1316 17.7465 29.4642 17.7465 24.8532V20.1169C17.7429 19.96 17.771 19.8041 17.8292 19.6584C17.8874 19.5127 17.9745 19.3803 18.0853 19.2691C18.196 19.158 18.3281 19.0704 18.4735 19.0116C18.619 18.9529 18.7749 18.9242 18.9317 18.9272H23.6725C24.59 18.932 25.4957 18.7211 26.3168 18.3117C27.1379 17.9024 27.8559 17.3059 28.4043 16.5703ZM15.3762 21.6957V24.8532C15.3762 25.1886 15.394 25.524 15.4254 25.855C14.106 25.4659 13.0281 24.3478 13.0281 22.5007C13.0281 21.2708 14.8618 20.913 15.3762 21.6957ZM39.0352 22.5096C39.0614 23.2556 38.8394 23.9891 38.4039 24.5953C37.9685 25.2015 37.3443 25.6461 36.629 25.8595C36.6612 25.525 36.6776 25.1892 36.6782 24.8532V21.6957C37.2239 20.8906 39.0397 21.2752 39.0397 22.5052L39.0352 22.5096ZM30.7747 34.3839V37.1076L26.0429 41.0567L21.3066 37.112V34.3839C22.7764 35.1191 24.3972 35.5019 26.0406 35.5019C27.684 35.5019 29.3049 35.1191 30.7747 34.3839ZM19.0122 38.2883L24.1018 42.5281L19.8173 45.5828L17.912 39.3751L19.0122 38.2883ZM33.0645 38.2883L34.1647 39.3751L32.255 45.5828L27.9749 42.5237L33.0645 38.2883ZM10.3089 41.2535L9.50389 44.6972C9.4582 44.8928 9.46296 45.0968 9.51772 45.29C9.57248 45.4833 9.67545 45.6594 9.81696 45.8019L12.894 48.8789L11.8743 52.9623C11.8307 53.1367 11.8274 53.3187 11.8646 53.4946C11.9018 53.6705 11.9785 53.8356 12.0889 53.9775L23.6009 68.6336H10.6533V60.3507C10.6533 60.0363 10.5284 59.7349 10.3062 59.5126C10.0839 59.2904 9.78244 59.1655 9.46811 59.1655C9.15378 59.1655 8.85232 59.2904 8.63005 59.5126C8.40779 59.7349 8.28292 60.0363 8.28292 60.3507V68.6336H2.3704V53.2485C2.3704 47.8771 5.70681 43.2527 10.3089 41.2535ZM63.3517 50.6858L59.2728 59.8721C59.2068 60.023 59.1733 60.186 59.1745 60.3507C59.1745 60.3507 59.1566 61.7774 59.89 63.2443C60.6235 64.7068 62.1576 66.2632 65.087 66.2632C68.0209 66.2632 69.5504 64.7068 70.2839 63.2443C71.0174 61.7774 70.9995 60.3507 70.9995 60.3507C71.0011 60.1864 70.9691 60.0236 70.9056 59.8721L66.8223 50.6769C67.4842 50.5293 68.6917 50.1044 69.4744 49.353C70.5299 48.3333 69.0182 46.5578 67.8062 47.6759C67.3679 48.0784 66.1872 48.5122 65.087 48.5122C62.0994 48.4675 60.7935 46.4638 56.8041 46.2V43.7804C56.8064 43.6253 56.7782 43.4713 56.7211 43.3272C56.6639 43.183 56.5789 43.0515 56.4709 42.9402C56.363 42.8289 56.2341 42.74 56.0918 42.6785C55.9494 42.617 55.7963 42.5841 55.6413 42.5818C55.6278 42.5818 55.6234 42.5729 55.6189 42.5729C55.4638 42.5752 55.3107 42.608 55.1684 42.6695C55.026 42.731 54.8972 42.82 54.7892 42.9313C54.6812 43.0426 54.5962 43.1741 54.5391 43.3182C54.4819 43.4624 54.4537 43.6164 54.4561 43.7715V46.191C50.4622 46.4549 49.1607 48.463 46.1732 48.5033C45.0729 48.5033 43.8878 48.0694 43.4495 47.6669C42.2419 46.5488 40.7302 48.3244 41.7857 49.3441C42.5639 50.0954 43.7715 50.5203 44.4334 50.6679L40.3501 59.8632C40.2873 60.0148 40.2569 60.1777 40.2606 60.3417C40.2606 60.3417 40.2383 61.7684 40.9762 63.2354C41.7052 64.6979 43.2393 66.2543 46.1687 66.2543C49.0981 66.2543 50.6322 64.6979 51.3656 63.2354C52.0991 61.7684 52.0812 60.3417 52.0812 60.3417C52.0828 60.1775 52.0508 60.0146 51.9873 59.8632L47.904 50.6769C50.3236 50.2922 51.7458 48.5122 55.6189 48.5077C59.5099 48.5122 60.9232 50.3012 63.3517 50.6858ZM26.0339 44.0532L27.8855 45.3771L26.5885 47.336H25.4883L24.1823 45.3771L26.0339 44.0532ZM22.2547 46.7546L23.6054 48.785L22.6215 54.702L20.5507 47.9711L22.2547 46.7546ZM29.8131 46.7546L31.5126 47.9711L29.4464 54.6931L28.4624 48.7895L29.8131 46.7546ZM25.8505 49.7063H26.2173L27.89 59.7514L26.0294 65.7936L24.1779 59.7648L25.8505 49.7063ZM55.6278 50.8558C55.0375 50.8558 54.4471 51.2493 54.4471 52.0365V68.6246H49.6527C48.056 68.732 48.1634 71.0308 49.7108 70.9905H55.6144V70.9995H61.5404C63.0833 71.0397 63.1951 68.7409 61.594 68.6291H56.7996V52.0454C56.7996 51.2627 56.2182 50.8736 55.6368 50.8647V50.8558H55.6278ZM46.1642 52.6L49.0713 59.1521H43.2572L46.1642 52.6ZM65.0825 52.6089L67.9896 59.161H62.1754L65.0825 52.6089ZM42.8278 61.5224H49.5051C49.5051 61.5224 49.0847 63.8884 46.1687 63.8884C43.2482 63.8884 42.8278 61.5224 42.8278 61.5224ZM61.7461 61.5314H68.4189C68.4189 61.5314 68.003 63.8973 65.0825 63.8973C62.162 63.8973 61.7461 61.5314 61.7461 61.5314Z" fill="#A61B28"/>
</svg>
