<svg width="44" height="44" viewBox="0 0 44 44" fill="none" xmlns="http://www.w3.org/2000/svg">
<path fill-rule="evenodd" clip-rule="evenodd" d="M10.2143 31.6188C10.2143 31.7996 10.1425 31.9731 10.0146 32.1009C9.88674 32.2288 9.71331 32.3007 9.53246 32.3007H4.66868C4.37471 33.284 3.46177 34.0028 2.38399 34.0028C1.06943 34.0028 0 32.9333 0 31.6188V22.1562C0 20.587 0.495038 19.2341 1.43159 18.2439C2.34691 17.2761 3.63087 16.7431 5.04695 16.7431H11.4137C12.6603 16.7431 13.6948 16.3146 14.5762 15.4331L18.7365 11.2727C19.6661 10.3432 21.1785 10.3432 22.1081 11.2727C23.0375 12.2022 23.0375 13.7146 22.1081 14.6441L15.4711 21.2811V22.1457C15.4711 22.3266 15.3993 22.5 15.2714 22.6279C15.1435 22.7558 14.9701 22.8276 14.7893 22.8276C14.6084 22.8276 14.435 22.7558 14.3071 22.6279C14.1792 22.5 14.1074 22.3266 14.1074 22.1457V20.9987C14.1074 20.8179 14.1792 20.6445 14.3071 20.5166L21.1438 13.68C21.5416 13.2822 21.5416 12.6349 21.1438 12.2371C20.9524 12.0458 20.6962 11.9403 20.4224 11.9403C20.1485 11.9403 19.8923 12.0458 19.7009 12.2371L15.5406 16.3976C14.4062 17.5318 13.0178 18.107 11.4137 18.107H5.04695C2.84391 18.107 1.36374 19.7344 1.36374 22.1565V31.619C1.36374 32.1817 1.82136 32.6393 2.38399 32.6393C2.94662 32.6393 3.40432 32.1817 3.40432 31.619V23.5755C3.40432 23.3947 3.47616 23.2212 3.60404 23.0934C3.73191 22.9655 3.90535 22.8937 4.08619 22.8937C4.26704 22.8937 4.44047 22.9655 4.56835 23.0934C4.69622 23.2212 4.76806 23.3947 4.76806 23.5755V30.9372H9.53246C9.71331 30.9372 9.88674 31.009 10.0146 31.1369C10.1425 31.2648 10.2143 31.4382 10.2143 31.619V31.6188ZM5.21307 12.2587C5.21307 9.92925 7.10816 8.03407 9.4376 8.03407C11.767 8.03407 13.6622 9.92925 13.6622 12.2587C13.6622 14.5881 11.767 16.4833 9.4376 16.4833C7.10816 16.4833 5.21307 14.5881 5.21307 12.2587ZM6.57681 12.2587C6.57681 13.8362 7.86018 15.1196 9.4376 15.1196C11.015 15.1196 12.2985 13.8362 12.2985 12.2587C12.2985 10.6812 11.015 9.39782 9.4376 9.39782C7.86018 9.39782 6.57681 10.6812 6.57681 12.2587ZM43.042 22.3358L43.0409 22.321C42.9191 20.7383 42.5062 19.9859 41.4042 19.34C40.6749 18.9122 39.5182 18.5963 38.2908 18.2824L35.6334 17.6288C34.4431 17.3362 33.3792 17.3362 32.1891 17.6288L29.5257 18.284C28.3043 18.5965 27.1476 18.9124 26.4184 19.34C25.3163 19.9862 24.9034 20.7383 24.7816 22.321C24.7748 22.4103 24.7856 22.5001 24.8134 22.5852C24.8412 22.6703 24.8855 22.7491 24.9438 22.8171C25.0021 22.8851 25.0732 22.9409 25.153 22.9814C25.2329 23.022 25.3199 23.0463 25.4092 23.0532C25.7843 23.081 26.1125 22.8011 26.1414 22.4256C26.2397 21.147 26.498 20.8743 27.1082 20.5166C27.7321 20.1507 29.0149 19.8224 29.8575 19.6069L32.5148 18.9533C33.489 18.7137 34.3333 18.7137 35.3078 18.9533L37.959 19.6052C38.8077 19.8224 40.0905 20.1505 40.7145 20.5165C41.3235 20.8734 41.5819 21.146 41.6807 22.4182C41.8246 25.0402 41.7567 27.4647 41.6711 29.4906C41.6556 29.88 41.4897 30.2482 41.2084 30.5179C40.9271 30.7876 40.5522 30.9378 40.1625 30.937H40.0242V23.7352C40.0242 23.5544 39.9523 23.381 39.8245 23.2531C39.6966 23.1252 39.5231 23.0534 39.3423 23.0534C39.1615 23.0534 38.988 23.1252 38.8601 23.2531C38.7323 23.381 38.6604 23.5544 38.6604 23.7352V30.937H33.6378C33.4569 30.937 33.2835 31.0088 33.1556 31.1367C33.0277 31.2646 32.9559 31.438 32.9559 31.6189C32.9559 31.7997 33.0277 31.9731 33.1556 32.101C33.2835 32.2289 33.4569 32.3007 33.6378 32.3007H40.1625C40.9042 32.3023 41.6176 32.0164 42.153 31.5032C42.6884 30.9899 43.0041 30.2892 43.0338 29.5481C43.1208 27.4874 43.1898 25.019 43.0421 22.3359L43.042 22.3358ZM29.702 12.907C29.702 10.586 31.5903 8.6977 33.9113 8.6977C36.2323 8.6977 38.1206 10.586 38.1206 12.907C38.1206 15.228 36.2323 17.1162 33.9113 17.1162C31.5903 17.1162 29.702 15.228 29.702 12.907ZM31.0658 12.907C31.0658 14.476 32.3423 15.7525 33.9113 15.7525C35.4803 15.7525 36.7568 14.476 36.7568 12.907C36.7568 11.338 35.4803 10.0614 33.9113 10.0614C32.3423 10.0614 31.0658 11.338 31.0658 12.907ZM11.2023 4.84173L15.0222 7.87281C15.33 8.11718 15.7408 8.16261 16.0942 7.99205C16.4477 7.82133 16.6674 7.47119 16.6674 7.07818V6.22993H25.5654C25.7462 6.22993 25.9196 6.15809 26.0475 6.03022C26.1754 5.90234 26.2472 5.7289 26.2472 5.54806V4.74098L29.1562 7.04911L26.2472 9.35724V8.55016C26.2472 8.36932 26.1754 8.19588 26.0475 8.06801C25.9196 7.94013 25.7462 7.86829 25.5654 7.86829H18.4971C18.3163 7.86829 18.1428 7.94013 18.0149 8.06801C17.8871 8.19588 17.8152 8.36932 17.8152 8.55016C17.8152 8.73101 17.8871 8.90444 18.0149 9.03232C18.1428 9.1602 18.3163 9.23203 18.4971 9.23203H24.8835V10.0803C24.8835 10.4732 25.1031 10.8234 25.4567 10.9942C25.5947 11.0611 25.746 11.096 25.8993 11.0963C26.128 11.0959 26.3499 11.0179 26.5285 10.875L30.3485 7.84392C30.4686 7.74918 30.5656 7.62838 30.6321 7.49066C30.6986 7.35294 30.733 7.20189 30.7326 7.04894C30.7326 6.73741 30.5925 6.44779 30.3486 6.25448L26.5285 3.22331C26.2207 2.97903 25.8098 2.93351 25.4566 3.10424C25.1031 3.27496 24.8835 3.6251 24.8835 4.01803V4.86627H15.9855C15.8047 4.86627 15.6312 4.93811 15.5034 5.06599C15.3755 5.19387 15.3036 5.3673 15.3036 5.54815V6.35522L12.3947 4.04709L15.3036 1.73896V2.54613C15.3036 2.72697 15.3755 2.90041 15.5034 3.02828C15.6312 3.15616 15.8047 3.228 15.9855 3.228H23.0538C23.2346 3.228 23.4081 3.15616 23.5359 3.02828C23.6638 2.90041 23.7357 2.72697 23.7357 2.54613C23.7357 2.36528 23.6638 2.19185 23.5359 2.06397C23.4081 1.93609 23.2346 1.86426 23.0538 1.86426H16.6674V1.01592C16.6674 0.62308 16.4478 0.27294 16.0943 0.102131C15.7408 -0.0685066 15.3302 -0.0229917 15.0224 0.221203L11.2025 3.2522C11.0825 3.3469 10.9855 3.46765 10.9189 3.60532C10.8524 3.743 10.8179 3.894 10.8183 4.04692C10.8179 4.19985 10.8522 4.35087 10.9188 4.48858C10.9853 4.62629 11.0822 4.74699 11.2023 4.84173ZM32.4799 30.92V33.5294C32.4799 34.0856 32.0839 34.5674 31.5381 34.6748L30.4884 34.8818L29.7533 36.656L30.3495 37.5449C30.6592 38.0068 30.5986 38.6275 30.2054 39.0207L28.3604 40.8658C27.9671 41.2588 27.3465 41.3195 26.8845 41.0098L25.9956 40.4137L24.2215 41.1487L24.0145 42.1986C23.9068 42.7442 23.4251 43.1403 22.8691 43.1403H20.2597C19.7035 43.1403 19.2218 42.7442 19.1143 42.1984L18.9073 41.1487L17.1331 40.4137L16.2441 41.0098C15.7822 41.3194 15.1618 41.2589 14.7685 40.8659L12.9234 39.0207C12.5302 38.6275 12.4695 38.0067 12.7793 37.5449L13.3754 36.656L12.6403 34.8818L11.5906 34.6748C11.045 34.5673 10.6489 34.0856 10.6489 33.5294V30.92C10.6489 30.3638 11.0449 29.8821 11.5907 29.7746L12.6403 29.5676L13.3754 27.7934L12.7793 26.9045C12.4694 26.4425 12.5301 25.8218 12.9236 25.4286L14.7685 23.5836C15.1617 23.1904 15.7824 23.1298 16.2443 23.4395L17.1332 24.0356L18.9074 23.3006L19.1144 22.2507C19.2218 21.7052 19.7036 21.3091 20.2598 21.3091H22.8692C23.4252 21.3091 23.907 21.7051 24.0145 22.2507L24.2216 23.3006L25.9957 24.0356L26.8846 23.4395C27.3465 23.1298 27.9673 23.1903 28.3605 23.5838L30.2055 25.4287C30.5988 25.8218 30.6594 26.4425 30.3496 26.9045L29.7535 27.7934L30.4886 29.5676L31.5384 29.7747C32.0839 29.8821 32.48 30.3638 32.48 30.92H32.4799ZM31.1161 31.0814L29.8663 30.8349C29.7561 30.8132 29.653 30.7645 29.5661 30.6934C29.4792 30.6222 29.4112 30.5307 29.3682 30.427L28.3536 27.978C28.3106 27.8742 28.294 27.7614 28.305 27.6496C28.3161 27.5378 28.3547 27.4305 28.4172 27.3371L29.1269 26.2789L27.51 24.662L26.4518 25.3717C26.3585 25.4342 26.2511 25.4727 26.1393 25.4838C26.0275 25.4949 25.9147 25.4782 25.8109 25.4352L23.362 24.4206C23.2582 24.3776 23.1667 24.3097 23.0955 24.2228C23.0244 24.1359 22.9758 24.0328 22.9541 23.9226L22.7076 22.6727H20.4208L20.1743 23.9226C20.1526 24.0328 20.104 24.1359 20.0328 24.2228C19.9617 24.3096 19.8701 24.3776 19.7664 24.4206L17.3175 25.4352C17.2137 25.4782 17.1009 25.4949 16.989 25.4838C16.8772 25.4727 16.7699 25.4342 16.6766 25.3717L15.6184 24.662L14.0014 26.279L14.7111 27.3371C14.7736 27.4305 14.8122 27.5378 14.8233 27.6496C14.8344 27.7614 14.8177 27.8742 14.7747 27.978L13.7601 30.427C13.7171 30.5307 13.6491 30.6222 13.5622 30.6934C13.4754 30.7646 13.3722 30.8132 13.262 30.8349L12.0122 31.0814V33.3681L13.262 33.6145C13.3721 33.6363 13.4753 33.6849 13.5622 33.756C13.6491 33.8272 13.717 33.9187 13.7601 34.0225L14.7747 36.4715C14.8177 36.5753 14.8343 36.6881 14.8232 36.7999C14.8122 36.9117 14.7736 37.019 14.7111 37.1124L14.0014 38.1705L15.6183 39.7875L16.6767 39.0778C16.77 39.0153 16.8773 38.9768 16.989 38.9657C17.1008 38.9546 17.2136 38.9713 17.3174 39.0143L19.7663 40.0288C19.8701 40.0718 19.9617 40.1397 20.0328 40.2266C20.104 40.3135 20.1526 40.4166 20.1743 40.5268L20.4208 41.7768H22.7076L22.9541 40.5268C22.9758 40.4166 23.0244 40.3135 23.0956 40.2266C23.1668 40.1397 23.2583 40.0718 23.3621 40.0288L25.8109 39.0143C25.9147 38.9713 26.0275 38.9546 26.1393 38.9657C26.251 38.9768 26.3583 39.0153 26.4516 39.0778L27.5101 39.7875L29.1269 38.1706L28.4172 37.1124C28.3547 37.019 28.3161 36.9117 28.305 36.7999C28.2939 36.6881 28.3106 36.5753 28.3536 36.4715L29.3682 34.0225C29.4112 33.9187 29.4792 33.8271 29.5661 33.756C29.653 33.6848 29.7561 33.6362 29.8664 33.6145L31.1161 33.3681V31.0814ZM28.1479 32.2247C28.1479 35.855 25.1945 38.8083 21.5642 38.8083C17.934 38.8083 14.9807 35.855 14.9807 32.2247C14.9807 28.5944 17.934 25.6412 21.5642 25.6412C25.1944 25.6412 28.1479 28.5945 28.1479 32.2247ZM26.7841 32.2247C26.7841 29.3464 24.4425 27.0049 21.5642 27.0049C18.686 27.0049 16.3444 29.3465 16.3444 32.2247C16.3444 35.1029 18.6861 37.4446 21.5642 37.4446C24.4424 37.4446 26.7841 35.103 26.7841 32.2247ZM24.2955 30.6122H21.9582L23.2532 28.3692C23.319 28.2551 23.2373 28.1135 23.1056 28.1135H21.0911C21.0286 28.1135 20.9749 28.1444 20.9436 28.1984L18.6108 32.2246C18.5957 32.2505 18.5877 32.2799 18.5876 32.3099C18.5875 32.3399 18.5954 32.3694 18.6103 32.3953C18.6253 32.4213 18.6469 32.4429 18.6728 32.4578C18.6988 32.4728 18.7283 32.4807 18.7583 32.4806H20.8512L19.3156 36.3447C19.2449 36.5225 19.4789 36.6639 19.6034 36.5186L24.4249 30.8936C24.5198 30.7829 24.4413 30.6122 24.2955 30.6122Z" fill="white"/>
</svg>
