<svg width="38" height="40" viewBox="0 0 38 40" fill="none" xmlns="http://www.w3.org/2000/svg">
<path d="M33.3922 8.35104H23.7558C23.5553 8.35104 23.3631 8.27141 23.2214 8.12967C23.0796 7.98793 23 7.79569 23 7.59525V2.23382C23 2.03337 23.0796 1.84113 23.2214 1.69939C23.3631 1.55766 23.5553 1.47803 23.7558 1.47803H33.3922C33.5926 1.47803 33.7849 1.55766 33.9266 1.69939C34.0683 1.84113 34.148 2.03337 34.148 2.23382V7.59525C34.148 7.79569 34.0683 7.98793 33.9266 8.12967C33.7849 8.27141 33.5926 8.35104 33.3922 8.35104ZM24.5116 6.83945H32.6364V2.98962H24.5116V6.83945Z" fill="white"/>
<path d="M22.3079 9.79665C21.7243 9.79603 21.1648 9.56391 20.7521 9.15123C20.3394 8.73855 20.1073 8.17901 20.1067 7.5954V2.23397C20.1024 1.94216 20.1562 1.6524 20.2649 1.38156C20.3736 1.11071 20.5351 0.864188 20.74 0.656314C20.9448 0.44844 21.1889 0.283368 21.4582 0.170695C21.7274 0.0580231 22.0163 0 22.3082 0C22.6 0 22.889 0.0580231 23.1582 0.170695C23.4274 0.283368 23.6715 0.44844 23.8764 0.656314C24.0812 0.864188 24.2427 1.11071 24.3514 1.38156C24.4602 1.6524 24.5139 1.94216 24.5097 2.23397V7.5954C24.5089 8.17906 24.2767 8.73859 23.8639 9.15126C23.4512 9.56392 22.8916 9.79603 22.3079 9.79665ZM22.3079 1.54384C22.125 1.54409 21.9497 1.6169 21.8204 1.74628C21.6911 1.87566 21.6184 2.05106 21.6183 2.23397V7.5954C21.623 7.77525 21.6977 7.94615 21.8266 8.07168C21.9555 8.19722 22.1283 8.26748 22.3082 8.26748C22.4881 8.26748 22.6609 8.19722 22.7897 8.07168C22.9186 7.94615 22.9934 7.77525 22.9981 7.5954V2.23397C22.9979 2.05098 22.9252 1.87551 22.7958 1.74611C22.6664 1.61672 22.4909 1.54396 22.3079 1.54384ZM34.8381 9.79665C34.2544 9.79603 33.6948 9.56392 33.2821 9.15126C32.8693 8.73859 32.6371 8.17906 32.6364 7.5954V2.23397C32.6364 1.65004 32.8683 1.09002 33.2812 0.677119C33.6941 0.264216 34.2541 0.0322485 34.8381 0.0322485C35.422 0.0322485 35.982 0.264216 36.3949 0.677119C36.8078 1.09002 37.0398 1.65004 37.0398 2.23397V7.5954C37.0391 8.17906 36.8068 8.73859 36.3941 9.15126C35.9813 9.56392 35.4217 9.79603 34.8381 9.79665ZM34.8381 1.54384C34.6551 1.54409 34.4797 1.61688 34.3504 1.74625C34.221 1.87562 34.1482 2.05102 34.1479 2.23397V7.5954C34.1479 7.77843 34.2207 7.95397 34.3501 8.0834C34.4795 8.21282 34.655 8.28553 34.8381 8.28553C35.0211 8.28553 35.1967 8.21282 35.3261 8.0834C35.4555 7.95397 35.5282 7.77843 35.5282 7.5954V2.23397C35.528 2.05102 35.4552 1.87562 35.3258 1.74625C35.1964 1.61688 35.021 1.54409 34.8381 1.54384ZM30.1876 11.5851H26.9584C26.3298 11.5851 25.7269 11.3353 25.2823 10.8908C24.8378 10.4463 24.5881 9.84335 24.5881 9.21469C24.5881 8.58603 24.8378 7.98312 25.2823 7.53859C25.7269 7.09406 26.3298 6.84433 26.9584 6.84433H30.1876C30.8162 6.84433 31.4191 7.09406 31.8637 7.53859C32.3082 7.98312 32.5579 8.58603 32.5579 9.21469C32.5579 9.84335 32.3082 10.4463 31.8637 10.8908C31.4191 11.3353 30.8162 11.5851 30.1876 11.5851ZM26.9584 8.35592C26.7307 8.35592 26.5122 8.44639 26.3512 8.60744C26.1901 8.7685 26.0997 8.98693 26.0997 9.21469C26.0997 9.44245 26.1901 9.66088 26.3512 9.82193C26.5122 9.98298 26.7307 10.0735 26.9584 10.0735H30.1876C30.4153 10.0735 30.6338 9.98298 30.7948 9.82193C30.9559 9.66088 31.0463 9.44245 31.0463 9.21469C31.0463 8.98693 30.9559 8.7685 30.7948 8.60744C30.6338 8.44639 30.4153 8.35592 30.1876 8.35592H26.9584Z" fill="white"/>
<path d="M28.5728 28.0953C27.5587 28.0953 26.6012 27.7174 26.0121 27.0793C25.5808 26.614 25.3683 26.0353 25.4136 25.4505L26.5473 10.7758C26.562 10.5856 26.648 10.408 26.7882 10.2786C26.9284 10.1492 27.1123 10.0776 27.3031 10.0781H29.8501C30.0409 10.0776 30.2248 10.1492 30.365 10.2786C30.5052 10.408 30.5913 10.5856 30.6059 10.7758L31.7396 25.4505C31.7845 26.0353 31.5719 26.614 31.1411 27.0793C30.545 27.7156 29.5875 28.0953 28.5728 28.0953ZM27.9989 11.5897L26.9205 25.5667C26.9077 25.7316 26.9753 25.8974 27.1212 26.0523C27.4245 26.3802 27.981 26.5838 28.5728 26.5838C29.1647 26.5838 29.7212 26.3802 30.0249 26.0523C30.1704 25.895 30.238 25.7316 30.2252 25.5667L29.1482 11.5897H27.9989ZM7.3605 34.9306C7.16005 34.9306 6.96781 34.8509 6.82607 34.7092C6.68433 34.5675 6.60471 34.3752 6.60471 34.1748V16.5624C6.60471 15.5487 6.31514 14.6035 5.78845 13.902C5.31088 13.2657 4.69632 12.9147 4.05815 12.9147C3.41997 12.9147 2.80542 13.2657 2.32785 13.9025C1.80163 14.6039 1.51159 15.5487 1.51159 16.5624V20.9654C1.51159 21.1658 1.43196 21.358 1.29022 21.4998C1.14848 21.6415 0.956245 21.7212 0.755795 21.7212C0.555346 21.7212 0.363106 21.6415 0.221367 21.4998C0.079628 21.358 0 21.1658 0 20.9654V16.5624C0 15.2237 0.397265 13.9568 1.11858 12.9955C1.88854 11.9686 2.93249 11.4031 4.05815 11.4031C5.18381 11.4031 6.22728 11.97 6.99772 12.9946C7.71903 13.9568 8.1163 15.2237 8.1163 16.5624V34.1748C8.1163 34.3752 8.03667 34.5675 7.89493 34.7092C7.75319 34.8509 7.56095 34.9306 7.3605 34.9306Z" fill="white"/>
<path d="M10.6626 39.3336C9.53745 39.3336 8.49351 38.7667 7.72307 37.7417C7.00176 36.7809 6.60449 35.514 6.60449 34.1748V16.5619C6.60449 16.3615 6.68412 16.1693 6.82586 16.0275C6.9676 15.8858 7.15984 15.8062 7.36029 15.8062C7.56074 15.8062 7.75298 15.8858 7.89472 16.0275C8.03645 16.1693 8.11608 16.3615 8.11608 16.5619V34.1743C8.11608 35.1885 8.40612 36.1328 8.93234 36.8338C9.40991 37.471 10.0245 37.822 10.6626 37.822C11.3008 37.822 11.9158 37.4715 12.3934 36.8347C12.9196 36.1333 13.2092 35.1885 13.2092 34.1748V29.7714C13.2092 29.5709 13.2888 29.3787 13.4306 29.2369C13.5723 29.0952 13.7645 29.0156 13.965 29.0156C14.1654 29.0156 14.3577 29.0952 14.4994 29.2369C14.6412 29.3787 14.7208 29.5709 14.7208 29.7714V34.1743C14.7208 35.513 14.324 36.7795 13.6027 37.7412C12.8327 38.7667 11.7888 39.3336 10.6626 39.3336Z" fill="white"/>
<path d="M22.2145 30.5271C22.0141 30.5271 21.8218 30.4474 21.6801 30.3057C21.5384 30.164 21.4587 29.9717 21.4587 29.7713V16.5921C21.4587 15.5708 21.1663 14.6185 20.6359 13.9114C20.154 13.269 19.5338 12.9152 18.8881 12.9152H4.0556C3.85515 12.9152 3.66291 12.8355 3.52117 12.6938C3.37943 12.552 3.2998 12.3598 3.2998 12.1594C3.2998 11.9589 3.37943 11.7667 3.52117 11.6249C3.66291 11.4832 3.85515 11.4036 4.0556 11.4036H18.8881C20.0218 11.4036 21.0695 11.9704 21.8437 13.004C22.5693 13.9714 22.9689 15.2458 22.9689 16.594V29.7732C22.9684 29.973 22.8888 30.1646 22.7474 30.3059C22.606 30.4472 22.4144 30.5267 22.2145 30.5271Z" fill="white"/>
<path d="M23.8383 39.3335H10.6629C10.4624 39.3335 10.2702 39.2538 10.1284 39.1121C9.98669 38.9704 9.90706 38.7781 9.90706 38.5777C9.90706 38.3772 9.98669 38.185 10.1284 38.0433C10.2702 37.9015 10.4624 37.8219 10.6629 37.8219H23.8383C24.4859 37.8219 25.1089 37.4662 25.5926 36.8209C26.1255 36.1124 26.4188 35.1544 26.4188 34.1284V30.5275H13.9652C13.7648 30.5275 13.5725 30.4479 13.4308 30.3061C13.289 30.1644 13.2094 29.9722 13.2094 29.7717C13.2094 29.5713 13.289 29.379 13.4308 29.2373C13.5725 29.0956 13.7648 29.0159 13.9652 29.0159H27.1746C27.3751 29.0159 27.5673 29.0956 27.709 29.2373C27.8508 29.379 27.9304 29.5713 27.9304 29.7717V34.1289C27.9304 35.4794 27.5298 36.7576 26.8019 37.7279C26.0258 38.7633 24.9734 39.3335 23.8383 39.3335ZM7.3605 21.7211H0.755795C0.555346 21.7211 0.363106 21.6415 0.221367 21.4997C0.079628 21.358 0 21.1657 0 20.9653C0 20.7648 0.079628 20.5726 0.221367 20.4309C0.363106 20.2891 0.555346 20.2095 0.755795 20.2095H7.3605C7.56095 20.2095 7.75319 20.2891 7.89493 20.4309C8.03667 20.5726 8.1163 20.7648 8.1163 20.9653C8.1163 21.1657 8.03667 21.358 7.89493 21.4997C7.75319 21.6415 7.56095 21.7211 7.3605 21.7211ZM19.1906 16.4371H10.3846C10.1842 16.4371 9.99194 16.3575 9.8502 16.2158C9.70846 16.074 9.62883 15.8818 9.62883 15.6813C9.62883 15.4809 9.70846 15.2886 9.8502 15.1469C9.99194 15.0052 10.1842 14.9255 10.3846 14.9255H19.1906C19.391 14.9255 19.5833 15.0052 19.725 15.1469C19.8668 15.2886 19.9464 15.4809 19.9464 15.6813C19.9464 15.8818 19.8668 16.074 19.725 16.2158C19.5833 16.3575 19.391 16.4371 19.1906 16.4371ZM19.1906 19.9601H10.3846C10.1842 19.9601 9.99194 19.8805 9.8502 19.7387C9.70846 19.597 9.62883 19.4047 9.62883 19.2043C9.62883 19.0038 9.70846 18.8116 9.8502 18.6699C9.99194 18.5281 10.1842 18.4485 10.3846 18.4485H19.1906C19.391 18.4485 19.5833 18.5281 19.725 18.6699C19.8668 18.8116 19.9464 19.0038 19.9464 19.2043C19.9464 19.4047 19.8668 19.597 19.725 19.7387C19.5833 19.8805 19.391 19.9601 19.1906 19.9601ZM19.1906 23.4821H10.3846C10.1842 23.4821 9.99194 23.4025 9.8502 23.2607C9.70846 23.119 9.62883 22.9267 9.62883 22.7263C9.62883 22.5258 9.70846 22.3336 9.8502 22.1919C9.99194 22.0501 10.1842 21.9705 10.3846 21.9705H19.1906C19.391 21.9705 19.5833 22.0501 19.725 22.1919C19.8668 22.3336 19.9464 22.5258 19.9464 22.7263C19.9464 22.9267 19.8668 23.119 19.725 23.2607C19.5833 23.4025 19.391 23.4821 19.1906 23.4821ZM19.1906 27.0046H10.3846C10.1842 27.0046 9.99194 26.9249 9.8502 26.7832C9.70846 26.6415 9.62883 26.4492 9.62883 26.2488C9.62883 26.0483 9.70846 25.8561 9.8502 25.7143C9.99194 25.5726 10.1842 25.493 10.3846 25.493H19.1906C19.391 25.493 19.5833 25.5726 19.725 25.7143C19.8668 25.8561 19.9464 26.0483 19.9464 26.2488C19.9464 26.4492 19.8668 26.6415 19.725 26.7832C19.5833 26.9249 19.391 27.0046 19.1906 27.0046Z" fill="white"/>
</svg>
