<svg width="16" height="16" viewBox="0 0 16 16" fill="none" xmlns="http://www.w3.org/2000/svg">
<path d="M9.34547 7.94776C9.34547 8.71927 8.72 9.34474 7.94849 9.34474C7.17699 9.34474 6.55151 8.71927 6.55151 7.94776C6.55151 7.17626 7.17699 6.55078 7.94849 6.55078C8.72 6.55078 9.34547 7.17626 9.34547 7.94776Z" fill="#A61B28"/>
<path d="M10.3082 3.72656H5.58894C4.5617 3.72656 3.72607 4.56218 3.72607 5.58943V10.3087C3.72607 11.3359 4.5617 12.1716 5.58894 12.1716H10.3082C11.3355 12.1716 12.1711 11.3359 12.1711 10.3087V5.58943C12.1711 4.56218 11.3355 3.72656 10.3082 3.72656ZM7.94858 10.2777C6.66459 10.2777 5.61999 9.23305 5.61999 7.94906C5.61999 6.66508 6.66459 5.62048 7.94858 5.62048C9.23256 5.62048 10.2772 6.66508 10.2772 7.94906C10.2772 9.23305 9.23256 10.2777 7.94858 10.2777ZM10.6187 5.74467C10.3615 5.74467 10.153 5.53618 10.153 5.27895C10.153 5.02172 10.3615 4.81324 10.6187 4.81324C10.8759 4.81324 11.0844 5.02172 11.0844 5.27895C11.0844 5.53618 10.8759 5.74467 10.6187 5.74467Z" fill="#A61B28"/>
<path d="M11.705 0H4.19145C1.88032 0 0 1.88035 0 4.19145V11.705C0 14.0162 1.88035 15.8965 4.19145 15.8965H11.705C14.0162 15.8965 15.8965 14.0161 15.8965 11.705V4.19145C15.8965 1.88032 14.0161 0 11.705 0ZM13.1022 10.3079C13.1022 11.8486 11.8486 13.1022 10.3079 13.1022H5.58861C4.04786 13.1022 2.7943 11.8486 2.7943 10.3079V5.58861C2.7943 4.04786 4.04786 2.7943 5.58861 2.7943H10.3079C11.8486 2.7943 13.1022 4.04786 13.1022 5.58861V10.3079Z" fill="#A61B28"/>
</svg>
