<svg width="23" height="23" viewBox="0 0 23 23" fill="none" xmlns="http://www.w3.org/2000/svg">
<path d="M13.0736 11.1198C13.0736 12.1994 12.1984 13.0746 11.1188 13.0746C10.0393 13.0746 9.16406 12.1994 9.16406 11.1198C9.16406 10.0403 10.0393 9.16504 11.1188 9.16504C12.1984 9.16504 13.0736 10.0403 13.0736 11.1198Z" fill="url(#paint0_linear_259_4634)"/>
<path d="M14.4201 5.2124H7.81729C6.38006 5.2124 5.21094 6.38153 5.21094 7.81876V14.4215C5.21094 15.8587 6.38006 17.0279 7.81729 17.0279H14.4201C15.8573 17.0279 17.0264 15.8587 17.0264 14.4215V7.81876C17.0264 6.38153 15.8573 5.2124 14.4201 5.2124ZM11.1187 14.3781C9.32224 14.3781 7.86073 12.9166 7.86073 11.1201C7.86073 9.32371 9.32224 7.86219 11.1187 7.86219C12.9151 7.86219 14.3766 9.32371 14.3766 11.1201C14.3766 12.9166 12.9151 14.3781 11.1187 14.3781ZM14.8544 8.03595C14.4946 8.03595 14.2029 7.74426 14.2029 7.38436C14.2029 7.02447 14.4946 6.73278 14.8544 6.73278C15.2143 6.73278 15.506 7.02447 15.506 7.38436C15.506 7.74426 15.2143 8.03595 14.8544 8.03595Z" fill="url(#paint1_linear_259_4634)"/>
<path d="M16.3756 0H5.86393C2.6306 0 0 2.63065 0 5.86393V16.3756C0 19.6089 2.63065 22.2395 5.86393 22.2395H16.3756C19.6089 22.2395 22.2395 19.6089 22.2395 16.3756V5.86393C22.2395 2.6306 19.6089 0 16.3756 0ZM18.3302 14.4209C18.3302 16.5765 16.5765 18.3302 14.4209 18.3302H7.81858C5.66304 18.3302 3.90929 16.5765 3.90929 14.4209V7.81858C3.90929 5.66304 5.66304 3.90929 7.81858 3.90929H14.4209C16.5765 3.90929 18.3302 5.66304 18.3302 7.81858V14.4209Z" fill="url(#paint2_linear_259_4634)"/>
<defs>
<linearGradient id="paint0_linear_259_4634" x1="11.7866" y1="9.28289" x2="10.4116" y2="13.1725" gradientUnits="userSpaceOnUse">
<stop stop-color="#C217FE"/>
<stop offset="0.601055" stop-color="#EA0666"/>
<stop offset="1" stop-color="#FCE309"/>
</linearGradient>
<linearGradient id="paint1_linear_259_4634" x1="13.1369" y1="5.56857" x2="8.98129" y2="17.324" gradientUnits="userSpaceOnUse">
<stop stop-color="#C217FE"/>
<stop offset="0.601055" stop-color="#EA0666"/>
<stop offset="1" stop-color="#FCE309"/>
</linearGradient>
<linearGradient id="paint2_linear_259_4634" x1="14.9186" y1="0.67039" x2="7.0967" y2="22.7968" gradientUnits="userSpaceOnUse">
<stop stop-color="#C217FE"/>
<stop offset="0.601055" stop-color="#EA0666"/>
<stop offset="1" stop-color="#FCE309"/>
</linearGradient>
</defs>
</svg>
