<svg width="20" height="21" viewBox="0 0 20 21" fill="none" xmlns="http://www.w3.org/2000/svg">
<path d="M5.29883 9.06641C5.36096 9.00433 5.46147 9.00444 5.52344 9.06641C5.58526 9.1284 5.58548 9.22895 5.52344 9.29102L2.46289 12.3516L2.46191 12.3525C1.67604 13.1389 1.24121 14.189 1.24121 15.3008C1.24131 16.4126 1.67655 17.4627 2.46289 18.249C4.03856 19.8245 6.56897 19.8736 8.2041 18.3965L8.35938 18.249L8.36133 18.2461L11.4209 15.1885C11.4832 15.1262 11.5837 15.1257 11.6455 15.1875C11.7076 15.2496 11.7075 15.3511 11.6455 15.4131L8.58398 18.4736C7.70988 19.3477 6.56273 19.7861 5.41113 19.7861C4.2595 19.7861 3.11161 19.3479 2.2373 18.4736C1.38867 17.6249 0.922946 16.501 0.922852 15.3008C0.922852 14.1006 1.38887 12.9767 2.2373 12.1279L2.25391 12.1104H2.25293L5.29883 9.06641ZM11.4209 2.94434C13.17 1.19523 16.0183 1.19513 17.7676 2.94434C18.6163 3.79316 19.082 4.91696 19.082 6.11719C19.082 7.31734 18.6161 8.44125 17.7676 9.29004L14.7061 12.3516C14.6748 12.3828 14.6358 12.3984 14.5938 12.3984H14.5928C14.5723 12.3984 14.5521 12.3945 14.5332 12.3867C14.5143 12.3789 14.4969 12.3671 14.4824 12.3525L14.4814 12.3516C14.4196 12.2894 14.4196 12.1888 14.4814 12.127L17.543 9.06641V9.06543C18.329 8.27909 18.7637 7.22901 18.7637 6.11719C18.7636 5.07464 18.3812 4.08666 17.6855 3.31934L17.543 3.16895L17.3867 3.02148C15.7517 1.54478 13.222 1.59344 11.6465 3.16797L8.58398 6.23047C8.55292 6.26139 8.51358 6.27637 8.47168 6.27637H8.4707C8.45025 6.27639 8.43004 6.27247 8.41113 6.26465C8.3922 6.25681 8.37482 6.24498 8.36035 6.23047L8.35938 6.22949C8.29764 6.16747 8.29745 6.06679 8.35938 6.00488L11.4199 2.94434V2.94336L11.4209 2.94434Z" fill="#993333" stroke="#A61B28" stroke-width="1.84652"/>
<path d="M12.9512 7.53564C13.0133 7.47366 13.1138 7.47377 13.1758 7.53564C13.2379 7.59776 13.2378 7.69828 13.1758 7.76025L7.05371 13.8823C7.02246 13.9135 6.98341 13.9292 6.94141 13.9292H6.94043C6.92003 13.9292 6.89972 13.9253 6.88086 13.9175C6.86193 13.9096 6.84455 13.8978 6.83008 13.8833L6.8291 13.8823L6.79395 13.8296C6.77088 13.7724 6.78269 13.7043 6.8291 13.6577L12.9512 7.53564Z" fill="#993333" stroke="#A61B28" stroke-width="1.84652"/>
</svg>
