<svg width="18" height="25" viewBox="0 0 18 25" fill="none" xmlns="http://www.w3.org/2000/svg">
<path d="M12.75 9C12.75 11.1094 11.0625 12.75 9 12.75C6.89062 12.75 5.25 11.1094 5.25 9C5.25 6.9375 6.89062 5.25 9 5.25C11.0625 5.25 12.75 6.9375 12.75 9ZM9 11.25C10.2188 11.25 11.25 10.2656 11.25 9C11.25 7.78125 10.2188 6.75 9 6.75C7.73438 6.75 6.75 7.78125 6.75 9C6.75 10.2656 7.73438 11.25 9 11.25ZM18 9C18 13.125 12.5156 20.3906 10.0781 23.4375C9.51562 24.1406 8.4375 24.1406 7.875 23.4375C5.4375 20.3906 0 13.125 0 9C0 4.03125 3.98438 0 9 0C13.9688 0 18 4.03125 18 9ZM9 1.5C4.82812 1.5 1.5 4.875 1.5 9C1.5 9.75 1.73438 10.7344 2.25 12C2.76562 13.2188 3.46875 14.5312 4.3125 15.8438C5.90625 18.4219 7.78125 20.9062 9 22.4062C10.1719 20.9062 12.0469 18.4219 13.6406 15.8438C14.4844 14.5312 15.1875 13.2188 15.7031 12C16.2188 10.7344 16.5 9.75 16.5 9C16.5 4.875 13.125 1.5 9 1.5Z" fill="white"/>
</svg>
