<svg width="31" height="26" viewBox="0 0 31 26" fill="none" xmlns="http://www.w3.org/2000/svg">
<path d="M26.2905 13.5015H23.2754C22.865 13.5015 22.4677 13.5576 22.0896 13.6607C21.3437 12.1945 19.8209 11.187 18.0662 11.187H12.7365C10.9817 11.187 9.45894 12.1945 8.71306 13.6607C8.32664 13.5551 7.92786 13.5016 7.52728 13.5015H4.51211C2.02413 13.5015 0 15.5257 0 18.0136V22.8337C0 24.3264 1.21448 25.5409 2.70726 25.5409H28.0954C29.5882 25.5409 30.8026 24.3264 30.8026 22.8337V18.0136C30.8026 15.5257 28.7785 13.5015 26.2905 13.5015ZM8.22437 15.6992V23.7361H2.70726C2.20967 23.7361 1.80484 23.3313 1.80484 22.8337V18.0137C1.80484 16.5209 3.01932 15.3064 4.51211 15.3064H7.52728C7.77225 15.3064 8.00947 15.3397 8.23531 15.401C8.22839 15.5003 8.22474 15.5997 8.22437 15.6992ZM20.7734 23.7361H10.0292V15.6992C10.0292 14.2064 11.2437 12.9919 12.7365 12.9919H18.0662C19.559 12.9919 20.7734 14.2064 20.7734 15.6992V23.7361ZM28.9978 22.8337C28.9978 23.3313 28.593 23.7361 28.0954 23.7361H22.5783V15.6992C22.5779 15.5997 22.5743 15.5002 22.5673 15.401C22.7981 15.3382 23.0362 15.3064 23.2754 15.3064H26.2905C27.7833 15.3064 28.9978 16.5209 28.9978 18.0136V22.8337Z" fill="#A61B28"/>
<path d="M6.01733 4.97986C3.80646 4.97986 2.00781 6.77851 2.00781 8.98938C2.00775 11.2002 3.80646 12.9989 6.01733 12.9989C8.22814 12.9989 10.0268 11.2002 10.0268 8.98938C10.0268 6.77851 8.2282 4.97986 6.01733 4.97986ZM6.01727 11.1941C4.80159 11.1941 3.81259 10.2051 3.81259 8.98938C3.81259 7.7737 4.80159 6.7847 6.01727 6.7847C7.23295 6.7847 8.22194 7.7737 8.22194 8.98938C8.22194 10.2051 7.23295 11.1941 6.01727 11.1941ZM15.3989 0C12.4452 0 10.0422 2.40297 10.0422 5.35665C10.0422 8.31034 12.4452 10.7133 15.3989 10.7133C18.3526 10.7133 20.7556 8.31034 20.7556 5.35665C20.7556 2.40303 18.3526 0 15.3989 0ZM15.3989 8.90846C13.4404 8.90846 11.8471 7.31515 11.8471 5.35665C11.8471 3.39822 13.4404 1.80484 15.3989 1.80484C17.3574 1.80484 18.9507 3.39816 18.9507 5.35665C18.9507 7.31515 17.3574 8.90846 15.3989 8.90846ZM24.7805 4.97986C22.5697 4.97986 20.771 6.77851 20.771 8.98938C20.771 11.2002 22.5697 12.9989 24.7805 12.9989C26.9913 12.9989 28.79 11.2002 28.79 8.98938C28.79 6.77851 26.9913 4.97986 24.7805 4.97986ZM24.7805 11.1941C23.5648 11.1941 22.5758 10.2051 22.5758 8.98938C22.5759 7.7737 23.5648 6.7847 24.7805 6.7847C25.9962 6.7847 26.9851 7.7737 26.9851 8.98938C26.9851 10.2051 25.9962 11.1941 24.7805 11.1941Z" fill="#A61B28"/>
</svg>
