<svg width="17" height="17" viewBox="0 0 17 17" fill="none" xmlns="http://www.w3.org/2000/svg">
<g opacity="0.65">
<path d="M4.66641 8.62488H3.93713C3.84359 8.6249 3.7521 8.65231 3.67396 8.70373C3.59581 8.75515 3.53444 8.82833 3.49742 8.91423L1.47858 13.6151L6.27311 11.1663C5.69917 10.3722 5.13127 9.49623 4.66641 8.62488ZM13.9422 8.91423C13.9052 8.82833 13.8439 8.75516 13.7657 8.70374C13.6876 8.65231 13.5962 8.6249 13.5026 8.62488H12.7734C11.8954 10.27 10.6164 11.9702 9.80276 12.9055C9.23054 13.5619 8.20845 13.5611 7.63712 12.9055C7.57868 12.8384 7.2736 12.4852 6.85337 11.942L5.989 12.3837L9.25872 15.6471L15.4542 12.4352L13.9422 8.91423ZM0.88873 14.9889L0.627966 15.5962C0.492947 15.9105 0.724173 16.2615 1.06752 16.2615H8.08845C8.13238 16.2289 8.13289 16.2308 8.36859 16.1086L5.09408 12.8409L0.88873 14.9889ZM16.8118 15.5962L15.8322 13.3151L10.1488 16.2615H16.3722C16.7148 16.2615 16.947 15.9111 16.8118 15.5962ZM9.19818 4.2976C9.19818 4.03432 8.98353 3.82031 8.71988 3.82031C8.4561 3.82031 8.24158 4.03432 8.24158 4.2976C8.24158 4.56074 8.4561 4.77491 8.71988 4.77491C8.9835 4.77491 9.19818 4.56074 9.19818 4.2976Z" fill="white"/>
<path d="M9.0804 12.2479C9.24143 12.063 13.0239 7.6876 13.0239 4.67992C13.0239 -1.52207 4.41504 -1.59776 4.41504 4.67992C4.41504 7.6876 8.19755 12.063 8.35858 12.2479C8.54927 12.4666 8.89008 12.4664 9.0804 12.2479ZM7.28462 4.29814C7.28462 3.50855 7.9283 2.86626 8.71949 2.86626C9.51054 2.86626 10.1542 3.50858 10.1542 4.29814C10.1542 5.08761 9.51054 5.7299 8.71949 5.7299C7.9283 5.7299 7.28462 5.08761 7.28462 4.29814Z" fill="white"/>
</g>
</svg>
