<svg width="24" height="22" viewBox="0 0 24 22" fill="none" xmlns="http://www.w3.org/2000/svg">
<path fill-rule="evenodd" clip-rule="evenodd" d="M11.5366 0C17.9263 0 23.0732 4.71337 23.0732 10.4634C23.0732 16.2135 17.9263 20.9268 11.5366 20.9268C10.0363 20.9268 8.60254 20.666 7.28898 20.1938L3.84734 21.9152C3.71612 21.9807 3.5695 22.0091 3.42331 21.9974C3.27712 21.9857 3.1369 21.9343 3.0178 21.8487C2.77526 21.6748 2.64968 21.3797 2.69046 21.0835L3.1691 17.6655C1.20086 15.7853 0 13.2483 0 10.4634C0 4.71337 5.14693 0 11.5366 0ZM6.58498 13.8675L9.35915 11.7094C9.70257 11.4422 10.1737 11.4089 10.5504 11.6246L12.8137 12.9178C13.303 13.1979 13.9255 13.0509 14.2388 12.5808L17.2394 8.08102C17.2791 8.02078 17.2975 7.94906 17.2919 7.87716C17.2863 7.80526 17.2569 7.73729 17.2083 7.68395C17.1592 7.63086 17.0937 7.59577 17.0223 7.58429C16.9509 7.5728 16.8777 7.58559 16.8145 7.62061L13.7183 9.34088C13.3674 9.5362 12.936 9.51794 12.6022 9.29581L10.8347 8.11747C10.7163 8.03829 10.5832 7.98355 10.4433 7.95646C10.3035 7.92936 10.1596 7.93046 10.0201 7.95969C9.88079 7.98899 9.74863 8.04561 9.63129 8.12629C9.51396 8.20697 9.41378 8.31011 9.33655 8.42974L6.11704 13.4393C6.07596 13.5033 6.05882 13.5797 6.06864 13.6551C6.07846 13.7306 6.1146 13.8001 6.17069 13.8514C6.28559 13.9566 6.46159 13.9641 6.58498 13.8675Z" fill="#A96D2B"/>
</svg>
