<svg width="50" height="37" viewBox="0 0 50 37" fill="none" xmlns="http://www.w3.org/2000/svg">
<path d="M44.8558 0H16.9482C14.4414 0 12.4019 2.03947 12.4019 4.54933C12.4019 7.0561 14.4414 9.09557 16.9482 9.09557H44.8557C47.3625 9.09557 49.4019 7.0561 49.4019 4.54933C49.402 2.03938 47.3626 0 44.8558 0ZM4.54788 0C2.04025 0 0 2.04015 0 4.54779C0 7.05542 2.04025 9.09557 4.54788 9.09557C7.05552 9.09557 9.09567 7.05542 9.09567 4.54779C9.09567 2.04015 7.05552 0 4.54788 0ZM4.54788 13.9522C2.04025 13.9522 0 15.9924 0 18.5C0 21.0076 2.04025 23.0478 4.54788 23.0478C7.05552 23.0478 9.09567 21.0076 9.09567 18.5C9.09567 15.9924 7.05552 13.9522 4.54788 13.9522ZM4.54788 27.9044C2.04025 27.9044 0 29.9446 0 32.4522C0 34.9599 2.04025 37 4.54788 37C7.05552 37 9.09567 34.9599 9.09567 32.4522C9.09567 29.9446 7.05552 27.9044 4.54788 27.9044ZM44.8558 13.9522H16.9482C14.4414 13.9522 12.4019 15.9917 12.4019 18.5015C12.4019 21.0083 14.4414 23.0478 16.9482 23.0478H44.8557C47.3625 23.0478 49.4019 21.0083 49.4019 18.5015C49.402 15.9916 47.3626 13.9522 44.8558 13.9522ZM44.8558 27.9044H16.9482C14.4414 27.9044 12.4019 29.9439 12.4019 32.4538C12.4019 34.9605 14.4414 37 16.9482 37H44.8557C47.3625 37 49.4019 34.9605 49.4019 32.4538C49.402 29.9439 47.3626 27.9044 44.8558 27.9044Z" fill="#666666"/>
</svg>
