<svg width="27" height="18" viewBox="0 0 27 18" fill="none" xmlns="http://www.w3.org/2000/svg">
<line x1="0.5" y1="9.5" x2="18.5" y2="9.5" stroke="white" stroke-linecap="round"/>
<path d="M26.3568 8.89543C26.3798 8.93307 26.4009 8.96798 26.4202 9C26.4009 9.03202 26.3798 9.06693 26.3568 9.10457C26.2183 9.33121 26.0131 9.65663 25.7483 10.0479C25.218 10.8313 24.452 11.8737 23.5078 12.9139C21.5934 15.023 19.0569 17 16.3409 17C15.0062 17 14.3287 16.5308 13.9682 15.9182C13.5799 15.2587 13.4939 14.3259 13.5939 13.2984C13.6924 12.2852 13.9631 11.2599 14.2048 10.4753C14.3054 10.1486 14.3995 9.86845 14.4736 9.64754C14.4883 9.60387 14.5022 9.56251 14.5152 9.52357C14.5532 9.40976 14.5871 9.3065 14.6084 9.23026C14.6178 9.19664 14.632 9.14349 14.6391 9.0895L14.6392 9.08881C14.6418 9.0693 14.651 8.99927 14.6356 8.91566C14.63 8.88528 14.6167 8.82685 14.5807 8.7614C14.5754 8.74872 14.5689 8.73311 14.5614 8.7147C14.5372 8.65568 14.5019 8.56791 14.4587 8.45551C14.3723 8.23056 14.2548 7.90788 14.1315 7.52032C13.8837 6.74116 13.6185 5.71775 13.5304 4.70656C13.441 3.68184 13.5407 2.74841 13.941 2.08706C14.3147 1.4697 15.0061 0.999999 16.3409 1C19.0569 1 21.5934 2.97704 23.5078 5.08606C24.452 6.12627 25.218 7.16872 25.7483 7.95214C26.0131 8.34337 26.2183 8.66879 26.3568 8.89543Z" stroke="white"/>
</svg>
