<svg width="19" height="19" viewBox="0 0 19 19" fill="none" xmlns="http://www.w3.org/2000/svg">
<path d="M17.0156 11.8867C17.7188 12.2031 18.1055 12.9766 17.9297 13.7148L17.1914 17.0195C17.0156 17.7578 16.3828 18.25 15.6094 18.25C6.99609 18.25 0 11.2539 0 2.64062C0 1.86719 0.492188 1.23438 1.23047 1.05859L4.53516 0.285156C5.27344 0.109375 6.04688 0.496094 6.36328 1.19922L7.875 4.78516C8.15625 5.41797 7.98047 6.19141 7.45312 6.64844L6.01172 7.84375C7.03125 9.67188 8.57812 11.2188 10.4062 12.2383L11.6016 10.832C12.0234 10.2695 12.7969 10.0938 13.4297 10.3398L17.0156 11.8867ZM16.0664 16.7734L16.8398 13.4687C16.9102 13.2227 16.7695 13.0117 16.5586 12.9414L13.0078 11.3945C12.7969 11.3242 12.5859 11.3594 12.4453 11.5352L11.0039 13.293C10.8281 13.5039 10.5469 13.5742 10.3008 13.4688C7.94531 12.2734 5.97656 10.3047 4.81641 7.94922C4.67578 7.70312 4.74609 7.42188 4.95703 7.24609L6.71484 5.80469C6.89062 5.66406 6.92578 5.45312 6.85547 5.24219L5.30859 1.69141C5.23828 1.51562 5.0625 1.375 4.88672 1.375C4.85156 1.375 4.81641 1.41016 4.78125 1.41016L1.47656 2.18359C1.26563 2.21875 1.125 2.39453 1.125 2.64062C1.125 10.6211 7.62891 17.125 15.6094 17.125C15.8555 17.125 16.0312 16.9844 16.0664 16.7734ZM17.4375 0.25C17.7188 0.25 18 0.53125 18 0.8125V5.3125C18 5.62891 17.7188 5.875 17.4375 5.875C17.1211 5.875 16.875 5.62891 16.875 5.3125V2.18359L11.0742 7.98437C10.9688 8.08984 10.8281 8.125 10.6875 8.125C10.5117 8.125 10.3711 8.08984 10.2656 7.98437C10.0547 7.77344 10.0547 7.38672 10.2656 7.17578L16.0664 1.375L12.9375 1.375C12.6211 1.375 12.375 1.12891 12.375 0.8125C12.375 0.53125 12.6211 0.25 12.9375 0.25L17.4375 0.25Z" fill="#A61B28"/>
</svg>
