<svg width="25" height="25" viewBox="0 0 25 25" fill="none" xmlns="http://www.w3.org/2000/svg">
<path d="M22.6875 16.5156C23.625 16.9375 24.1406 17.9688 23.9062 18.9531L22.9219 23.3594C22.6875 24.3438 21.8438 25 20.8125 25C9.32813 25 0 15.6719 0 4.1875C0 3.15625 0.65625 2.3125 1.64062 2.07812L6.04688 1.04687C7.03125 0.8125 8.0625 1.32812 8.48438 2.26562L10.5 7.04687C10.875 7.89062 10.6406 8.92188 9.9375 9.53125L8.01562 11.125C9.375 13.5625 11.4375 15.625 13.875 16.9844L15.4688 15.1094C16.0312 14.3594 17.0625 14.125 17.9062 14.4531L22.6875 16.5156ZM21.4219 23.0312L22.4531 18.625C22.5469 18.2969 22.3594 18.0156 22.0781 17.9219L17.3438 15.8594C17.0625 15.7656 16.7812 15.8125 16.5938 16.0469L14.6719 18.3906C14.4375 18.6719 14.0625 18.7656 13.7344 18.625C10.5938 17.0312 7.96875 14.4062 6.42188 11.2656C6.23438 10.9375 6.32813 10.5625 6.60938 10.3281L8.95312 8.40625C9.1875 8.21875 9.23438 7.9375 9.14062 7.65625L7.07812 2.92187C6.98438 2.6875 6.75 2.5 6.51562 2.5C6.46875 2.5 6.42188 2.54687 6.375 2.54687L1.96875 3.57812C1.6875 3.625 1.5 3.85938 1.5 4.1875C1.5 14.8281 10.1719 23.5 20.8125 23.5C21.1406 23.5 21.375 23.3125 21.4219 23.0312ZM23.25 1C23.625 1 24 1.375 24 1.75V7.75C24 8.17187 23.625 8.5 23.25 8.5C22.8281 8.5 22.5 8.17188 22.5 7.75V3.57812L14.7656 11.3125C14.625 11.4531 14.4375 11.5 14.25 11.5C14.0156 11.5 13.8281 11.4531 13.6875 11.3125C13.4062 11.0312 13.4062 10.5156 13.6875 10.2344L21.4219 2.5H17.25C16.8281 2.5 16.5 2.17187 16.5 1.75C16.5 1.375 16.8281 1 17.25 1L23.25 1Z" fill="white"/>
</svg>
