<svg width="17" height="20" viewBox="0 0 17 20" fill="none" xmlns="http://www.w3.org/2000/svg">
<path d="M9.09769 0C-0.0340709 0.000807478 -0.808442 9.77613 3.46311 11.664C3.90238 11.8618 3.84424 11.6204 4.22214 10.175C4.23954 10.1166 4.24108 10.0547 4.2266 9.9955C4.21213 9.93633 4.18216 9.88207 4.13978 9.83831C1.9386 7.29233 3.7102 2.05826 8.78359 2.05826C16.126 2.05826 14.7541 12.2179 10.061 12.2179C8.85141 12.2179 7.95027 11.2684 8.23531 10.0935C8.58091 8.69411 9.25758 7.18978 9.25758 6.18124C9.25758 3.6393 5.4705 4.01639 5.4705 7.38438C5.4705 8.42522 5.83871 9.12773 5.83871 9.12773C5.83871 9.12773 4.62023 14.0501 4.39414 14.9698C4.13413 16.026 4.26171 19.9189 4.71632 19.3229C4.83663 19.1655 6.30947 17.0644 6.7221 15.5456C6.87229 14.9924 7.48839 12.7477 7.48839 12.7477C7.89455 13.4808 9.0654 14.0945 10.3129 14.0945C14.0241 14.0945 16.7066 10.8323 16.7066 6.78443C16.6936 2.90369 13.3725 0 9.09769 0Z" fill="#F44336"/>
</svg>
