<svg width="46" height="45" viewBox="0 0 46 45" fill="none" xmlns="http://www.w3.org/2000/svg">
<g clip-path="url(#clip0_1339_3314)">
<path d="M35.9854 18.3811C35.895 17.4044 35.9642 14.7494 38.5076 11.0574C38.7 10.7788 38.6651 10.4031 38.4262 10.1642C37.3892 9.12725 36.7472 8.4729 36.2969 8.01501C35.7048 7.41127 35.4344 7.13618 35.0388 6.77746C34.7746 6.54 34.3749 6.53587 34.1079 6.76863C29.6747 10.6262 24.7507 18.5974 25.4632 28.3632C25.8807 34.0976 30.0635 38.2598 35.4084 38.2598C40.8936 38.2598 45.3563 33.7978 45.3563 28.3126C45.3563 23.021 41.2031 18.6816 35.9854 18.3811ZM35.4084 36.858C30.8184 36.858 27.2243 33.2427 26.8609 28.2619C26.8609 28.2619 26.8609 28.2619 26.8609 28.2612C26.0594 17.2778 32.5884 10.1437 34.5611 8.25458C34.7534 8.44417 34.9731 8.66726 35.2968 8.99716C35.687 9.39414 36.2209 9.93761 37.0285 10.748C33.9409 15.505 34.5234 18.8944 34.7787 19.3804C34.8999 19.6111 35.1483 19.7665 35.4084 19.7665C40.1209 19.7665 43.9545 23.6001 43.9545 28.3126C43.9545 33.0244 40.1209 36.858 35.4084 36.858Z" fill="#A61B28"/>
<path d="M11.093 18.3814C11.0019 17.4075 11.069 14.7545 13.6152 11.0577C13.8069 10.7791 13.7726 10.4034 13.5337 10.1645C12.4988 9.12959 11.8575 8.47595 11.4078 8.01806C10.8137 7.41299 10.5426 7.13712 10.1471 6.77778C9.88283 6.54032 9.48312 6.53688 9.21622 6.76824C4.78298 10.6258 -0.14171 18.5957 0.569408 28.3635V28.3642C0.988326 34.0979 5.17169 38.2601 10.5166 38.2601C16.0019 38.2601 20.4646 33.7981 20.4646 28.3129C20.4646 23.0207 16.3113 18.6805 11.093 18.3814ZM10.5166 36.8583C5.92739 36.8583 2.33122 33.243 1.96711 28.2616V28.2623C1.16768 17.276 7.6967 10.1433 9.66927 8.25489C9.86229 8.44448 10.0827 8.66897 10.4072 8.99958C10.7966 9.39656 11.3298 9.93933 12.1361 10.7484C9.0485 15.506 9.631 18.8947 9.88626 19.38C10.0074 19.6107 10.2565 19.7668 10.5166 19.7668C15.2292 19.7668 19.0628 23.6004 19.0628 28.3129C19.0628 33.0247 15.2292 36.8583 10.5166 36.8583Z" fill="#A61B28"/>
</g>
<defs>
<clipPath id="clip0_1339_3314">
<rect width="44.8566" height="44.8566" fill="white" transform="translate(0.5)"/>
</clipPath>
</defs>
</svg>
