<svg width="25" height="25" viewBox="0 0 25 25" fill="none" xmlns="http://www.w3.org/2000/svg">
<path d="M9.95312 11.5L9.95313 17.5C9.95313 18.3438 9.29688 19 8.45312 19H6.95313C5.3125 19 3.95313 17.6406 3.95313 16V13C3.95313 11.3594 5.26563 10 6.95313 10H8.45312C9.25 10 9.95312 10.7031 9.95312 11.5ZM8.45312 17.5V11.5H6.95313C6.10938 11.5 5.45313 12.2031 5.45313 13V16C5.45313 16.8438 6.10938 17.5 6.95313 17.5H8.45312ZM18.9531 19V19.0469H17.5C16.6562 19.0469 16 18.3906 16 17.5469V11.5469C16 10.75 16.6562 10.0469 17.5 10.0469H18.9531C20.5938 10.0469 21.9531 11.3594 21.9531 13V16C21.9531 17.6406 20.5938 19 18.9531 19ZM17.4531 11.5L17.4062 17.5H18.9062C19.7031 17.5 20.4062 16.8438 20.4062 16V13C20.4062 12.2031 19.7031 11.5 18.9062 11.5H17.4531ZM14.125 1.09375C20.3125 1.65625 25 7.09375 24.9062 13.3281V21.2969C24.9062 23.3594 23.2188 25 21.1562 25H12.2031C10.8438 25 9.76563 23.7812 10 22.3281C10.2344 21.25 11.2188 20.5 12.2969 20.5H15.0156C15.9063 20.5 16.7969 20.9688 17.2188 21.7656C17.5469 22.375 17.5469 22.9844 17.3125 23.5H21.25C22.4688 23.5 23.5 22.4688 23.5 21.25V13.3281C23.5 7.84375 19.4219 3.0625 13.9375 2.54687C7.65625 1.98437 2.64063 7.04688 2.5 13V13.7969C2.45313 14.1719 2.125 14.5 1.75 14.5C1.32813 14.5 0.953125 14.1719 0.953125 13.75L1 13.0469C1.1875 6.15625 6.90625 0.390625 14.125 1.09375ZM15.2031 23.5C15.625 23.5 15.9531 23.1719 15.9531 22.75C15.9531 22.375 15.5781 22 15.2031 22H12.2031C11.7813 22 11.4531 22.375 11.4531 22.75C11.4531 23.1719 11.7813 23.5 12.2031 23.5H15.2031Z" fill="#A61B28"/>
</svg>
