<svg width="20" height="20" viewBox="0 0 20 20" fill="none" xmlns="http://www.w3.org/2000/svg">
<path d="M19.8102 18.9119L14.6466 13.8308C15.9988 12.3616 16.8296 10.4187 16.8296 8.28069C16.829 3.7071 13.0618 0 8.41448 0C3.76713 0 0 3.7071 0 8.28069C0 12.8543 3.76713 16.5614 8.41448 16.5614C10.4225 16.5614 12.2641 15.8668 13.7107 14.7122L18.8944 19.8134C19.147 20.0622 19.5571 20.0622 19.8097 19.8134C19.8697 19.7547 19.9175 19.6846 19.9501 19.6073C19.9827 19.5299 19.9996 19.4468 19.9996 19.3628C19.9997 19.2788 19.9829 19.1957 19.9504 19.1182C19.9179 19.0408 19.8702 18.9707 19.8102 18.9119ZM8.41448 15.2873C4.48232 15.2873 1.29469 12.1504 1.29469 8.28069C1.29469 4.41101 4.48232 1.27403 8.41448 1.27403C12.3467 1.27403 15.5343 4.41101 15.5343 8.28069C15.5343 12.1504 12.3467 15.2873 8.41448 15.2873Z" fill="#A61B28"/>
</svg>
