<svg width="17" height="20" viewBox="0 0 17 20" fill="none" xmlns="http://www.w3.org/2000/svg">
<path d="M13.2285 9.26961C13.1433 9.22832 13.0569 9.18858 12.9693 9.15053C12.8168 6.30606 11.2812 4.6776 8.70273 4.66094C8.69105 4.66086 8.67943 4.66086 8.66775 4.66086C7.1255 4.66086 5.84283 5.32718 5.05336 6.53966L6.47143 7.52425C7.0612 6.61857 7.98678 6.4255 8.66843 6.4255C8.6763 6.4255 8.68421 6.4255 8.692 6.42557C9.54099 6.43105 10.1816 6.6809 10.5963 7.16813C10.898 7.52284 11.0999 8.01302 11.1998 8.63165C10.4471 8.50216 9.633 8.46234 8.76274 8.51284C6.31126 8.65577 4.73526 10.1029 4.84111 12.1137C4.89482 13.1337 5.39686 14.0112 6.25469 14.5845C6.97998 15.0691 7.9141 15.306 8.88493 15.2524C10.167 15.1812 11.1728 14.6861 11.8745 13.7808C12.4074 13.0933 12.7444 12.2024 12.8933 11.0798C13.5043 11.453 13.9571 11.9442 14.2072 12.5346C14.6324 13.5382 14.6572 15.1875 13.3277 16.5321C12.1628 17.71 10.7625 18.2196 8.64629 18.2353C6.29886 18.2177 4.52353 17.4557 3.36926 15.9705C2.28838 14.5798 1.72977 12.571 1.70893 10C1.72977 7.42894 2.28838 5.42017 3.36926 4.02945C4.52353 2.54426 6.29883 1.78229 8.64626 1.76464C11.0107 1.78243 12.817 2.54806 14.0154 4.04042C14.6031 4.77225 15.0461 5.69258 15.3382 6.76566L17 6.3169C16.646 4.99606 16.0889 3.85789 15.3308 2.91396C13.7944 1.0007 11.5473 0.0203279 8.65206 0H8.64047C5.75108 0.0202573 3.52919 1.00435 2.03652 2.92493C0.708254 4.634 0.0230942 7.01205 7.20406e-05 9.99297L0 10L7.20406e-05 10.007C0.0230942 12.9879 0.708254 15.366 2.03652 17.0751C3.52919 18.9956 5.75108 19.9798 8.64047 20H8.65206C11.2209 19.982 13.0316 19.3013 14.5232 17.7928C16.4748 15.8194 16.4161 13.3457 15.7728 11.8272C15.3114 10.7382 14.4315 9.85377 13.2285 9.26961ZM8.79315 13.4903C7.71872 13.5516 6.60248 13.0634 6.54744 12.0179C6.50665 11.2427 7.09251 10.3777 8.85909 10.2747C9.0614 10.2629 9.25993 10.2571 9.45495 10.2571C10.0966 10.2571 10.6969 10.3202 11.2427 10.4409C11.0391 13.0141 9.84511 13.4319 8.79315 13.4903Z" fill="#A61B28"/>
</svg>
