<svg width="21" height="26" viewBox="0 0 21 26" fill="none" xmlns="http://www.w3.org/2000/svg">
<path d="M18.9626 2.2985H13.791V1.72387C13.791 1.26667 13.6094 0.8282 13.2861 0.504911C12.9628 0.181622 12.5243 0 12.0671 0H8.04474C7.58754 0 7.14907 0.181622 6.82578 0.504911C6.50249 0.8282 6.32087 1.26667 6.32087 1.72387V2.2985H1.72387C1.26667 2.2985 0.8282 2.48012 0.504911 2.80341C0.181622 3.1267 0 3.56517 0 4.02237V4.597C0 5.0542 0.181622 5.49267 0.504911 5.81596C0.8282 6.13925 1.26667 6.32087 1.72387 6.32087H18.9626C19.4198 6.32087 19.8583 6.13925 20.1816 5.81596C20.5049 5.49267 20.6865 5.0542 20.6865 4.597V4.02237C20.6865 3.56517 20.5049 3.1267 20.1816 2.80341C19.8583 2.48012 19.4198 2.2985 18.9626 2.2985ZM7.47012 2.2985V1.72387C7.47012 1.57147 7.53066 1.42532 7.63842 1.31755C7.74618 1.20979 7.89234 1.14925 8.04474 1.14925H12.0671C12.2195 1.14925 12.3657 1.20979 12.4734 1.31755C12.5812 1.42532 12.6417 1.57147 12.6417 1.72387V2.2985H7.47012ZM18.9626 7.47012H1.72387C1.54223 7.468 1.36119 7.44876 1.18315 7.41266L1.65434 22.4971C1.67432 23.2446 1.98623 23.9545 2.52327 24.4748C3.0603 24.9951 3.77975 25.2843 4.52747 25.2806H16.1602C16.9079 25.2843 17.6273 24.9951 18.1644 24.4748C18.7014 23.9545 19.0133 23.2446 19.0333 22.4971L19.5045 7.41266C19.3261 7.44883 19.1446 7.46807 18.9626 7.47012ZM6.62427 21.8357H6.60818C6.45853 21.8358 6.31476 21.7775 6.20745 21.6732C6.10013 21.5688 6.03775 21.4268 6.03356 21.2772L5.74624 10.934C5.74198 10.7816 5.79843 10.6337 5.90317 10.5229C6.00792 10.4121 6.15238 10.3475 6.30478 10.3432C6.45718 10.339 6.60503 10.3954 6.71581 10.5002C6.82659 10.6049 6.89123 10.7494 6.89549 10.9018L7.18281 21.245C7.18495 21.3205 7.1722 21.3956 7.14528 21.4662C7.11837 21.5367 7.07782 21.6013 7.02595 21.6561C6.97408 21.711 6.9119 21.7551 6.84298 21.7859C6.77406 21.8167 6.69974 21.8336 6.62427 21.8357ZM10.9179 21.2611C10.9179 21.4135 10.8573 21.5597 10.7496 21.6674C10.6418 21.7752 10.4956 21.8357 10.3432 21.8357C10.1908 21.8357 10.0447 21.7752 9.93692 21.6674C9.82916 21.5597 9.76862 21.4135 9.76862 21.2611V10.9179C9.76862 10.7655 9.82916 10.6193 9.93692 10.5115C10.0447 10.4038 10.1908 10.3432 10.3432 10.3432C10.4956 10.3432 10.6418 10.4038 10.7496 10.5115C10.8573 10.6193 10.9179 10.7655 10.9179 10.9179V21.2611ZM14.6529 21.2772C14.6487 21.4268 14.5863 21.5688 14.479 21.6732C14.3717 21.7775 14.228 21.8358 14.0783 21.8357H14.0622C13.9867 21.8336 13.9124 21.8167 13.8435 21.7859C13.7746 21.7551 13.7124 21.711 13.6605 21.6561C13.6087 21.6013 13.5681 21.5367 13.5412 21.4662C13.5143 21.3956 13.5015 21.3205 13.5037 21.245L13.791 10.9018C13.7909 10.8256 13.8063 10.7503 13.8364 10.6803C13.8664 10.6104 13.9105 10.5473 13.9658 10.495C14.0211 10.4427 14.0865 10.4023 14.1581 10.3762C14.2296 10.3501 14.3057 10.3389 14.3817 10.3432C14.4572 10.3453 14.5315 10.3623 14.6004 10.3931C14.6693 10.4239 14.7315 10.468 14.7834 10.5229C14.8352 10.5777 14.8758 10.6423 14.9027 10.7128C14.9296 10.7833 14.9424 10.8585 14.9402 10.934L14.6529 21.2772Z" fill="#A96D2B"/>
</svg>
