<svg width="24" height="24" viewBox="0 0 24 24" fill="none" xmlns="http://www.w3.org/2000/svg">
<path d="M24 12C24 18.6562 18.6094 24 12 24C5.34375 24 0 18.6562 0 12C0 9.51562 0.75 7.21875 2.0625 5.29688C2.29688 4.92188 2.76562 4.82812 3.09375 5.0625C3.42188 5.29688 3.51562 5.76562 3.28125 6.14062C2.15625 7.82812 1.5 9.84375 1.5 12C1.5 17.8125 6.1875 22.5 12 22.5C17.7656 22.5 22.5 17.8125 22.5 12C22.5 6.46875 18.1875 1.92188 12.75 1.54688V5.25C12.75 5.67188 12.375 6 12 6C11.5781 6 11.25 5.67188 11.25 5.25V0.75C11.25 0.375 11.5781 0 12 0C18.6094 0 24 5.39062 24 12ZM12.5156 11.4844C12.7969 11.7656 12.7969 12.2812 12.5156 12.5625C12.2344 12.8438 11.7188 12.8438 11.4375 12.5625L6.9375 8.0625C6.65625 7.78125 6.65625 7.26562 6.9375 6.98438C7.21875 6.70312 7.73438 6.70312 8.01562 6.98438L12.5156 11.4844Z" fill="white"/>
</svg>
