<svg width="19" height="18" viewBox="0 0 19 18" fill="none" xmlns="http://www.w3.org/2000/svg">
<path d="M6.96094 1.65088L7.57872 1.22562L7.57848 1.22527L6.96094 1.65088ZM10.5635 6.88428L9.9457 7.30954L10.4977 8.11142L11.1322 7.37315L10.5635 6.88428ZM14.3457 2.48389L13.778 1.99374L13.7769 1.99501L14.3457 2.48389ZM15.4385 1.21826V0.468262H15.0952L14.8708 0.728115L15.4385 1.21826ZM16.7148 1.21826L17.2836 1.70719L18.3486 0.468262H16.7148V1.21826ZM11.1328 7.71143L10.5641 7.2225L10.1107 7.74993L10.6025 8.24176L11.1328 7.71143ZM11.1338 7.7124L11.7516 7.28725L11.7127 7.23065L11.6641 7.18207L11.1338 7.7124ZM16.1689 15.0298L15.5511 15.4549L15.5516 15.4556L16.1689 15.0298ZM17.25 16.5972V17.3472H18.6784L17.8674 16.1713L17.25 16.5972ZM12.8232 16.5972L12.2061 17.0234L12.4298 17.3472H12.8232V16.5972ZM12.5244 16.1646L11.9066 16.5897L11.9073 16.5908L12.5244 16.1646ZM8.67578 10.5718L9.29363 10.1466L9.0701 9.82178H8.67578V10.5718ZM8.6748 10.5718V9.82178H8.33047L8.10603 10.0829L8.6748 10.5718ZM3.49512 16.5981V17.3481H3.83945L4.0639 17.087L3.49512 16.5981ZM2.21875 16.5981L1.64985 16.1094L0.585715 17.3481H2.21875V16.5981ZM8.10547 9.74561L8.67437 10.2343L9.05074 9.79621L8.7233 9.32042L8.10547 9.74561ZM3.31641 2.78662L3.93424 2.36144L3.93422 2.36141L3.31641 2.78662ZM2.23633 1.21729V0.467285H0.809687L1.61851 1.64249L2.23633 1.21729ZM6.66211 1.21729L7.27965 0.79168L7.05608 0.467285H6.66211V1.21729ZM6.96094 1.65088L6.34316 2.07614L9.9457 7.30954L10.5635 6.88428L11.1813 6.45901L7.57872 1.22562L6.96094 1.65088ZM10.5635 6.88428L11.1322 7.37315L14.9145 2.97276L14.3457 2.48389L13.7769 1.99501L9.9947 6.3954L10.5635 6.88428ZM14.3457 2.48389L14.9134 2.97403L16.0062 1.70841L15.4385 1.21826L14.8708 0.728115L13.778 1.99374L14.3457 2.48389ZM15.4385 1.21826V1.96826H16.7148V1.21826V0.468262H15.4385V1.21826ZM16.7148 1.21826L16.1461 0.729338L10.5641 7.2225L11.1328 7.71143L11.7015 8.20035L17.2836 1.70719L16.7148 1.21826ZM11.1328 7.71143L10.6025 8.24176L10.6035 8.24273L11.1338 7.7124L11.6641 7.18207L11.6631 7.1811L11.1328 7.71143ZM11.1338 7.7124L10.5159 8.13755L15.5511 15.4549L16.1689 15.0298L16.7868 14.6046L11.7516 7.28725L11.1338 7.7124ZM16.1689 15.0298L15.5516 15.4556L16.6326 17.023L17.25 16.5972L17.8674 16.1713L16.7863 14.604L16.1689 15.0298ZM17.25 16.5972V15.8472H12.8232V16.5972V17.3472H17.25V16.5972ZM12.8232 16.5972L13.4403 16.1709L13.1415 15.7383L12.5244 16.1646L11.9073 16.5908L12.2061 17.0234L12.8232 16.5972ZM12.5244 16.1646L13.1423 15.7394L9.29363 10.1466L8.67578 10.5718L8.05794 10.9969L11.9066 16.5897L12.5244 16.1646ZM8.67578 10.5718V9.82178H8.6748V10.5718V11.3218H8.67578V10.5718ZM8.6748 10.5718L8.10603 10.0829L2.92634 16.1093L3.49512 16.5981L4.0639 17.087L9.24358 11.0606L8.6748 10.5718ZM3.49512 16.5981V15.8481H2.21875V16.5981V17.3481H3.49512V16.5981ZM2.21875 16.5981L2.78765 17.0869L8.67437 10.2343L8.10547 9.74561L7.53656 9.25688L1.64985 16.1094L2.21875 16.5981ZM8.10547 9.74561L8.7233 9.32042L3.93424 2.36144L3.31641 2.78662L2.69857 3.2118L7.48763 10.1708L8.10547 9.74561ZM3.31641 2.78662L3.93422 2.36141L2.85415 0.792079L2.23633 1.21729L1.61851 1.64249L2.69859 3.21183L3.31641 2.78662ZM2.23633 1.21729V1.96729H6.66211V1.21729V0.467285H2.23633V1.21729ZM6.66211 1.21729L6.04457 1.64289L6.34339 2.07648L6.96094 1.65088L7.57848 1.22527L7.27965 0.79168L6.66211 1.21729Z" fill="#A61B28"/>
</svg>
