<svg width="20" height="13" viewBox="0 0 20 13" fill="none" xmlns="http://www.w3.org/2000/svg">
<path d="M19.5879 2.03419C19.3575 1.23876 18.6819 0.61173 17.8252 0.397545C16.2602 0 9.99977 0 9.99977 0C9.99977 0 3.73963 0 2.17456 0.382473C1.33435 0.596431 0.642335 1.23887 0.411866 2.03419C0 3.48702 0 6.5 0 6.5C0 6.5 0 9.52816 0.411866 10.9658C0.642579 11.7611 1.31787 12.3882 2.17469 12.6023C3.75611 13 10 13 10 13C10 13 16.2602 13 17.8252 12.6175C18.682 12.4035 19.3575 11.7764 19.5882 10.9811C19.9999 9.52817 19.9999 6.5153 19.9999 6.5153C19.9999 6.5153 20.0164 3.48702 19.5879 2.03419ZM8.00661 9.2835V3.7165L13.2124 6.5L8.00661 9.2835Z" fill="#A61B28"/>
</svg>
