<svg width="26" height="22" viewBox="0 0 26 22" fill="none" xmlns="http://www.w3.org/2000/svg">
<path fill-rule="evenodd" clip-rule="evenodd" d="M13 22C20.1797 22 26 17.0751 26 11C26 4.92487 20.1797 0 13 0C5.8203 0 0 4.92487 0 11C0 13.4665 0.959409 15.7434 2.57968 17.5781L2 20.9076L5.46046 19.9621C7.58687 21.2452 10.1893 22 13 22Z" fill="#A96D2B"/>
<mask id="path-2-outside-1_331_9013" maskUnits="userSpaceOnUse" x="3" y="6" width="21" height="9" fill="black">
<rect fill="white" x="3" y="6" width="21" height="9"/>
<path fill-rule="evenodd" clip-rule="evenodd" d="M4 14.0251H4.34847H8.98242V13.3902H5.14551L8.58853 7.63948L8.98242 7H4V7.63948H7.80076L4 14.0251ZM15.8915 7V14.0251H16.5542V7H15.8915ZM22.1983 13.3439C22.7327 12.8095 23 12.17 23 11.4255C23 10.6841 22.7312 10.0446 22.1937 9.50704C21.6561 8.9695 21.0182 8.70073 20.2798 8.70073C19.5291 8.70073 18.8897 8.97414 18.3614 9.52094C17.8362 10.0616 17.5736 10.7088 17.5736 11.4626C17.5736 12.1916 17.8424 12.8219 18.3799 13.3532C18.9144 13.8846 19.5477 14.1503 20.2798 14.1503C21.0244 14.1503 21.6638 13.8815 22.1983 13.3439ZM21.7395 9.9241C22.1381 10.3381 22.3373 10.8293 22.3373 11.3977C22.3373 11.9908 22.1458 12.4959 21.7627 12.913C21.3673 13.3393 20.8761 13.5525 20.2891 13.5525C19.7207 13.5525 19.2357 13.3439 18.834 12.9269C18.4355 12.5129 18.2363 12.0217 18.2363 11.4533C18.2363 10.8694 18.4309 10.3674 18.8201 9.94727C19.2187 9.51476 19.7083 9.29851 20.2891 9.29851C20.8544 9.29851 21.3379 9.50704 21.7395 9.9241ZM14.0242 14.0251V13.1123H14.0057C13.5485 13.8043 12.875 14.1503 11.9853 14.1503C11.2037 14.1503 10.5441 13.8892 10.0066 13.3671C9.46595 12.845 9.19563 12.1947 9.19563 11.4162C9.19563 10.6439 9.46904 9.99669 10.0158 9.4746C10.5565 8.95869 11.2129 8.70073 11.9853 8.70073C12.8904 8.70073 13.5639 9.04828 14.0057 9.74337H14.0242V9.27998H14.6915V14.0251H14.0242ZM14.0659 11.4348C14.0659 10.8509 13.8667 10.3504 13.4681 9.93336C13.0634 9.51013 12.5691 9.29851 11.9853 9.29851C11.3705 9.29851 10.8623 9.50241 10.4607 9.91019C10.0591 10.318 9.85829 10.8293 9.85829 11.444C9.85829 12.0495 10.0606 12.5531 10.4653 12.9547C10.87 13.3532 11.3767 13.5525 11.9853 13.5525C12.5691 13.5525 13.0634 13.3439 13.4681 12.9269C13.8667 12.516 14.0659 12.0186 14.0659 11.4348Z"/>
</mask>
<path fill-rule="evenodd" clip-rule="evenodd" d="M4 14.0251H4.34847H8.98242V13.3902H5.14551L8.58853 7.63948L8.98242 7H4V7.63948H7.80076L4 14.0251ZM15.8915 7V14.0251H16.5542V7H15.8915ZM22.1983 13.3439C22.7327 12.8095 23 12.17 23 11.4255C23 10.6841 22.7312 10.0446 22.1937 9.50704C21.6561 8.9695 21.0182 8.70073 20.2798 8.70073C19.5291 8.70073 18.8897 8.97414 18.3614 9.52094C17.8362 10.0616 17.5736 10.7088 17.5736 11.4626C17.5736 12.1916 17.8424 12.8219 18.3799 13.3532C18.9144 13.8846 19.5477 14.1503 20.2798 14.1503C21.0244 14.1503 21.6638 13.8815 22.1983 13.3439ZM21.7395 9.9241C22.1381 10.3381 22.3373 10.8293 22.3373 11.3977C22.3373 11.9908 22.1458 12.4959 21.7627 12.913C21.3673 13.3393 20.8761 13.5525 20.2891 13.5525C19.7207 13.5525 19.2357 13.3439 18.834 12.9269C18.4355 12.5129 18.2363 12.0217 18.2363 11.4533C18.2363 10.8694 18.4309 10.3674 18.8201 9.94727C19.2187 9.51476 19.7083 9.29851 20.2891 9.29851C20.8544 9.29851 21.3379 9.50704 21.7395 9.9241ZM14.0242 14.0251V13.1123H14.0057C13.5485 13.8043 12.875 14.1503 11.9853 14.1503C11.2037 14.1503 10.5441 13.8892 10.0066 13.3671C9.46595 12.845 9.19563 12.1947 9.19563 11.4162C9.19563 10.6439 9.46904 9.99669 10.0158 9.4746C10.5565 8.95869 11.2129 8.70073 11.9853 8.70073C12.8904 8.70073 13.5639 9.04828 14.0057 9.74337H14.0242V9.27998H14.6915V14.0251H14.0242ZM14.0659 11.4348C14.0659 10.8509 13.8667 10.3504 13.4681 9.93336C13.0634 9.51013 12.5691 9.29851 11.9853 9.29851C11.3705 9.29851 10.8623 9.50241 10.4607 9.91019C10.0591 10.318 9.85829 10.8293 9.85829 11.444C9.85829 12.0495 10.0606 12.5531 10.4653 12.9547C10.87 13.3532 11.3767 13.5525 11.9853 13.5525C12.5691 13.5525 13.0634 13.3439 13.4681 12.9269C13.8667 12.516 14.0659 12.0186 14.0659 11.4348Z" fill="white"/>
<path d="M4 14.0251L3.82814 13.9228L3.64821 14.2251H4V14.0251ZM8.98242 14.0251V14.2251H9.18242V14.0251H8.98242ZM8.98242 13.3902H9.18242V13.1902H8.98242V13.3902ZM5.14551 13.3902L4.97392 13.2875L4.79266 13.5902H5.14551V13.3902ZM8.58853 7.63948L8.41823 7.53459L8.41694 7.53675L8.58853 7.63948ZM8.98242 7L9.15271 7.10489L9.3405 6.8H8.98242V7ZM4 7V6.8H3.8V7H4ZM4 7.63948H3.8V7.83948H4V7.63948ZM7.80076 7.63948L7.97262 7.74178L8.15255 7.43948H7.80076V7.63948ZM15.8915 14.0251H15.6915V14.2251H15.8915V14.0251ZM15.8915 7V6.8H15.6915V7H15.8915ZM16.5542 14.0251V14.2251H16.7542V14.0251H16.5542ZM16.5542 7H16.7542V6.8H16.5542V7ZM22.1983 13.3439L22.0569 13.2025L22.0565 13.2029L22.1983 13.3439ZM22.1937 9.50704L22.3351 9.36562H22.3351L22.1937 9.50704ZM18.3614 9.52094L18.5048 9.6603L18.5052 9.6599L18.3614 9.52094ZM18.3799 13.3532L18.5209 13.2114L18.5205 13.211L18.3799 13.3532ZM21.7395 9.9241L21.8836 9.78539L21.8836 9.78537L21.7395 9.9241ZM21.7627 12.913L21.9093 13.049L21.91 13.0483L21.7627 12.913ZM18.834 12.9269L18.69 13.0656L18.69 13.0656L18.834 12.9269ZM18.8201 9.94727L18.9669 10.0832L18.9672 10.0828L18.8201 9.94727ZM14.0242 13.1123H14.2242V12.9123H14.0242V13.1123ZM14.0242 14.0251H13.8242V14.2251H14.0242V14.0251ZM14.0057 13.1123V12.9123H13.8981L13.8388 13.002L14.0057 13.1123ZM10.0066 13.3671L10.1459 13.2237L10.1455 13.2233L10.0066 13.3671ZM10.0158 9.4746L9.87777 9.32991L9.87773 9.32995L10.0158 9.4746ZM14.0057 9.74337L13.8369 9.85065L13.8958 9.94337H14.0057V9.74337ZM14.0242 9.74337V9.94337H14.2242V9.74337H14.0242ZM14.0242 9.27998V9.07998H13.8242V9.27998H14.0242ZM14.6915 9.27998H14.8915V9.07998H14.6915V9.27998ZM14.6915 14.0251V14.2251H14.8915V14.0251H14.6915ZM13.4681 9.93336L13.6127 9.79519L13.6127 9.79514L13.4681 9.93336ZM10.4607 9.91019L10.6032 10.0505L10.4607 9.91019ZM10.4653 12.9547L10.3245 13.0967L10.325 13.0972L10.4653 12.9547ZM13.4681 12.9269L13.6117 13.0662L13.6117 13.0661L13.4681 12.9269ZM4.34847 13.8251H4V14.2251H4.34847V13.8251ZM8.98242 13.8251H4.34847V14.2251H8.98242V13.8251ZM8.78242 13.3902V14.0251H9.18242V13.3902H8.78242ZM5.14551 13.5902H8.98242V13.1902H5.14551V13.5902ZM8.41694 7.53675L4.97392 13.2875L5.31711 13.4929L8.76013 7.74222L8.41694 7.53675ZM8.81213 6.89511L8.41825 7.5346L8.75882 7.74437L9.15271 7.10489L8.81213 6.89511ZM4 7.2H8.98242V6.8H4V7.2ZM4.2 7.63948V7H3.8V7.63948H4.2ZM7.80076 7.43948H4V7.83948H7.80076V7.43948ZM4.17186 14.1274L7.97262 7.74178L7.6289 7.53719L3.82814 13.9228L4.17186 14.1274ZM16.0915 14.0251V7H15.6915V14.0251H16.0915ZM16.5542 13.8251H15.8915V14.2251H16.5542V13.8251ZM16.3542 7V14.0251H16.7542V7H16.3542ZM15.8915 7.2H16.5542V6.8H15.8915V7.2ZM22.8 11.4255C22.8 12.1161 22.5545 12.7049 22.0569 13.2025L22.3397 13.4854C22.911 12.9141 23.2 12.224 23.2 11.4255H22.8ZM22.0522 9.64846C22.5533 10.1496 22.8 10.7386 22.8 11.4255H23.2C23.2 10.6295 22.9091 9.9396 22.3351 9.36562L22.0522 9.64846ZM20.2798 8.90073C20.9634 8.90073 21.551 9.14719 22.0522 9.64846L22.3351 9.36562C21.7613 8.79182 21.073 8.50073 20.2798 8.50073V8.90073ZM18.5052 9.6599C18.9964 9.15154 19.5842 8.90073 20.2798 8.90073V8.50073C19.4741 8.50073 18.783 8.79673 18.2175 9.38198L18.5052 9.6599ZM17.7736 11.4626C17.7736 10.7608 18.0159 10.1636 18.5048 9.6603L18.2179 9.38159C17.6565 9.95954 17.3736 10.6567 17.3736 11.4626H17.7736ZM18.5205 13.211C18.0194 12.7156 17.7736 12.136 17.7736 11.4626H17.3736C17.3736 12.2472 17.6653 12.9281 18.2393 13.4955L18.5205 13.211ZM20.2798 13.9503C19.6022 13.9503 19.0191 13.7067 18.5209 13.2114L18.2389 13.495C18.8096 14.0624 19.4931 14.3503 20.2798 14.3503V13.9503ZM22.0565 13.2029C21.5588 13.7035 20.97 13.9503 20.2798 13.9503V14.3503C21.0787 14.3503 21.7689 14.0595 22.3401 13.485L22.0565 13.2029ZM22.5373 11.3977C22.5373 10.7769 22.3176 10.2362 21.8836 9.78539L21.5954 10.0628C21.9585 10.44 22.1373 10.8816 22.1373 11.3977H22.5373ZM21.91 13.0483C22.3287 12.5924 22.5373 12.0383 22.5373 11.3977H22.1373C22.1373 11.9433 21.9629 12.3994 21.6154 12.7777L21.91 13.0483ZM20.2891 13.7525C20.9311 13.7525 21.4757 13.5166 21.9093 13.049L21.6161 12.777C21.2589 13.1621 20.821 13.3525 20.2891 13.3525V13.7525ZM18.69 13.0656C19.1285 13.521 19.6652 13.7525 20.2891 13.7525V13.3525C19.7762 13.3525 19.3428 13.1669 18.9781 12.7882L18.69 13.0656ZM18.0363 11.4533C18.0363 12.0741 18.256 12.6148 18.69 13.0656L18.9781 12.7882C18.615 12.411 18.4363 11.9694 18.4363 11.4533H18.0363ZM18.6734 9.81134C18.2492 10.2692 18.0363 10.8201 18.0363 11.4533H18.4363C18.4363 10.9187 18.6126 10.4656 18.9669 10.0832L18.6734 9.81134ZM20.2891 9.09851C19.6516 9.09851 19.1089 9.33873 18.6731 9.81174L18.9672 10.0828C19.3284 9.69079 19.765 9.49851 20.2891 9.49851V9.09851ZM21.8836 9.78537C21.4453 9.33023 20.9103 9.09851 20.2891 9.09851V9.49851C20.7986 9.49851 21.2305 9.68385 21.5955 10.0628L21.8836 9.78537ZM13.8242 13.1123V14.0251H14.2242V13.1123H13.8242ZM14.0057 13.3123H14.0242V12.9123H14.0057V13.3123ZM11.9853 14.3503C12.9363 14.3503 13.6752 13.9752 14.1725 13.2225L13.8388 13.002C13.4217 13.6333 12.8136 13.9503 11.9853 13.9503V14.3503ZM9.86723 13.5106C10.4438 14.0706 11.1541 14.3503 11.9853 14.3503V13.9503C11.2532 13.9503 10.6444 13.7078 10.1459 13.2237L9.86723 13.5106ZM8.99563 11.4162C8.99563 12.2468 9.28645 12.9497 9.86764 13.511L10.1455 13.2233C9.64545 12.7403 9.39563 12.1427 9.39563 11.4162H8.99563ZM9.87773 9.32995C9.29045 9.89069 8.99563 10.5906 8.99563 11.4162H9.39563C9.39563 10.6972 9.64763 10.1027 10.154 9.61926L9.87773 9.32995ZM11.9853 8.50073C11.1634 8.50073 10.457 8.7772 9.87777 9.32991L10.1539 9.61929C10.656 9.14018 11.2625 8.90073 11.9853 8.90073V8.50073ZM14.1745 9.63609C13.6919 8.87676 12.9508 8.50073 11.9853 8.50073V8.90073C12.8301 8.90073 13.4359 9.2198 13.8369 9.85065L14.1745 9.63609ZM14.0242 9.54337H14.0057V9.94337H14.0242V9.54337ZM13.8242 9.27998V9.74337H14.2242V9.27998H13.8242ZM14.6915 9.07998H14.0242V9.47998H14.6915V9.07998ZM14.8915 14.0251V9.27998H14.4915V14.0251H14.8915ZM14.0242 14.2251H14.6915V13.8251H14.0242V14.2251ZM13.3235 10.0715C13.686 10.4509 13.8659 10.9017 13.8659 11.4348H14.2659C14.2659 10.8001 14.0473 10.25 13.6127 9.79519L13.3235 10.0715ZM11.9853 9.49851C12.5144 9.49851 12.9565 9.68768 13.3236 10.0716L13.6127 9.79514C13.1704 9.33258 12.6239 9.09851 11.9853 9.09851V9.49851ZM10.6032 10.0505C10.9642 9.68394 11.4197 9.49851 11.9853 9.49851V9.09851C11.3213 9.09851 10.7604 9.32087 10.3182 9.76986L10.6032 10.0505ZM10.0583 11.444C10.0583 10.8775 10.2413 10.418 10.6032 10.0505L10.3182 9.76986C9.87684 10.218 9.65829 10.781 9.65829 11.444H10.0583ZM10.6062 12.8127C10.2419 12.4512 10.0583 11.9999 10.0583 11.444H9.65829C9.65829 12.0992 9.87939 12.655 10.3245 13.0967L10.6062 12.8127ZM11.9853 13.3525C11.425 13.3525 10.9701 13.1711 10.6057 12.8122L10.325 13.0972C10.77 13.5354 11.3283 13.7525 11.9853 13.7525V13.3525ZM13.3246 12.7876C12.9578 13.1656 12.5153 13.3525 11.9853 13.3525V13.7525C12.6229 13.7525 13.1691 13.5223 13.6117 13.0662L13.3246 12.7876ZM13.8659 11.4348C13.8659 11.9678 13.6861 12.4149 13.3246 12.7876L13.6117 13.0661C14.0472 12.6171 14.2659 12.0695 14.2659 11.4348H13.8659Z" fill="white" mask="url(#path-2-outside-1_331_9013)"/>
</svg>
